G04 #@! TF.GenerationSoftware,KiCad,Pcbnew,9.0.0+dfsg-1*
G04 #@! TF.CreationDate,2025-03-20T13:58:05-04:00*
G04 #@! TF.ProjectId,breakout,62726561-6b6f-4757-942e-6b696361645f,A.27*
G04 #@! TF.SameCoordinates,Original*
G04 #@! TF.FileFunction,Copper,L1,Top*
G04 #@! TF.FilePolarity,Positive*
%FSLAX46Y46*%
G04 Gerber Fmt 4.6, Leading zero omitted, Abs format (unit mm)*
G04 Created by KiCad (PCBNEW 9.0.0+dfsg-1) date 2025-03-20 13:58:05*
%MOMM*%
%LPD*%
G01*
G04 APERTURE LIST*
G04 Aperture macros list*
%AMRoundRect*
0 Rectangle with rounded corners*
0 $1 Rounding radius*
0 $2 $3 $4 $5 $6 $7 $8 $9 X,Y pos of 4 corners*
0 Add a 4 corners polygon primitive as box body*
4,1,4,$2,$3,$4,$5,$6,$7,$8,$9,$2,$3,0*
0 Add four circle primitives for the rounded corners*
1,1,$1+$1,$2,$3*
1,1,$1+$1,$4,$5*
1,1,$1+$1,$6,$7*
1,1,$1+$1,$8,$9*
0 Add four rect primitives between the rounded corners*
20,1,$1+$1,$2,$3,$4,$5,0*
20,1,$1+$1,$4,$5,$6,$7,0*
20,1,$1+$1,$6,$7,$8,$9,0*
20,1,$1+$1,$8,$9,$2,$3,0*%
G04 Aperture macros list end*
G04 #@! TA.AperFunction,ComponentPad*
%ADD10C,1.600000*%
G04 #@! TD*
G04 #@! TA.AperFunction,ComponentPad*
%ADD11O,1.600000X1.600000*%
G04 #@! TD*
G04 #@! TA.AperFunction,ComponentPad*
%ADD12R,1.600000X1.600000*%
G04 #@! TD*
G04 #@! TA.AperFunction,ComponentPad*
%ADD13R,1.800000X1.800000*%
G04 #@! TD*
G04 #@! TA.AperFunction,ComponentPad*
%ADD14C,1.800000*%
G04 #@! TD*
G04 #@! TA.AperFunction,ComponentPad*
%ADD15C,6.400000*%
G04 #@! TD*
G04 #@! TA.AperFunction,ComponentPad*
%ADD16R,3.500000X3.500000*%
G04 #@! TD*
G04 #@! TA.AperFunction,ComponentPad*
%ADD17RoundRect,0.750000X-0.750000X-1.000000X0.750000X-1.000000X0.750000X1.000000X-0.750000X1.000000X0*%
G04 #@! TD*
G04 #@! TA.AperFunction,ComponentPad*
%ADD18RoundRect,0.875000X-0.875000X-0.875000X0.875000X-0.875000X0.875000X0.875000X-0.875000X0.875000X0*%
G04 #@! TD*
G04 #@! TA.AperFunction,ComponentPad*
%ADD19R,1.200000X1.200000*%
G04 #@! TD*
G04 #@! TA.AperFunction,ComponentPad*
%ADD20C,1.200000*%
G04 #@! TD*
G04 #@! TA.AperFunction,ComponentPad*
%ADD21R,1.700000X1.700000*%
G04 #@! TD*
G04 #@! TA.AperFunction,ComponentPad*
%ADD22O,1.700000X1.700000*%
G04 #@! TD*
G04 #@! TA.AperFunction,Conductor*
%ADD23C,0.298704*%
G04 #@! TD*
G04 APERTURE END LIST*
D10*
X53081000Y-68326000D03*
D11*
X45461000Y-68326000D03*
D12*
X39111000Y-70866000D03*
D10*
X41611000Y-70866000D03*
D13*
X50541000Y-73660000D03*
D14*
X53081000Y-73660000D03*
D15*
X172720000Y-71120000D03*
D16*
X39350200Y-80576500D03*
D17*
X33350200Y-80576500D03*
D18*
X36350200Y-85276500D03*
D15*
X30480000Y-71120000D03*
D19*
X45461000Y-73660000D03*
D20*
X46961000Y-73660000D03*
D21*
X132080000Y-127000000D03*
D22*
X132080000Y-129540000D03*
X134620000Y-127000000D03*
X134620000Y-129540000D03*
X137160000Y-127000000D03*
X137160000Y-129540000D03*
X139700000Y-127000000D03*
X139700000Y-129540000D03*
X142240000Y-127000000D03*
X142240000Y-129540000D03*
X144780000Y-127000000D03*
X144780000Y-129540000D03*
X147320000Y-127000000D03*
X147320000Y-129540000D03*
X149860000Y-127000000D03*
X149860000Y-129540000D03*
X152400000Y-127000000D03*
X152400000Y-129540000D03*
X154940000Y-127000000D03*
X154940000Y-129540000D03*
X157480000Y-127000000D03*
X157480000Y-129540000D03*
X160020000Y-127000000D03*
X160020000Y-129540000D03*
X162560000Y-127000000D03*
X162560000Y-129540000D03*
X165100000Y-127000000D03*
X165100000Y-129540000D03*
X167640000Y-127000000D03*
X167640000Y-129540000D03*
X170180000Y-127000000D03*
X170180000Y-129540000D03*
X172720000Y-127000000D03*
X172720000Y-129540000D03*
X175260000Y-127000000D03*
X175260000Y-129540000D03*
D21*
X27940000Y-127000000D03*
D22*
X27940000Y-129540000D03*
X30480000Y-127000000D03*
X30480000Y-129540000D03*
X33020000Y-127000000D03*
X33020000Y-129540000D03*
X35560000Y-127000000D03*
X35560000Y-129540000D03*
X38100000Y-127000000D03*
X38100000Y-129540000D03*
X40640000Y-127000000D03*
X40640000Y-129540000D03*
X43180000Y-127000000D03*
X43180000Y-129540000D03*
X45720000Y-127000000D03*
X45720000Y-129540000D03*
X48260000Y-127000000D03*
X48260000Y-129540000D03*
X50800000Y-127000000D03*
X50800000Y-129540000D03*
X53340000Y-127000000D03*
X53340000Y-129540000D03*
X55880000Y-127000000D03*
X55880000Y-129540000D03*
X58420000Y-127000000D03*
X58420000Y-129540000D03*
X60960000Y-127000000D03*
X60960000Y-129540000D03*
X63500000Y-127000000D03*
X63500000Y-129540000D03*
X66040000Y-127000000D03*
X66040000Y-129540000D03*
X68580000Y-127000000D03*
X68580000Y-129540000D03*
X71120000Y-127000000D03*
X71120000Y-129540000D03*
X73660000Y-127000000D03*
X73660000Y-129540000D03*
X76200000Y-127000000D03*
X76200000Y-129540000D03*
X78740000Y-127000000D03*
X78740000Y-129540000D03*
X81280000Y-127000000D03*
X81280000Y-129540000D03*
X83820000Y-127000000D03*
X83820000Y-129540000D03*
X86360000Y-127000000D03*
X86360000Y-129540000D03*
X88900000Y-127000000D03*
X88900000Y-129540000D03*
X91440000Y-127000000D03*
X91440000Y-129540000D03*
X93980000Y-127000000D03*
X93980000Y-129540000D03*
X96520000Y-127000000D03*
X96520000Y-129540000D03*
X99060000Y-127000000D03*
X99060000Y-129540000D03*
X101600000Y-127000000D03*
X101600000Y-129540000D03*
X104140000Y-127000000D03*
X104140000Y-129540000D03*
X106680000Y-127000000D03*
X106680000Y-129540000D03*
X109220000Y-127000000D03*
X109220000Y-129540000D03*
X111760000Y-127000000D03*
X111760000Y-129540000D03*
X114300000Y-127000000D03*
X114300000Y-129540000D03*
X116840000Y-127000000D03*
X116840000Y-129540000D03*
X119380000Y-127000000D03*
X119380000Y-129540000D03*
X121920000Y-127000000D03*
X121920000Y-129540000D03*
X124460000Y-127000000D03*
X124460000Y-129540000D03*
X127000000Y-127000000D03*
X127000000Y-129540000D03*
D23*
X41905000Y-73660000D02*
X45461000Y-73660000D01*
X39111000Y-70866000D02*
X39111000Y-80337300D01*
X39111000Y-70866000D02*
X41905000Y-73660000D01*
X45461000Y-73660000D02*
X45461000Y-68326000D01*
G04 #@! TA.AperFunction,Conductor*
G36*
X172723229Y-66240641D02*
G01*
X173138813Y-66258785D01*
X173151689Y-66259912D01*
X173560893Y-66313785D01*
X173573633Y-66316031D01*
X173976607Y-66405368D01*
X173989065Y-66408706D01*
X174382727Y-66532827D01*
X174394868Y-66537247D01*
X174776179Y-66695191D01*
X174787908Y-66700660D01*
X175153999Y-66891235D01*
X175165208Y-66897706D01*
X175513304Y-67119468D01*
X175523900Y-67126888D01*
X175851350Y-67378148D01*
X175861253Y-67386457D01*
X176165559Y-67665302D01*
X176174697Y-67674440D01*
X176391831Y-67911401D01*
X176453537Y-67978741D01*
X176461853Y-67988651D01*
X176602239Y-68171606D01*
X176713108Y-68316094D01*
X176720531Y-68326695D01*
X176942293Y-68674791D01*
X176948764Y-68686000D01*
X177139339Y-69052091D01*
X177144808Y-69063820D01*
X177302749Y-69445124D01*
X177307176Y-69457285D01*
X177418444Y-69810182D01*
X177431286Y-69850909D01*
X177434636Y-69863411D01*
X177523967Y-70266363D01*
X177526214Y-70279108D01*
X177580086Y-70688302D01*
X177581214Y-70701195D01*
X177599359Y-71116770D01*
X177599500Y-71123241D01*
X177599500Y-129533528D01*
X177598935Y-129546457D01*
X177598935Y-129546458D01*
X177584383Y-129712784D01*
X177579893Y-129738251D01*
X177538360Y-129893253D01*
X177529516Y-129917552D01*
X177461698Y-130062988D01*
X177448768Y-130085383D01*
X177356730Y-130216827D01*
X177340108Y-130236637D01*
X177226637Y-130350108D01*
X177206827Y-130366730D01*
X177075383Y-130458768D01*
X177052988Y-130471698D01*
X176907552Y-130539516D01*
X176883253Y-130548360D01*
X176728251Y-130589893D01*
X176702784Y-130594383D01*
X176536458Y-130608935D01*
X176523528Y-130609500D01*
X176038809Y-130609500D01*
X175964633Y-130589625D01*
X175910332Y-130535324D01*
X175890457Y-130461148D01*
X175910332Y-130386972D01*
X175933904Y-130356251D01*
X176078462Y-130211694D01*
X176193776Y-130039114D01*
X176273207Y-129847353D01*
X176313700Y-129643780D01*
X176313700Y-129436220D01*
X176273207Y-129232647D01*
X176193776Y-129040886D01*
X176078462Y-128868306D01*
X175931694Y-128721538D01*
X175931690Y-128721535D01*
X175931689Y-128721534D01*
X175759113Y-128606223D01*
X175759110Y-128606222D01*
X175567354Y-128526793D01*
X175526638Y-128518694D01*
X175363780Y-128486300D01*
X175156220Y-128486300D01*
X175020504Y-128513295D01*
X174952645Y-128526793D01*
X174760889Y-128606222D01*
X174760886Y-128606223D01*
X174588310Y-128721534D01*
X174441534Y-128868310D01*
X174326223Y-129040886D01*
X174326222Y-129040889D01*
X174246793Y-129232645D01*
X174246793Y-129232647D01*
X174206300Y-129436220D01*
X174206300Y-129643780D01*
X174240044Y-129813424D01*
X174246793Y-129847354D01*
X174326222Y-130039110D01*
X174326223Y-130039113D01*
X174441534Y-130211689D01*
X174441535Y-130211690D01*
X174441538Y-130211694D01*
X174586093Y-130356249D01*
X174624488Y-130422752D01*
X174624488Y-130499544D01*
X174586092Y-130566049D01*
X174519587Y-130604445D01*
X174481191Y-130609500D01*
X173498809Y-130609500D01*
X173424633Y-130589625D01*
X173370332Y-130535324D01*
X173350457Y-130461148D01*
X173370332Y-130386972D01*
X173393904Y-130356251D01*
X173538462Y-130211694D01*
X173653776Y-130039114D01*
X173733207Y-129847353D01*
X173773700Y-129643780D01*
X173773700Y-129436220D01*
X173733207Y-129232647D01*
X173653776Y-129040886D01*
X173538462Y-128868306D01*
X173391694Y-128721538D01*
X173391690Y-128721535D01*
X173391689Y-128721534D01*
X173219113Y-128606223D01*
X173219110Y-128606222D01*
X173027354Y-128526793D01*
X172986638Y-128518694D01*
X172823780Y-128486300D01*
X172616220Y-128486300D01*
X172480504Y-128513295D01*
X172412645Y-128526793D01*
X172220889Y-128606222D01*
X172220886Y-128606223D01*
X172048310Y-128721534D01*
X171901534Y-128868310D01*
X171786223Y-129040886D01*
X171786222Y-129040889D01*
X171706793Y-129232645D01*
X171706793Y-129232647D01*
X171666300Y-129436220D01*
X171666300Y-129643780D01*
X171700044Y-129813424D01*
X171706793Y-129847354D01*
X171786222Y-130039110D01*
X171786223Y-130039113D01*
X171901534Y-130211689D01*
X171901535Y-130211690D01*
X171901538Y-130211694D01*
X172046093Y-130356249D01*
X172084488Y-130422752D01*
X172084488Y-130499544D01*
X172046092Y-130566049D01*
X171979587Y-130604445D01*
X171941191Y-130609500D01*
X170958809Y-130609500D01*
X170884633Y-130589625D01*
X170830332Y-130535324D01*
X170810457Y-130461148D01*
X170830332Y-130386972D01*
X170853904Y-130356251D01*
X170998462Y-130211694D01*
X171113776Y-130039114D01*
X171193207Y-129847353D01*
X171233700Y-129643780D01*
X171233700Y-129436220D01*
X171193207Y-129232647D01*
X171113776Y-129040886D01*
X170998462Y-128868306D01*
X170851694Y-128721538D01*
X170851690Y-128721535D01*
X170851689Y-128721534D01*
X170679113Y-128606223D01*
X170679110Y-128606222D01*
X170487354Y-128526793D01*
X170446638Y-128518694D01*
X170283780Y-128486300D01*
X170076220Y-128486300D01*
X169940504Y-128513295D01*
X169872645Y-128526793D01*
X169680889Y-128606222D01*
X169680886Y-128606223D01*
X169508310Y-128721534D01*
X169361534Y-128868310D01*
X169246223Y-129040886D01*
X169246222Y-129040889D01*
X169166793Y-129232645D01*
X169166793Y-129232647D01*
X169126300Y-129436220D01*
X169126300Y-129643780D01*
X169160044Y-129813424D01*
X169166793Y-129847354D01*
X169246222Y-130039110D01*
X169246223Y-130039113D01*
X169361534Y-130211689D01*
X169361535Y-130211690D01*
X169361538Y-130211694D01*
X169506093Y-130356249D01*
X169544488Y-130422752D01*
X169544488Y-130499544D01*
X169506092Y-130566049D01*
X169439587Y-130604445D01*
X169401191Y-130609500D01*
X168418809Y-130609500D01*
X168344633Y-130589625D01*
X168290332Y-130535324D01*
X168270457Y-130461148D01*
X168290332Y-130386972D01*
X168313904Y-130356251D01*
X168458462Y-130211694D01*
X168573776Y-130039114D01*
X168653207Y-129847353D01*
X168693700Y-129643780D01*
X168693700Y-129436220D01*
X168653207Y-129232647D01*
X168573776Y-129040886D01*
X168458462Y-128868306D01*
X168311694Y-128721538D01*
X168311690Y-128721535D01*
X168311689Y-128721534D01*
X168139113Y-128606223D01*
X168139110Y-128606222D01*
X167947354Y-128526793D01*
X167906638Y-128518694D01*
X167743780Y-128486300D01*
X167536220Y-128486300D01*
X167400504Y-128513295D01*
X167332645Y-128526793D01*
X167140889Y-128606222D01*
X167140886Y-128606223D01*
X166968310Y-128721534D01*
X166821534Y-128868310D01*
X166706223Y-129040886D01*
X166706222Y-129040889D01*
X166626793Y-129232645D01*
X166626793Y-129232647D01*
X166586300Y-129436220D01*
X166586300Y-129643780D01*
X166620044Y-129813424D01*
X166626793Y-129847354D01*
X166706222Y-130039110D01*
X166706223Y-130039113D01*
X166821534Y-130211689D01*
X166821535Y-130211690D01*
X166821538Y-130211694D01*
X166966093Y-130356249D01*
X167004488Y-130422752D01*
X167004488Y-130499544D01*
X166966092Y-130566049D01*
X166899587Y-130604445D01*
X166861191Y-130609500D01*
X165878809Y-130609500D01*
X165804633Y-130589625D01*
X165750332Y-130535324D01*
X165730457Y-130461148D01*
X165750332Y-130386972D01*
X165773904Y-130356251D01*
X165918462Y-130211694D01*
X166033776Y-130039114D01*
X166113207Y-129847353D01*
X166153700Y-129643780D01*
X166153700Y-129436220D01*
X166113207Y-129232647D01*
X166033776Y-129040886D01*
X165918462Y-128868306D01*
X165771694Y-128721538D01*
X165771690Y-128721535D01*
X165771689Y-128721534D01*
X165599113Y-128606223D01*
X165599110Y-128606222D01*
X165407354Y-128526793D01*
X165366638Y-128518694D01*
X165203780Y-128486300D01*
X164996220Y-128486300D01*
X164860504Y-128513295D01*
X164792645Y-128526793D01*
X164600889Y-128606222D01*
X164600886Y-128606223D01*
X164428310Y-128721534D01*
X164281534Y-128868310D01*
X164166223Y-129040886D01*
X164166222Y-129040889D01*
X164086793Y-129232645D01*
X164086793Y-129232647D01*
X164046300Y-129436220D01*
X164046300Y-129643780D01*
X164080044Y-129813424D01*
X164086793Y-129847354D01*
X164166222Y-130039110D01*
X164166223Y-130039113D01*
X164281534Y-130211689D01*
X164281535Y-130211690D01*
X164281538Y-130211694D01*
X164426093Y-130356249D01*
X164464488Y-130422752D01*
X164464488Y-130499544D01*
X164426092Y-130566049D01*
X164359587Y-130604445D01*
X164321191Y-130609500D01*
X163338809Y-130609500D01*
X163264633Y-130589625D01*
X163210332Y-130535324D01*
X163190457Y-130461148D01*
X163210332Y-130386972D01*
X163233904Y-130356251D01*
X163378462Y-130211694D01*
X163493776Y-130039114D01*
X163573207Y-129847353D01*
X163613700Y-129643780D01*
X163613700Y-129436220D01*
X163573207Y-129232647D01*
X163493776Y-129040886D01*
X163378462Y-128868306D01*
X163231694Y-128721538D01*
X163231690Y-128721535D01*
X163231689Y-128721534D01*
X163059113Y-128606223D01*
X163059110Y-128606222D01*
X162867354Y-128526793D01*
X162826638Y-128518694D01*
X162663780Y-128486300D01*
X162456220Y-128486300D01*
X162320504Y-128513295D01*
X162252645Y-128526793D01*
X162060889Y-128606222D01*
X162060886Y-128606223D01*
X161888310Y-128721534D01*
X161741534Y-128868310D01*
X161626223Y-129040886D01*
X161626222Y-129040889D01*
X161546793Y-129232645D01*
X161546793Y-129232647D01*
X161506300Y-129436220D01*
X161506300Y-129643780D01*
X161540044Y-129813424D01*
X161546793Y-129847354D01*
X161626222Y-130039110D01*
X161626223Y-130039113D01*
X161741534Y-130211689D01*
X161741535Y-130211690D01*
X161741538Y-130211694D01*
X161886093Y-130356249D01*
X161924488Y-130422752D01*
X161924488Y-130499544D01*
X161886092Y-130566049D01*
X161819587Y-130604445D01*
X161781191Y-130609500D01*
X160798809Y-130609500D01*
X160724633Y-130589625D01*
X160670332Y-130535324D01*
X160650457Y-130461148D01*
X160670332Y-130386972D01*
X160693904Y-130356251D01*
X160838462Y-130211694D01*
X160953776Y-130039114D01*
X161033207Y-129847353D01*
X161073700Y-129643780D01*
X161073700Y-129436220D01*
X161033207Y-129232647D01*
X160953776Y-129040886D01*
X160838462Y-128868306D01*
X160691694Y-128721538D01*
X160691690Y-128721535D01*
X160691689Y-128721534D01*
X160519113Y-128606223D01*
X160519110Y-128606222D01*
X160327354Y-128526793D01*
X160286638Y-128518694D01*
X160123780Y-128486300D01*
X159916220Y-128486300D01*
X159780504Y-128513295D01*
X159712645Y-128526793D01*
X159520889Y-128606222D01*
X159520886Y-128606223D01*
X159348310Y-128721534D01*
X159201534Y-128868310D01*
X159086223Y-129040886D01*
X159086222Y-129040889D01*
X159006793Y-129232645D01*
X159006793Y-129232647D01*
X158966300Y-129436220D01*
X158966300Y-129643780D01*
X159000044Y-129813424D01*
X159006793Y-129847354D01*
X159086222Y-130039110D01*
X159086223Y-130039113D01*
X159201534Y-130211689D01*
X159201535Y-130211690D01*
X159201538Y-130211694D01*
X159346093Y-130356249D01*
X159384488Y-130422752D01*
X159384488Y-130499544D01*
X159346092Y-130566049D01*
X159279587Y-130604445D01*
X159241191Y-130609500D01*
X158258809Y-130609500D01*
X158184633Y-130589625D01*
X158130332Y-130535324D01*
X158110457Y-130461148D01*
X158130332Y-130386972D01*
X158153904Y-130356251D01*
X158298462Y-130211694D01*
X158413776Y-130039114D01*
X158493207Y-129847353D01*
X158533700Y-129643780D01*
X158533700Y-129436220D01*
X158493207Y-129232647D01*
X158413776Y-129040886D01*
X158298462Y-128868306D01*
X158151694Y-128721538D01*
X158151690Y-128721535D01*
X158151689Y-128721534D01*
X157979113Y-128606223D01*
X157979110Y-128606222D01*
X157787354Y-128526793D01*
X157746638Y-128518694D01*
X157583780Y-128486300D01*
X157376220Y-128486300D01*
X157240504Y-128513295D01*
X157172645Y-128526793D01*
X156980889Y-128606222D01*
X156980886Y-128606223D01*
X156808310Y-128721534D01*
X156661534Y-128868310D01*
X156546223Y-129040886D01*
X156546222Y-129040889D01*
X156466793Y-129232645D01*
X156466793Y-129232647D01*
X156426300Y-129436220D01*
X156426300Y-129643780D01*
X156460044Y-129813424D01*
X156466793Y-129847354D01*
X156546222Y-130039110D01*
X156546223Y-130039113D01*
X156661534Y-130211689D01*
X156661535Y-130211690D01*
X156661538Y-130211694D01*
X156806093Y-130356249D01*
X156844488Y-130422752D01*
X156844488Y-130499544D01*
X156806092Y-130566049D01*
X156739587Y-130604445D01*
X156701191Y-130609500D01*
X155718809Y-130609500D01*
X155644633Y-130589625D01*
X155590332Y-130535324D01*
X155570457Y-130461148D01*
X155590332Y-130386972D01*
X155613904Y-130356251D01*
X155758462Y-130211694D01*
X155873776Y-130039114D01*
X155953207Y-129847353D01*
X155993700Y-129643780D01*
X155993700Y-129436220D01*
X155953207Y-129232647D01*
X155873776Y-129040886D01*
X155758462Y-128868306D01*
X155611694Y-128721538D01*
X155611690Y-128721535D01*
X155611689Y-128721534D01*
X155439113Y-128606223D01*
X155439110Y-128606222D01*
X155247354Y-128526793D01*
X155206638Y-128518694D01*
X155043780Y-128486300D01*
X154836220Y-128486300D01*
X154700504Y-128513295D01*
X154632645Y-128526793D01*
X154440889Y-128606222D01*
X154440886Y-128606223D01*
X154268310Y-128721534D01*
X154121534Y-128868310D01*
X154006223Y-129040886D01*
X154006222Y-129040889D01*
X153926793Y-129232645D01*
X153926793Y-129232647D01*
X153886300Y-129436220D01*
X153886300Y-129643780D01*
X153920044Y-129813424D01*
X153926793Y-129847354D01*
X154006222Y-130039110D01*
X154006223Y-130039113D01*
X154121534Y-130211689D01*
X154121535Y-130211690D01*
X154121538Y-130211694D01*
X154266093Y-130356249D01*
X154304488Y-130422752D01*
X154304488Y-130499544D01*
X154266092Y-130566049D01*
X154199587Y-130604445D01*
X154161191Y-130609500D01*
X153178809Y-130609500D01*
X153104633Y-130589625D01*
X153050332Y-130535324D01*
X153030457Y-130461148D01*
X153050332Y-130386972D01*
X153073904Y-130356251D01*
X153218462Y-130211694D01*
X153333776Y-130039114D01*
X153413207Y-129847353D01*
X153453700Y-129643780D01*
X153453700Y-129436220D01*
X153413207Y-129232647D01*
X153333776Y-129040886D01*
X153218462Y-128868306D01*
X153071694Y-128721538D01*
X153071690Y-128721535D01*
X153071689Y-128721534D01*
X152899113Y-128606223D01*
X152899110Y-128606222D01*
X152707354Y-128526793D01*
X152666638Y-128518694D01*
X152503780Y-128486300D01*
X152296220Y-128486300D01*
X152160504Y-128513295D01*
X152092645Y-128526793D01*
X151900889Y-128606222D01*
X151900886Y-128606223D01*
X151728310Y-128721534D01*
X151581534Y-128868310D01*
X151466223Y-129040886D01*
X151466222Y-129040889D01*
X151386793Y-129232645D01*
X151386793Y-129232647D01*
X151346300Y-129436220D01*
X151346300Y-129643780D01*
X151380044Y-129813424D01*
X151386793Y-129847354D01*
X151466222Y-130039110D01*
X151466223Y-130039113D01*
X151581534Y-130211689D01*
X151581535Y-130211690D01*
X151581538Y-130211694D01*
X151726093Y-130356249D01*
X151764488Y-130422752D01*
X151764488Y-130499544D01*
X151726092Y-130566049D01*
X151659587Y-130604445D01*
X151621191Y-130609500D01*
X150638809Y-130609500D01*
X150564633Y-130589625D01*
X150510332Y-130535324D01*
X150490457Y-130461148D01*
X150510332Y-130386972D01*
X150533904Y-130356251D01*
X150678462Y-130211694D01*
X150793776Y-130039114D01*
X150873207Y-129847353D01*
X150913700Y-129643780D01*
X150913700Y-129436220D01*
X150873207Y-129232647D01*
X150793776Y-129040886D01*
X150678462Y-128868306D01*
X150531694Y-128721538D01*
X150531690Y-128721535D01*
X150531689Y-128721534D01*
X150359113Y-128606223D01*
X150359110Y-128606222D01*
X150167354Y-128526793D01*
X150126638Y-128518694D01*
X149963780Y-128486300D01*
X149756220Y-128486300D01*
X149620504Y-128513295D01*
X149552645Y-128526793D01*
X149360889Y-128606222D01*
X149360886Y-128606223D01*
X149188310Y-128721534D01*
X149041534Y-128868310D01*
X148926223Y-129040886D01*
X148926222Y-129040889D01*
X148846793Y-129232645D01*
X148846793Y-129232647D01*
X148806300Y-129436220D01*
X148806300Y-129643780D01*
X148840044Y-129813424D01*
X148846793Y-129847354D01*
X148926222Y-130039110D01*
X148926223Y-130039113D01*
X149041534Y-130211689D01*
X149041535Y-130211690D01*
X149041538Y-130211694D01*
X149186093Y-130356249D01*
X149224488Y-130422752D01*
X149224488Y-130499544D01*
X149186092Y-130566049D01*
X149119587Y-130604445D01*
X149081191Y-130609500D01*
X148098809Y-130609500D01*
X148024633Y-130589625D01*
X147970332Y-130535324D01*
X147950457Y-130461148D01*
X147970332Y-130386972D01*
X147993904Y-130356251D01*
X148138462Y-130211694D01*
X148253776Y-130039114D01*
X148333207Y-129847353D01*
X148373700Y-129643780D01*
X148373700Y-129436220D01*
X148333207Y-129232647D01*
X148253776Y-129040886D01*
X148138462Y-128868306D01*
X147991694Y-128721538D01*
X147991690Y-128721535D01*
X147991689Y-128721534D01*
X147819113Y-128606223D01*
X147819110Y-128606222D01*
X147627354Y-128526793D01*
X147586638Y-128518694D01*
X147423780Y-128486300D01*
X147216220Y-128486300D01*
X147080504Y-128513295D01*
X147012645Y-128526793D01*
X146820889Y-128606222D01*
X146820886Y-128606223D01*
X146648310Y-128721534D01*
X146501534Y-128868310D01*
X146386223Y-129040886D01*
X146386222Y-129040889D01*
X146306793Y-129232645D01*
X146306793Y-129232647D01*
X146266300Y-129436220D01*
X146266300Y-129643780D01*
X146300044Y-129813424D01*
X146306793Y-129847354D01*
X146386222Y-130039110D01*
X146386223Y-130039113D01*
X146501534Y-130211689D01*
X146501535Y-130211690D01*
X146501538Y-130211694D01*
X146646093Y-130356249D01*
X146684488Y-130422752D01*
X146684488Y-130499544D01*
X146646092Y-130566049D01*
X146579587Y-130604445D01*
X146541191Y-130609500D01*
X145558809Y-130609500D01*
X145484633Y-130589625D01*
X145430332Y-130535324D01*
X145410457Y-130461148D01*
X145430332Y-130386972D01*
X145453904Y-130356251D01*
X145598462Y-130211694D01*
X145713776Y-130039114D01*
X145793207Y-129847353D01*
X145833700Y-129643780D01*
X145833700Y-129436220D01*
X145793207Y-129232647D01*
X145713776Y-129040886D01*
X145598462Y-128868306D01*
X145451694Y-128721538D01*
X145451690Y-128721535D01*
X145451689Y-128721534D01*
X145279113Y-128606223D01*
X145279110Y-128606222D01*
X145087354Y-128526793D01*
X145046638Y-128518694D01*
X144883780Y-128486300D01*
X144676220Y-128486300D01*
X144540504Y-128513295D01*
X144472645Y-128526793D01*
X144280889Y-128606222D01*
X144280886Y-128606223D01*
X144108310Y-128721534D01*
X143961534Y-128868310D01*
X143846223Y-129040886D01*
X143846222Y-129040889D01*
X143766793Y-129232645D01*
X143766793Y-129232647D01*
X143726300Y-129436220D01*
X143726300Y-129643780D01*
X143760044Y-129813424D01*
X143766793Y-129847354D01*
X143846222Y-130039110D01*
X143846223Y-130039113D01*
X143961534Y-130211689D01*
X143961535Y-130211690D01*
X143961538Y-130211694D01*
X144106093Y-130356249D01*
X144144488Y-130422752D01*
X144144488Y-130499544D01*
X144106092Y-130566049D01*
X144039587Y-130604445D01*
X144001191Y-130609500D01*
X143018809Y-130609500D01*
X142944633Y-130589625D01*
X142890332Y-130535324D01*
X142870457Y-130461148D01*
X142890332Y-130386972D01*
X142913904Y-130356251D01*
X143058462Y-130211694D01*
X143173776Y-130039114D01*
X143253207Y-129847353D01*
X143293700Y-129643780D01*
X143293700Y-129436220D01*
X143253207Y-129232647D01*
X143173776Y-129040886D01*
X143058462Y-128868306D01*
X142911694Y-128721538D01*
X142911690Y-128721535D01*
X142911689Y-128721534D01*
X142739113Y-128606223D01*
X142739110Y-128606222D01*
X142547354Y-128526793D01*
X142506638Y-128518694D01*
X142343780Y-128486300D01*
X142136220Y-128486300D01*
X142000504Y-128513295D01*
X141932645Y-128526793D01*
X141740889Y-128606222D01*
X141740886Y-128606223D01*
X141568310Y-128721534D01*
X141421534Y-128868310D01*
X141306223Y-129040886D01*
X141306222Y-129040889D01*
X141226793Y-129232645D01*
X141226793Y-129232647D01*
X141186300Y-129436220D01*
X141186300Y-129643780D01*
X141220044Y-129813424D01*
X141226793Y-129847354D01*
X141306222Y-130039110D01*
X141306223Y-130039113D01*
X141421534Y-130211689D01*
X141421535Y-130211690D01*
X141421538Y-130211694D01*
X141566093Y-130356249D01*
X141604488Y-130422752D01*
X141604488Y-130499544D01*
X141566092Y-130566049D01*
X141499587Y-130604445D01*
X141461191Y-130609500D01*
X140478809Y-130609500D01*
X140404633Y-130589625D01*
X140350332Y-130535324D01*
X140330457Y-130461148D01*
X140350332Y-130386972D01*
X140373904Y-130356251D01*
X140518462Y-130211694D01*
X140633776Y-130039114D01*
X140713207Y-129847353D01*
X140753700Y-129643780D01*
X140753700Y-129436220D01*
X140713207Y-129232647D01*
X140633776Y-129040886D01*
X140518462Y-128868306D01*
X140371694Y-128721538D01*
X140371690Y-128721535D01*
X140371689Y-128721534D01*
X140199113Y-128606223D01*
X140199110Y-128606222D01*
X140007354Y-128526793D01*
X139966638Y-128518694D01*
X139803780Y-128486300D01*
X139596220Y-128486300D01*
X139460504Y-128513295D01*
X139392645Y-128526793D01*
X139200889Y-128606222D01*
X139200886Y-128606223D01*
X139028310Y-128721534D01*
X138881534Y-128868310D01*
X138766223Y-129040886D01*
X138766222Y-129040889D01*
X138686793Y-129232645D01*
X138686793Y-129232647D01*
X138646300Y-129436220D01*
X138646300Y-129643780D01*
X138680044Y-129813424D01*
X138686793Y-129847354D01*
X138766222Y-130039110D01*
X138766223Y-130039113D01*
X138881534Y-130211689D01*
X138881535Y-130211690D01*
X138881538Y-130211694D01*
X139026093Y-130356249D01*
X139064488Y-130422752D01*
X139064488Y-130499544D01*
X139026092Y-130566049D01*
X138959587Y-130604445D01*
X138921191Y-130609500D01*
X137938809Y-130609500D01*
X137864633Y-130589625D01*
X137810332Y-130535324D01*
X137790457Y-130461148D01*
X137810332Y-130386972D01*
X137833904Y-130356251D01*
X137978462Y-130211694D01*
X138093776Y-130039114D01*
X138173207Y-129847353D01*
X138213700Y-129643780D01*
X138213700Y-129436220D01*
X138173207Y-129232647D01*
X138093776Y-129040886D01*
X137978462Y-128868306D01*
X137831694Y-128721538D01*
X137831690Y-128721535D01*
X137831689Y-128721534D01*
X137659113Y-128606223D01*
X137659110Y-128606222D01*
X137467354Y-128526793D01*
X137426638Y-128518694D01*
X137263780Y-128486300D01*
X137056220Y-128486300D01*
X136920504Y-128513295D01*
X136852645Y-128526793D01*
X136660889Y-128606222D01*
X136660886Y-128606223D01*
X136488310Y-128721534D01*
X136341534Y-128868310D01*
X136226223Y-129040886D01*
X136226222Y-129040889D01*
X136146793Y-129232645D01*
X136146793Y-129232647D01*
X136106300Y-129436220D01*
X136106300Y-129643780D01*
X136140044Y-129813424D01*
X136146793Y-129847354D01*
X136226222Y-130039110D01*
X136226223Y-130039113D01*
X136341534Y-130211689D01*
X136341535Y-130211690D01*
X136341538Y-130211694D01*
X136486093Y-130356249D01*
X136524488Y-130422752D01*
X136524488Y-130499544D01*
X136486092Y-130566049D01*
X136419587Y-130604445D01*
X136381191Y-130609500D01*
X135398809Y-130609500D01*
X135324633Y-130589625D01*
X135270332Y-130535324D01*
X135250457Y-130461148D01*
X135270332Y-130386972D01*
X135293904Y-130356251D01*
X135438462Y-130211694D01*
X135553776Y-130039114D01*
X135633207Y-129847353D01*
X135673700Y-129643780D01*
X135673700Y-129436220D01*
X135633207Y-129232647D01*
X135553776Y-129040886D01*
X135438462Y-128868306D01*
X135291694Y-128721538D01*
X135291690Y-128721535D01*
X135291689Y-128721534D01*
X135119113Y-128606223D01*
X135119110Y-128606222D01*
X134927354Y-128526793D01*
X134886638Y-128518694D01*
X134723780Y-128486300D01*
X134516220Y-128486300D01*
X134380504Y-128513295D01*
X134312645Y-128526793D01*
X134120889Y-128606222D01*
X134120886Y-128606223D01*
X133948310Y-128721534D01*
X133801534Y-128868310D01*
X133686223Y-129040886D01*
X133686222Y-129040889D01*
X133606793Y-129232645D01*
X133606793Y-129232647D01*
X133566300Y-129436220D01*
X133566300Y-129643780D01*
X133600044Y-129813424D01*
X133606793Y-129847354D01*
X133686222Y-130039110D01*
X133686223Y-130039113D01*
X133801534Y-130211689D01*
X133801535Y-130211690D01*
X133801538Y-130211694D01*
X133946093Y-130356249D01*
X133984488Y-130422752D01*
X133984488Y-130499544D01*
X133946092Y-130566049D01*
X133879587Y-130604445D01*
X133841191Y-130609500D01*
X132858809Y-130609500D01*
X132784633Y-130589625D01*
X132730332Y-130535324D01*
X132710457Y-130461148D01*
X132730332Y-130386972D01*
X132753904Y-130356251D01*
X132898462Y-130211694D01*
X133013776Y-130039114D01*
X133093207Y-129847353D01*
X133133700Y-129643780D01*
X133133700Y-129436220D01*
X133093207Y-129232647D01*
X133013776Y-129040886D01*
X132898462Y-128868306D01*
X132751694Y-128721538D01*
X132751690Y-128721535D01*
X132751689Y-128721534D01*
X132579113Y-128606223D01*
X132579110Y-128606222D01*
X132387354Y-128526793D01*
X132346638Y-128518694D01*
X132183780Y-128486300D01*
X131976220Y-128486300D01*
X131840504Y-128513295D01*
X131772645Y-128526793D01*
X131580889Y-128606222D01*
X131580886Y-128606223D01*
X131408310Y-128721534D01*
X131261534Y-128868310D01*
X131146223Y-129040886D01*
X131146222Y-129040889D01*
X131066793Y-129232645D01*
X131066793Y-129232647D01*
X131026300Y-129436220D01*
X131026300Y-129643780D01*
X131060044Y-129813424D01*
X131066793Y-129847354D01*
X131146222Y-130039110D01*
X131146223Y-130039113D01*
X131261534Y-130211689D01*
X131261535Y-130211690D01*
X131261538Y-130211694D01*
X131406093Y-130356249D01*
X131444488Y-130422752D01*
X131444488Y-130499544D01*
X131406092Y-130566049D01*
X131339587Y-130604445D01*
X131301191Y-130609500D01*
X127778809Y-130609500D01*
X127704633Y-130589625D01*
X127650332Y-130535324D01*
X127630457Y-130461148D01*
X127650332Y-130386972D01*
X127673904Y-130356251D01*
X127818462Y-130211694D01*
X127933776Y-130039114D01*
X128013207Y-129847353D01*
X128053700Y-129643780D01*
X128053700Y-129436220D01*
X128013207Y-129232647D01*
X127933776Y-129040886D01*
X127818462Y-128868306D01*
X127671694Y-128721538D01*
X127671690Y-128721535D01*
X127671689Y-128721534D01*
X127499113Y-128606223D01*
X127499110Y-128606222D01*
X127307354Y-128526793D01*
X127266638Y-128518694D01*
X127103780Y-128486300D01*
X126896220Y-128486300D01*
X126760504Y-128513295D01*
X126692645Y-128526793D01*
X126500889Y-128606222D01*
X126500886Y-128606223D01*
X126328310Y-128721534D01*
X126181534Y-128868310D01*
X126066223Y-129040886D01*
X126066222Y-129040889D01*
X125986793Y-129232645D01*
X125986793Y-129232647D01*
X125946300Y-129436220D01*
X125946300Y-129643780D01*
X125980044Y-129813424D01*
X125986793Y-129847354D01*
X126066222Y-130039110D01*
X126066223Y-130039113D01*
X126181534Y-130211689D01*
X126181535Y-130211690D01*
X126181538Y-130211694D01*
X126326093Y-130356249D01*
X126364488Y-130422752D01*
X126364488Y-130499544D01*
X126326092Y-130566049D01*
X126259587Y-130604445D01*
X126221191Y-130609500D01*
X125238809Y-130609500D01*
X125164633Y-130589625D01*
X125110332Y-130535324D01*
X125090457Y-130461148D01*
X125110332Y-130386972D01*
X125133904Y-130356251D01*
X125278462Y-130211694D01*
X125393776Y-130039114D01*
X125473207Y-129847353D01*
X125513700Y-129643780D01*
X125513700Y-129436220D01*
X125473207Y-129232647D01*
X125393776Y-129040886D01*
X125278462Y-128868306D01*
X125131694Y-128721538D01*
X125131690Y-128721535D01*
X125131689Y-128721534D01*
X124959113Y-128606223D01*
X124959110Y-128606222D01*
X124767354Y-128526793D01*
X124726638Y-128518694D01*
X124563780Y-128486300D01*
X124356220Y-128486300D01*
X124220504Y-128513295D01*
X124152645Y-128526793D01*
X123960889Y-128606222D01*
X123960886Y-128606223D01*
X123788310Y-128721534D01*
X123641534Y-128868310D01*
X123526223Y-129040886D01*
X123526222Y-129040889D01*
X123446793Y-129232645D01*
X123446793Y-129232647D01*
X123406300Y-129436220D01*
X123406300Y-129643780D01*
X123440044Y-129813424D01*
X123446793Y-129847354D01*
X123526222Y-130039110D01*
X123526223Y-130039113D01*
X123641534Y-130211689D01*
X123641535Y-130211690D01*
X123641538Y-130211694D01*
X123786093Y-130356249D01*
X123824488Y-130422752D01*
X123824488Y-130499544D01*
X123786092Y-130566049D01*
X123719587Y-130604445D01*
X123681191Y-130609500D01*
X122698809Y-130609500D01*
X122624633Y-130589625D01*
X122570332Y-130535324D01*
X122550457Y-130461148D01*
X122570332Y-130386972D01*
X122593904Y-130356251D01*
X122738462Y-130211694D01*
X122853776Y-130039114D01*
X122933207Y-129847353D01*
X122973700Y-129643780D01*
X122973700Y-129436220D01*
X122933207Y-129232647D01*
X122853776Y-129040886D01*
X122738462Y-128868306D01*
X122591694Y-128721538D01*
X122591690Y-128721535D01*
X122591689Y-128721534D01*
X122419113Y-128606223D01*
X122419110Y-128606222D01*
X122227354Y-128526793D01*
X122186638Y-128518694D01*
X122023780Y-128486300D01*
X121816220Y-128486300D01*
X121680504Y-128513295D01*
X121612645Y-128526793D01*
X121420889Y-128606222D01*
X121420886Y-128606223D01*
X121248310Y-128721534D01*
X121101534Y-128868310D01*
X120986223Y-129040886D01*
X120986222Y-129040889D01*
X120906793Y-129232645D01*
X120906793Y-129232647D01*
X120866300Y-129436220D01*
X120866300Y-129643780D01*
X120900044Y-129813424D01*
X120906793Y-129847354D01*
X120986222Y-130039110D01*
X120986223Y-130039113D01*
X121101534Y-130211689D01*
X121101535Y-130211690D01*
X121101538Y-130211694D01*
X121246093Y-130356249D01*
X121284488Y-130422752D01*
X121284488Y-130499544D01*
X121246092Y-130566049D01*
X121179587Y-130604445D01*
X121141191Y-130609500D01*
X120158809Y-130609500D01*
X120084633Y-130589625D01*
X120030332Y-130535324D01*
X120010457Y-130461148D01*
X120030332Y-130386972D01*
X120053904Y-130356251D01*
X120198462Y-130211694D01*
X120313776Y-130039114D01*
X120393207Y-129847353D01*
X120433700Y-129643780D01*
X120433700Y-129436220D01*
X120393207Y-129232647D01*
X120313776Y-129040886D01*
X120198462Y-128868306D01*
X120051694Y-128721538D01*
X120051690Y-128721535D01*
X120051689Y-128721534D01*
X119879113Y-128606223D01*
X119879110Y-128606222D01*
X119687354Y-128526793D01*
X119646638Y-128518694D01*
X119483780Y-128486300D01*
X119276220Y-128486300D01*
X119140504Y-128513295D01*
X119072645Y-128526793D01*
X118880889Y-128606222D01*
X118880886Y-128606223D01*
X118708310Y-128721534D01*
X118561534Y-128868310D01*
X118446223Y-129040886D01*
X118446222Y-129040889D01*
X118366793Y-129232645D01*
X118366793Y-129232647D01*
X118326300Y-129436220D01*
X118326300Y-129643780D01*
X118360044Y-129813424D01*
X118366793Y-129847354D01*
X118446222Y-130039110D01*
X118446223Y-130039113D01*
X118561534Y-130211689D01*
X118561535Y-130211690D01*
X118561538Y-130211694D01*
X118706093Y-130356249D01*
X118744488Y-130422752D01*
X118744488Y-130499544D01*
X118706092Y-130566049D01*
X118639587Y-130604445D01*
X118601191Y-130609500D01*
X117618809Y-130609500D01*
X117544633Y-130589625D01*
X117490332Y-130535324D01*
X117470457Y-130461148D01*
X117490332Y-130386972D01*
X117513904Y-130356251D01*
X117658462Y-130211694D01*
X117773776Y-130039114D01*
X117853207Y-129847353D01*
X117893700Y-129643780D01*
X117893700Y-129436220D01*
X117853207Y-129232647D01*
X117773776Y-129040886D01*
X117658462Y-128868306D01*
X117511694Y-128721538D01*
X117511690Y-128721535D01*
X117511689Y-128721534D01*
X117339113Y-128606223D01*
X117339110Y-128606222D01*
X117147354Y-128526793D01*
X117106638Y-128518694D01*
X116943780Y-128486300D01*
X116736220Y-128486300D01*
X116600504Y-128513295D01*
X116532645Y-128526793D01*
X116340889Y-128606222D01*
X116340886Y-128606223D01*
X116168310Y-128721534D01*
X116021534Y-128868310D01*
X115906223Y-129040886D01*
X115906222Y-129040889D01*
X115826793Y-129232645D01*
X115826793Y-129232647D01*
X115786300Y-129436220D01*
X115786300Y-129643780D01*
X115820044Y-129813424D01*
X115826793Y-129847354D01*
X115906222Y-130039110D01*
X115906223Y-130039113D01*
X116021534Y-130211689D01*
X116021535Y-130211690D01*
X116021538Y-130211694D01*
X116166093Y-130356249D01*
X116204488Y-130422752D01*
X116204488Y-130499544D01*
X116166092Y-130566049D01*
X116099587Y-130604445D01*
X116061191Y-130609500D01*
X115078809Y-130609500D01*
X115004633Y-130589625D01*
X114950332Y-130535324D01*
X114930457Y-130461148D01*
X114950332Y-130386972D01*
X114973904Y-130356251D01*
X115118462Y-130211694D01*
X115233776Y-130039114D01*
X115313207Y-129847353D01*
X115353700Y-129643780D01*
X115353700Y-129436220D01*
X115313207Y-129232647D01*
X115233776Y-129040886D01*
X115118462Y-128868306D01*
X114971694Y-128721538D01*
X114971690Y-128721535D01*
X114971689Y-128721534D01*
X114799113Y-128606223D01*
X114799110Y-128606222D01*
X114607354Y-128526793D01*
X114566638Y-128518694D01*
X114403780Y-128486300D01*
X114196220Y-128486300D01*
X114060504Y-128513295D01*
X113992645Y-128526793D01*
X113800889Y-128606222D01*
X113800886Y-128606223D01*
X113628310Y-128721534D01*
X113481534Y-128868310D01*
X113366223Y-129040886D01*
X113366222Y-129040889D01*
X113286793Y-129232645D01*
X113286793Y-129232647D01*
X113246300Y-129436220D01*
X113246300Y-129643780D01*
X113280044Y-129813424D01*
X113286793Y-129847354D01*
X113366222Y-130039110D01*
X113366223Y-130039113D01*
X113481534Y-130211689D01*
X113481535Y-130211690D01*
X113481538Y-130211694D01*
X113626093Y-130356249D01*
X113664488Y-130422752D01*
X113664488Y-130499544D01*
X113626092Y-130566049D01*
X113559587Y-130604445D01*
X113521191Y-130609500D01*
X112538809Y-130609500D01*
X112464633Y-130589625D01*
X112410332Y-130535324D01*
X112390457Y-130461148D01*
X112410332Y-130386972D01*
X112433904Y-130356251D01*
X112578462Y-130211694D01*
X112693776Y-130039114D01*
X112773207Y-129847353D01*
X112813700Y-129643780D01*
X112813700Y-129436220D01*
X112773207Y-129232647D01*
X112693776Y-129040886D01*
X112578462Y-128868306D01*
X112431694Y-128721538D01*
X112431690Y-128721535D01*
X112431689Y-128721534D01*
X112259113Y-128606223D01*
X112259110Y-128606222D01*
X112067354Y-128526793D01*
X112026638Y-128518694D01*
X111863780Y-128486300D01*
X111656220Y-128486300D01*
X111520504Y-128513295D01*
X111452645Y-128526793D01*
X111260889Y-128606222D01*
X111260886Y-128606223D01*
X111088310Y-128721534D01*
X110941534Y-128868310D01*
X110826223Y-129040886D01*
X110826222Y-129040889D01*
X110746793Y-129232645D01*
X110746793Y-129232647D01*
X110706300Y-129436220D01*
X110706300Y-129643780D01*
X110740044Y-129813424D01*
X110746793Y-129847354D01*
X110826222Y-130039110D01*
X110826223Y-130039113D01*
X110941534Y-130211689D01*
X110941535Y-130211690D01*
X110941538Y-130211694D01*
X111086093Y-130356249D01*
X111124488Y-130422752D01*
X111124488Y-130499544D01*
X111086092Y-130566049D01*
X111019587Y-130604445D01*
X110981191Y-130609500D01*
X109998809Y-130609500D01*
X109924633Y-130589625D01*
X109870332Y-130535324D01*
X109850457Y-130461148D01*
X109870332Y-130386972D01*
X109893904Y-130356251D01*
X110038462Y-130211694D01*
X110153776Y-130039114D01*
X110233207Y-129847353D01*
X110273700Y-129643780D01*
X110273700Y-129436220D01*
X110233207Y-129232647D01*
X110153776Y-129040886D01*
X110038462Y-128868306D01*
X109891694Y-128721538D01*
X109891690Y-128721535D01*
X109891689Y-128721534D01*
X109719113Y-128606223D01*
X109719110Y-128606222D01*
X109527354Y-128526793D01*
X109486638Y-128518694D01*
X109323780Y-128486300D01*
X109116220Y-128486300D01*
X108980504Y-128513295D01*
X108912645Y-128526793D01*
X108720889Y-128606222D01*
X108720886Y-128606223D01*
X108548310Y-128721534D01*
X108401534Y-128868310D01*
X108286223Y-129040886D01*
X108286222Y-129040889D01*
X108206793Y-129232645D01*
X108206793Y-129232647D01*
X108166300Y-129436220D01*
X108166300Y-129643780D01*
X108200044Y-129813424D01*
X108206793Y-129847354D01*
X108286222Y-130039110D01*
X108286223Y-130039113D01*
X108401534Y-130211689D01*
X108401535Y-130211690D01*
X108401538Y-130211694D01*
X108546093Y-130356249D01*
X108584488Y-130422752D01*
X108584488Y-130499544D01*
X108546092Y-130566049D01*
X108479587Y-130604445D01*
X108441191Y-130609500D01*
X107458809Y-130609500D01*
X107384633Y-130589625D01*
X107330332Y-130535324D01*
X107310457Y-130461148D01*
X107330332Y-130386972D01*
X107353904Y-130356251D01*
X107498462Y-130211694D01*
X107613776Y-130039114D01*
X107693207Y-129847353D01*
X107733700Y-129643780D01*
X107733700Y-129436220D01*
X107693207Y-129232647D01*
X107613776Y-129040886D01*
X107498462Y-128868306D01*
X107351694Y-128721538D01*
X107351690Y-128721535D01*
X107351689Y-128721534D01*
X107179113Y-128606223D01*
X107179110Y-128606222D01*
X106987354Y-128526793D01*
X106946638Y-128518694D01*
X106783780Y-128486300D01*
X106576220Y-128486300D01*
X106440504Y-128513295D01*
X106372645Y-128526793D01*
X106180889Y-128606222D01*
X106180886Y-128606223D01*
X106008310Y-128721534D01*
X105861534Y-128868310D01*
X105746223Y-129040886D01*
X105746222Y-129040889D01*
X105666793Y-129232645D01*
X105666793Y-129232647D01*
X105626300Y-129436220D01*
X105626300Y-129643780D01*
X105660044Y-129813424D01*
X105666793Y-129847354D01*
X105746222Y-130039110D01*
X105746223Y-130039113D01*
X105861534Y-130211689D01*
X105861535Y-130211690D01*
X105861538Y-130211694D01*
X106006093Y-130356249D01*
X106044488Y-130422752D01*
X106044488Y-130499544D01*
X106006092Y-130566049D01*
X105939587Y-130604445D01*
X105901191Y-130609500D01*
X104918809Y-130609500D01*
X104844633Y-130589625D01*
X104790332Y-130535324D01*
X104770457Y-130461148D01*
X104790332Y-130386972D01*
X104813904Y-130356251D01*
X104958462Y-130211694D01*
X105073776Y-130039114D01*
X105153207Y-129847353D01*
X105193700Y-129643780D01*
X105193700Y-129436220D01*
X105153207Y-129232647D01*
X105073776Y-129040886D01*
X104958462Y-128868306D01*
X104811694Y-128721538D01*
X104811690Y-128721535D01*
X104811689Y-128721534D01*
X104639113Y-128606223D01*
X104639110Y-128606222D01*
X104447354Y-128526793D01*
X104406638Y-128518694D01*
X104243780Y-128486300D01*
X104036220Y-128486300D01*
X103900504Y-128513295D01*
X103832645Y-128526793D01*
X103640889Y-128606222D01*
X103640886Y-128606223D01*
X103468310Y-128721534D01*
X103321534Y-128868310D01*
X103206223Y-129040886D01*
X103206222Y-129040889D01*
X103126793Y-129232645D01*
X103126793Y-129232647D01*
X103086300Y-129436220D01*
X103086300Y-129643780D01*
X103120044Y-129813424D01*
X103126793Y-129847354D01*
X103206222Y-130039110D01*
X103206223Y-130039113D01*
X103321534Y-130211689D01*
X103321535Y-130211690D01*
X103321538Y-130211694D01*
X103466093Y-130356249D01*
X103504488Y-130422752D01*
X103504488Y-130499544D01*
X103466092Y-130566049D01*
X103399587Y-130604445D01*
X103361191Y-130609500D01*
X102378809Y-130609500D01*
X102304633Y-130589625D01*
X102250332Y-130535324D01*
X102230457Y-130461148D01*
X102250332Y-130386972D01*
X102273904Y-130356251D01*
X102418462Y-130211694D01*
X102533776Y-130039114D01*
X102613207Y-129847353D01*
X102653700Y-129643780D01*
X102653700Y-129436220D01*
X102613207Y-129232647D01*
X102533776Y-129040886D01*
X102418462Y-128868306D01*
X102271694Y-128721538D01*
X102271690Y-128721535D01*
X102271689Y-128721534D01*
X102099113Y-128606223D01*
X102099110Y-128606222D01*
X101907354Y-128526793D01*
X101866638Y-128518694D01*
X101703780Y-128486300D01*
X101496220Y-128486300D01*
X101360504Y-128513295D01*
X101292645Y-128526793D01*
X101100889Y-128606222D01*
X101100886Y-128606223D01*
X100928310Y-128721534D01*
X100781534Y-128868310D01*
X100666223Y-129040886D01*
X100666222Y-129040889D01*
X100586793Y-129232645D01*
X100586793Y-129232647D01*
X100546300Y-129436220D01*
X100546300Y-129643780D01*
X100580044Y-129813424D01*
X100586793Y-129847354D01*
X100666222Y-130039110D01*
X100666223Y-130039113D01*
X100781534Y-130211689D01*
X100781535Y-130211690D01*
X100781538Y-130211694D01*
X100926093Y-130356249D01*
X100964488Y-130422752D01*
X100964488Y-130499544D01*
X100926092Y-130566049D01*
X100859587Y-130604445D01*
X100821191Y-130609500D01*
X99838809Y-130609500D01*
X99764633Y-130589625D01*
X99710332Y-130535324D01*
X99690457Y-130461148D01*
X99710332Y-130386972D01*
X99733904Y-130356251D01*
X99878462Y-130211694D01*
X99993776Y-130039114D01*
X100073207Y-129847353D01*
X100113700Y-129643780D01*
X100113700Y-129436220D01*
X100073207Y-129232647D01*
X99993776Y-129040886D01*
X99878462Y-128868306D01*
X99731694Y-128721538D01*
X99731690Y-128721535D01*
X99731689Y-128721534D01*
X99559113Y-128606223D01*
X99559110Y-128606222D01*
X99367354Y-128526793D01*
X99326638Y-128518694D01*
X99163780Y-128486300D01*
X98956220Y-128486300D01*
X98820504Y-128513295D01*
X98752645Y-128526793D01*
X98560889Y-128606222D01*
X98560886Y-128606223D01*
X98388310Y-128721534D01*
X98241534Y-128868310D01*
X98126223Y-129040886D01*
X98126222Y-129040889D01*
X98046793Y-129232645D01*
X98046793Y-129232647D01*
X98006300Y-129436220D01*
X98006300Y-129643780D01*
X98040044Y-129813424D01*
X98046793Y-129847354D01*
X98126222Y-130039110D01*
X98126223Y-130039113D01*
X98241534Y-130211689D01*
X98241535Y-130211690D01*
X98241538Y-130211694D01*
X98386093Y-130356249D01*
X98424488Y-130422752D01*
X98424488Y-130499544D01*
X98386092Y-130566049D01*
X98319587Y-130604445D01*
X98281191Y-130609500D01*
X97298809Y-130609500D01*
X97224633Y-130589625D01*
X97170332Y-130535324D01*
X97150457Y-130461148D01*
X97170332Y-130386972D01*
X97193904Y-130356251D01*
X97338462Y-130211694D01*
X97453776Y-130039114D01*
X97533207Y-129847353D01*
X97573700Y-129643780D01*
X97573700Y-129436220D01*
X97533207Y-129232647D01*
X97453776Y-129040886D01*
X97338462Y-128868306D01*
X97191694Y-128721538D01*
X97191690Y-128721535D01*
X97191689Y-128721534D01*
X97019113Y-128606223D01*
X97019110Y-128606222D01*
X96827354Y-128526793D01*
X96786638Y-128518694D01*
X96623780Y-128486300D01*
X96416220Y-128486300D01*
X96280504Y-128513295D01*
X96212645Y-128526793D01*
X96020889Y-128606222D01*
X96020886Y-128606223D01*
X95848310Y-128721534D01*
X95701534Y-128868310D01*
X95586223Y-129040886D01*
X95586222Y-129040889D01*
X95506793Y-129232645D01*
X95506793Y-129232647D01*
X95466300Y-129436220D01*
X95466300Y-129643780D01*
X95500044Y-129813424D01*
X95506793Y-129847354D01*
X95586222Y-130039110D01*
X95586223Y-130039113D01*
X95701534Y-130211689D01*
X95701535Y-130211690D01*
X95701538Y-130211694D01*
X95846093Y-130356249D01*
X95884488Y-130422752D01*
X95884488Y-130499544D01*
X95846092Y-130566049D01*
X95779587Y-130604445D01*
X95741191Y-130609500D01*
X94758809Y-130609500D01*
X94684633Y-130589625D01*
X94630332Y-130535324D01*
X94610457Y-130461148D01*
X94630332Y-130386972D01*
X94653904Y-130356251D01*
X94798462Y-130211694D01*
X94913776Y-130039114D01*
X94993207Y-129847353D01*
X95033700Y-129643780D01*
X95033700Y-129436220D01*
X94993207Y-129232647D01*
X94913776Y-129040886D01*
X94798462Y-128868306D01*
X94651694Y-128721538D01*
X94651690Y-128721535D01*
X94651689Y-128721534D01*
X94479113Y-128606223D01*
X94479110Y-128606222D01*
X94287354Y-128526793D01*
X94246638Y-128518694D01*
X94083780Y-128486300D01*
X93876220Y-128486300D01*
X93740504Y-128513295D01*
X93672645Y-128526793D01*
X93480889Y-128606222D01*
X93480886Y-128606223D01*
X93308310Y-128721534D01*
X93161534Y-128868310D01*
X93046223Y-129040886D01*
X93046222Y-129040889D01*
X92966793Y-129232645D01*
X92966793Y-129232647D01*
X92926300Y-129436220D01*
X92926300Y-129643780D01*
X92960044Y-129813424D01*
X92966793Y-129847354D01*
X93046222Y-130039110D01*
X93046223Y-130039113D01*
X93161534Y-130211689D01*
X93161535Y-130211690D01*
X93161538Y-130211694D01*
X93306093Y-130356249D01*
X93344488Y-130422752D01*
X93344488Y-130499544D01*
X93306092Y-130566049D01*
X93239587Y-130604445D01*
X93201191Y-130609500D01*
X92218809Y-130609500D01*
X92144633Y-130589625D01*
X92090332Y-130535324D01*
X92070457Y-130461148D01*
X92090332Y-130386972D01*
X92113904Y-130356251D01*
X92258462Y-130211694D01*
X92373776Y-130039114D01*
X92453207Y-129847353D01*
X92493700Y-129643780D01*
X92493700Y-129436220D01*
X92453207Y-129232647D01*
X92373776Y-129040886D01*
X92258462Y-128868306D01*
X92111694Y-128721538D01*
X92111690Y-128721535D01*
X92111689Y-128721534D01*
X91939113Y-128606223D01*
X91939110Y-128606222D01*
X91747354Y-128526793D01*
X91706638Y-128518694D01*
X91543780Y-128486300D01*
X91336220Y-128486300D01*
X91200504Y-128513295D01*
X91132645Y-128526793D01*
X90940889Y-128606222D01*
X90940886Y-128606223D01*
X90768310Y-128721534D01*
X90621534Y-128868310D01*
X90506223Y-129040886D01*
X90506222Y-129040889D01*
X90426793Y-129232645D01*
X90426793Y-129232647D01*
X90386300Y-129436220D01*
X90386300Y-129643780D01*
X90420044Y-129813424D01*
X90426793Y-129847354D01*
X90506222Y-130039110D01*
X90506223Y-130039113D01*
X90621534Y-130211689D01*
X90621535Y-130211690D01*
X90621538Y-130211694D01*
X90766093Y-130356249D01*
X90804488Y-130422752D01*
X90804488Y-130499544D01*
X90766092Y-130566049D01*
X90699587Y-130604445D01*
X90661191Y-130609500D01*
X89678809Y-130609500D01*
X89604633Y-130589625D01*
X89550332Y-130535324D01*
X89530457Y-130461148D01*
X89550332Y-130386972D01*
X89573904Y-130356251D01*
X89718462Y-130211694D01*
X89833776Y-130039114D01*
X89913207Y-129847353D01*
X89953700Y-129643780D01*
X89953700Y-129436220D01*
X89913207Y-129232647D01*
X89833776Y-129040886D01*
X89718462Y-128868306D01*
X89571694Y-128721538D01*
X89571690Y-128721535D01*
X89571689Y-128721534D01*
X89399113Y-128606223D01*
X89399110Y-128606222D01*
X89207354Y-128526793D01*
X89166638Y-128518694D01*
X89003780Y-128486300D01*
X88796220Y-128486300D01*
X88660504Y-128513295D01*
X88592645Y-128526793D01*
X88400889Y-128606222D01*
X88400886Y-128606223D01*
X88228310Y-128721534D01*
X88081534Y-128868310D01*
X87966223Y-129040886D01*
X87966222Y-129040889D01*
X87886793Y-129232645D01*
X87886793Y-129232647D01*
X87846300Y-129436220D01*
X87846300Y-129643780D01*
X87880044Y-129813424D01*
X87886793Y-129847354D01*
X87966222Y-130039110D01*
X87966223Y-130039113D01*
X88081534Y-130211689D01*
X88081535Y-130211690D01*
X88081538Y-130211694D01*
X88226093Y-130356249D01*
X88264488Y-130422752D01*
X88264488Y-130499544D01*
X88226092Y-130566049D01*
X88159587Y-130604445D01*
X88121191Y-130609500D01*
X87138809Y-130609500D01*
X87064633Y-130589625D01*
X87010332Y-130535324D01*
X86990457Y-130461148D01*
X87010332Y-130386972D01*
X87033904Y-130356251D01*
X87178462Y-130211694D01*
X87293776Y-130039114D01*
X87373207Y-129847353D01*
X87413700Y-129643780D01*
X87413700Y-129436220D01*
X87373207Y-129232647D01*
X87293776Y-129040886D01*
X87178462Y-128868306D01*
X87031694Y-128721538D01*
X87031690Y-128721535D01*
X87031689Y-128721534D01*
X86859113Y-128606223D01*
X86859110Y-128606222D01*
X86667354Y-128526793D01*
X86626638Y-128518694D01*
X86463780Y-128486300D01*
X86256220Y-128486300D01*
X86120504Y-128513295D01*
X86052645Y-128526793D01*
X85860889Y-128606222D01*
X85860886Y-128606223D01*
X85688310Y-128721534D01*
X85541534Y-128868310D01*
X85426223Y-129040886D01*
X85426222Y-129040889D01*
X85346793Y-129232645D01*
X85346793Y-129232647D01*
X85306300Y-129436220D01*
X85306300Y-129643780D01*
X85340044Y-129813424D01*
X85346793Y-129847354D01*
X85426222Y-130039110D01*
X85426223Y-130039113D01*
X85541534Y-130211689D01*
X85541535Y-130211690D01*
X85541538Y-130211694D01*
X85686093Y-130356249D01*
X85724488Y-130422752D01*
X85724488Y-130499544D01*
X85686092Y-130566049D01*
X85619587Y-130604445D01*
X85581191Y-130609500D01*
X84598809Y-130609500D01*
X84524633Y-130589625D01*
X84470332Y-130535324D01*
X84450457Y-130461148D01*
X84470332Y-130386972D01*
X84493904Y-130356251D01*
X84638462Y-130211694D01*
X84753776Y-130039114D01*
X84833207Y-129847353D01*
X84873700Y-129643780D01*
X84873700Y-129436220D01*
X84833207Y-129232647D01*
X84753776Y-129040886D01*
X84638462Y-128868306D01*
X84491694Y-128721538D01*
X84491690Y-128721535D01*
X84491689Y-128721534D01*
X84319113Y-128606223D01*
X84319110Y-128606222D01*
X84127354Y-128526793D01*
X84086638Y-128518694D01*
X83923780Y-128486300D01*
X83716220Y-128486300D01*
X83580504Y-128513295D01*
X83512645Y-128526793D01*
X83320889Y-128606222D01*
X83320886Y-128606223D01*
X83148310Y-128721534D01*
X83001534Y-128868310D01*
X82886223Y-129040886D01*
X82886222Y-129040889D01*
X82806793Y-129232645D01*
X82806793Y-129232647D01*
X82766300Y-129436220D01*
X82766300Y-129643780D01*
X82800044Y-129813424D01*
X82806793Y-129847354D01*
X82886222Y-130039110D01*
X82886223Y-130039113D01*
X83001534Y-130211689D01*
X83001535Y-130211690D01*
X83001538Y-130211694D01*
X83146093Y-130356249D01*
X83184488Y-130422752D01*
X83184488Y-130499544D01*
X83146092Y-130566049D01*
X83079587Y-130604445D01*
X83041191Y-130609500D01*
X82058809Y-130609500D01*
X81984633Y-130589625D01*
X81930332Y-130535324D01*
X81910457Y-130461148D01*
X81930332Y-130386972D01*
X81953904Y-130356251D01*
X82098462Y-130211694D01*
X82213776Y-130039114D01*
X82293207Y-129847353D01*
X82333700Y-129643780D01*
X82333700Y-129436220D01*
X82293207Y-129232647D01*
X82213776Y-129040886D01*
X82098462Y-128868306D01*
X81951694Y-128721538D01*
X81951690Y-128721535D01*
X81951689Y-128721534D01*
X81779113Y-128606223D01*
X81779110Y-128606222D01*
X81587354Y-128526793D01*
X81546638Y-128518694D01*
X81383780Y-128486300D01*
X81176220Y-128486300D01*
X81040504Y-128513295D01*
X80972645Y-128526793D01*
X80780889Y-128606222D01*
X80780886Y-128606223D01*
X80608310Y-128721534D01*
X80461534Y-128868310D01*
X80346223Y-129040886D01*
X80346222Y-129040889D01*
X80266793Y-129232645D01*
X80266793Y-129232647D01*
X80226300Y-129436220D01*
X80226300Y-129643780D01*
X80260044Y-129813424D01*
X80266793Y-129847354D01*
X80346222Y-130039110D01*
X80346223Y-130039113D01*
X80461534Y-130211689D01*
X80461535Y-130211690D01*
X80461538Y-130211694D01*
X80606093Y-130356249D01*
X80644488Y-130422752D01*
X80644488Y-130499544D01*
X80606092Y-130566049D01*
X80539587Y-130604445D01*
X80501191Y-130609500D01*
X79518809Y-130609500D01*
X79444633Y-130589625D01*
X79390332Y-130535324D01*
X79370457Y-130461148D01*
X79390332Y-130386972D01*
X79413904Y-130356251D01*
X79558462Y-130211694D01*
X79673776Y-130039114D01*
X79753207Y-129847353D01*
X79793700Y-129643780D01*
X79793700Y-129436220D01*
X79753207Y-129232647D01*
X79673776Y-129040886D01*
X79558462Y-128868306D01*
X79411694Y-128721538D01*
X79411690Y-128721535D01*
X79411689Y-128721534D01*
X79239113Y-128606223D01*
X79239110Y-128606222D01*
X79047354Y-128526793D01*
X79006638Y-128518694D01*
X78843780Y-128486300D01*
X78636220Y-128486300D01*
X78500504Y-128513295D01*
X78432645Y-128526793D01*
X78240889Y-128606222D01*
X78240886Y-128606223D01*
X78068310Y-128721534D01*
X77921534Y-128868310D01*
X77806223Y-129040886D01*
X77806222Y-129040889D01*
X77726793Y-129232645D01*
X77726793Y-129232647D01*
X77686300Y-129436220D01*
X77686300Y-129643780D01*
X77720044Y-129813424D01*
X77726793Y-129847354D01*
X77806222Y-130039110D01*
X77806223Y-130039113D01*
X77921534Y-130211689D01*
X77921535Y-130211690D01*
X77921538Y-130211694D01*
X78066093Y-130356249D01*
X78104488Y-130422752D01*
X78104488Y-130499544D01*
X78066092Y-130566049D01*
X77999587Y-130604445D01*
X77961191Y-130609500D01*
X76978809Y-130609500D01*
X76904633Y-130589625D01*
X76850332Y-130535324D01*
X76830457Y-130461148D01*
X76850332Y-130386972D01*
X76873904Y-130356251D01*
X77018462Y-130211694D01*
X77133776Y-130039114D01*
X77213207Y-129847353D01*
X77253700Y-129643780D01*
X77253700Y-129436220D01*
X77213207Y-129232647D01*
X77133776Y-129040886D01*
X77018462Y-128868306D01*
X76871694Y-128721538D01*
X76871690Y-128721535D01*
X76871689Y-128721534D01*
X76699113Y-128606223D01*
X76699110Y-128606222D01*
X76507354Y-128526793D01*
X76466638Y-128518694D01*
X76303780Y-128486300D01*
X76096220Y-128486300D01*
X75960504Y-128513295D01*
X75892645Y-128526793D01*
X75700889Y-128606222D01*
X75700886Y-128606223D01*
X75528310Y-128721534D01*
X75381534Y-128868310D01*
X75266223Y-129040886D01*
X75266222Y-129040889D01*
X75186793Y-129232645D01*
X75186793Y-129232647D01*
X75146300Y-129436220D01*
X75146300Y-129643780D01*
X75180044Y-129813424D01*
X75186793Y-129847354D01*
X75266222Y-130039110D01*
X75266223Y-130039113D01*
X75381534Y-130211689D01*
X75381535Y-130211690D01*
X75381538Y-130211694D01*
X75526093Y-130356249D01*
X75564488Y-130422752D01*
X75564488Y-130499544D01*
X75526092Y-130566049D01*
X75459587Y-130604445D01*
X75421191Y-130609500D01*
X74438809Y-130609500D01*
X74364633Y-130589625D01*
X74310332Y-130535324D01*
X74290457Y-130461148D01*
X74310332Y-130386972D01*
X74333904Y-130356251D01*
X74478462Y-130211694D01*
X74593776Y-130039114D01*
X74673207Y-129847353D01*
X74713700Y-129643780D01*
X74713700Y-129436220D01*
X74673207Y-129232647D01*
X74593776Y-129040886D01*
X74478462Y-128868306D01*
X74331694Y-128721538D01*
X74331690Y-128721535D01*
X74331689Y-128721534D01*
X74159113Y-128606223D01*
X74159110Y-128606222D01*
X73967354Y-128526793D01*
X73926638Y-128518694D01*
X73763780Y-128486300D01*
X73556220Y-128486300D01*
X73420504Y-128513295D01*
X73352645Y-128526793D01*
X73160889Y-128606222D01*
X73160886Y-128606223D01*
X72988310Y-128721534D01*
X72841534Y-128868310D01*
X72726223Y-129040886D01*
X72726222Y-129040889D01*
X72646793Y-129232645D01*
X72646793Y-129232647D01*
X72606300Y-129436220D01*
X72606300Y-129643780D01*
X72640044Y-129813424D01*
X72646793Y-129847354D01*
X72726222Y-130039110D01*
X72726223Y-130039113D01*
X72841534Y-130211689D01*
X72841535Y-130211690D01*
X72841538Y-130211694D01*
X72986093Y-130356249D01*
X73024488Y-130422752D01*
X73024488Y-130499544D01*
X72986092Y-130566049D01*
X72919587Y-130604445D01*
X72881191Y-130609500D01*
X71898809Y-130609500D01*
X71824633Y-130589625D01*
X71770332Y-130535324D01*
X71750457Y-130461148D01*
X71770332Y-130386972D01*
X71793904Y-130356251D01*
X71938462Y-130211694D01*
X72053776Y-130039114D01*
X72133207Y-129847353D01*
X72173700Y-129643780D01*
X72173700Y-129436220D01*
X72133207Y-129232647D01*
X72053776Y-129040886D01*
X71938462Y-128868306D01*
X71791694Y-128721538D01*
X71791690Y-128721535D01*
X71791689Y-128721534D01*
X71619113Y-128606223D01*
X71619110Y-128606222D01*
X71427354Y-128526793D01*
X71386638Y-128518694D01*
X71223780Y-128486300D01*
X71016220Y-128486300D01*
X70880504Y-128513295D01*
X70812645Y-128526793D01*
X70620889Y-128606222D01*
X70620886Y-128606223D01*
X70448310Y-128721534D01*
X70301534Y-128868310D01*
X70186223Y-129040886D01*
X70186222Y-129040889D01*
X70106793Y-129232645D01*
X70106793Y-129232647D01*
X70066300Y-129436220D01*
X70066300Y-129643780D01*
X70100044Y-129813424D01*
X70106793Y-129847354D01*
X70186222Y-130039110D01*
X70186223Y-130039113D01*
X70301534Y-130211689D01*
X70301535Y-130211690D01*
X70301538Y-130211694D01*
X70446093Y-130356249D01*
X70484488Y-130422752D01*
X70484488Y-130499544D01*
X70446092Y-130566049D01*
X70379587Y-130604445D01*
X70341191Y-130609500D01*
X69358809Y-130609500D01*
X69284633Y-130589625D01*
X69230332Y-130535324D01*
X69210457Y-130461148D01*
X69230332Y-130386972D01*
X69253904Y-130356251D01*
X69398462Y-130211694D01*
X69513776Y-130039114D01*
X69593207Y-129847353D01*
X69633700Y-129643780D01*
X69633700Y-129436220D01*
X69593207Y-129232647D01*
X69513776Y-129040886D01*
X69398462Y-128868306D01*
X69251694Y-128721538D01*
X69251690Y-128721535D01*
X69251689Y-128721534D01*
X69079113Y-128606223D01*
X69079110Y-128606222D01*
X68887354Y-128526793D01*
X68846638Y-128518694D01*
X68683780Y-128486300D01*
X68476220Y-128486300D01*
X68340504Y-128513295D01*
X68272645Y-128526793D01*
X68080889Y-128606222D01*
X68080886Y-128606223D01*
X67908310Y-128721534D01*
X67761534Y-128868310D01*
X67646223Y-129040886D01*
X67646222Y-129040889D01*
X67566793Y-129232645D01*
X67566793Y-129232647D01*
X67526300Y-129436220D01*
X67526300Y-129643780D01*
X67560044Y-129813424D01*
X67566793Y-129847354D01*
X67646222Y-130039110D01*
X67646223Y-130039113D01*
X67761534Y-130211689D01*
X67761535Y-130211690D01*
X67761538Y-130211694D01*
X67906093Y-130356249D01*
X67944488Y-130422752D01*
X67944488Y-130499544D01*
X67906092Y-130566049D01*
X67839587Y-130604445D01*
X67801191Y-130609500D01*
X66818809Y-130609500D01*
X66744633Y-130589625D01*
X66690332Y-130535324D01*
X66670457Y-130461148D01*
X66690332Y-130386972D01*
X66713904Y-130356251D01*
X66858462Y-130211694D01*
X66973776Y-130039114D01*
X67053207Y-129847353D01*
X67093700Y-129643780D01*
X67093700Y-129436220D01*
X67053207Y-129232647D01*
X66973776Y-129040886D01*
X66858462Y-128868306D01*
X66711694Y-128721538D01*
X66711690Y-128721535D01*
X66711689Y-128721534D01*
X66539113Y-128606223D01*
X66539110Y-128606222D01*
X66347354Y-128526793D01*
X66306638Y-128518694D01*
X66143780Y-128486300D01*
X65936220Y-128486300D01*
X65800504Y-128513295D01*
X65732645Y-128526793D01*
X65540889Y-128606222D01*
X65540886Y-128606223D01*
X65368310Y-128721534D01*
X65221534Y-128868310D01*
X65106223Y-129040886D01*
X65106222Y-129040889D01*
X65026793Y-129232645D01*
X65026793Y-129232647D01*
X64986300Y-129436220D01*
X64986300Y-129643780D01*
X65020044Y-129813424D01*
X65026793Y-129847354D01*
X65106222Y-130039110D01*
X65106223Y-130039113D01*
X65221534Y-130211689D01*
X65221535Y-130211690D01*
X65221538Y-130211694D01*
X65366093Y-130356249D01*
X65404488Y-130422752D01*
X65404488Y-130499544D01*
X65366092Y-130566049D01*
X65299587Y-130604445D01*
X65261191Y-130609500D01*
X64278809Y-130609500D01*
X64204633Y-130589625D01*
X64150332Y-130535324D01*
X64130457Y-130461148D01*
X64150332Y-130386972D01*
X64173904Y-130356251D01*
X64318462Y-130211694D01*
X64433776Y-130039114D01*
X64513207Y-129847353D01*
X64553700Y-129643780D01*
X64553700Y-129436220D01*
X64513207Y-129232647D01*
X64433776Y-129040886D01*
X64318462Y-128868306D01*
X64171694Y-128721538D01*
X64171690Y-128721535D01*
X64171689Y-128721534D01*
X63999113Y-128606223D01*
X63999110Y-128606222D01*
X63807354Y-128526793D01*
X63766638Y-128518694D01*
X63603780Y-128486300D01*
X63396220Y-128486300D01*
X63260504Y-128513295D01*
X63192645Y-128526793D01*
X63000889Y-128606222D01*
X63000886Y-128606223D01*
X62828310Y-128721534D01*
X62681534Y-128868310D01*
X62566223Y-129040886D01*
X62566222Y-129040889D01*
X62486793Y-129232645D01*
X62486793Y-129232647D01*
X62446300Y-129436220D01*
X62446300Y-129643780D01*
X62480044Y-129813424D01*
X62486793Y-129847354D01*
X62566222Y-130039110D01*
X62566223Y-130039113D01*
X62681534Y-130211689D01*
X62681535Y-130211690D01*
X62681538Y-130211694D01*
X62826093Y-130356249D01*
X62864488Y-130422752D01*
X62864488Y-130499544D01*
X62826092Y-130566049D01*
X62759587Y-130604445D01*
X62721191Y-130609500D01*
X61738809Y-130609500D01*
X61664633Y-130589625D01*
X61610332Y-130535324D01*
X61590457Y-130461148D01*
X61610332Y-130386972D01*
X61633904Y-130356251D01*
X61778462Y-130211694D01*
X61893776Y-130039114D01*
X61973207Y-129847353D01*
X62013700Y-129643780D01*
X62013700Y-129436220D01*
X61973207Y-129232647D01*
X61893776Y-129040886D01*
X61778462Y-128868306D01*
X61631694Y-128721538D01*
X61631690Y-128721535D01*
X61631689Y-128721534D01*
X61459113Y-128606223D01*
X61459110Y-128606222D01*
X61267354Y-128526793D01*
X61226638Y-128518694D01*
X61063780Y-128486300D01*
X60856220Y-128486300D01*
X60720504Y-128513295D01*
X60652645Y-128526793D01*
X60460889Y-128606222D01*
X60460886Y-128606223D01*
X60288310Y-128721534D01*
X60141534Y-128868310D01*
X60026223Y-129040886D01*
X60026222Y-129040889D01*
X59946793Y-129232645D01*
X59946793Y-129232647D01*
X59906300Y-129436220D01*
X59906300Y-129643780D01*
X59940044Y-129813424D01*
X59946793Y-129847354D01*
X60026222Y-130039110D01*
X60026223Y-130039113D01*
X60141534Y-130211689D01*
X60141535Y-130211690D01*
X60141538Y-130211694D01*
X60286093Y-130356249D01*
X60324488Y-130422752D01*
X60324488Y-130499544D01*
X60286092Y-130566049D01*
X60219587Y-130604445D01*
X60181191Y-130609500D01*
X59198809Y-130609500D01*
X59124633Y-130589625D01*
X59070332Y-130535324D01*
X59050457Y-130461148D01*
X59070332Y-130386972D01*
X59093904Y-130356251D01*
X59238462Y-130211694D01*
X59353776Y-130039114D01*
X59433207Y-129847353D01*
X59473700Y-129643780D01*
X59473700Y-129436220D01*
X59433207Y-129232647D01*
X59353776Y-129040886D01*
X59238462Y-128868306D01*
X59091694Y-128721538D01*
X59091690Y-128721535D01*
X59091689Y-128721534D01*
X58919113Y-128606223D01*
X58919110Y-128606222D01*
X58727354Y-128526793D01*
X58686638Y-128518694D01*
X58523780Y-128486300D01*
X58316220Y-128486300D01*
X58180504Y-128513295D01*
X58112645Y-128526793D01*
X57920889Y-128606222D01*
X57920886Y-128606223D01*
X57748310Y-128721534D01*
X57601534Y-128868310D01*
X57486223Y-129040886D01*
X57486222Y-129040889D01*
X57406793Y-129232645D01*
X57406793Y-129232647D01*
X57366300Y-129436220D01*
X57366300Y-129643780D01*
X57400044Y-129813424D01*
X57406793Y-129847354D01*
X57486222Y-130039110D01*
X57486223Y-130039113D01*
X57601534Y-130211689D01*
X57601535Y-130211690D01*
X57601538Y-130211694D01*
X57746093Y-130356249D01*
X57784488Y-130422752D01*
X57784488Y-130499544D01*
X57746092Y-130566049D01*
X57679587Y-130604445D01*
X57641191Y-130609500D01*
X56658809Y-130609500D01*
X56584633Y-130589625D01*
X56530332Y-130535324D01*
X56510457Y-130461148D01*
X56530332Y-130386972D01*
X56553904Y-130356251D01*
X56698462Y-130211694D01*
X56813776Y-130039114D01*
X56893207Y-129847353D01*
X56933700Y-129643780D01*
X56933700Y-129436220D01*
X56893207Y-129232647D01*
X56813776Y-129040886D01*
X56698462Y-128868306D01*
X56551694Y-128721538D01*
X56551690Y-128721535D01*
X56551689Y-128721534D01*
X56379113Y-128606223D01*
X56379110Y-128606222D01*
X56187354Y-128526793D01*
X56146638Y-128518694D01*
X55983780Y-128486300D01*
X55776220Y-128486300D01*
X55640504Y-128513295D01*
X55572645Y-128526793D01*
X55380889Y-128606222D01*
X55380886Y-128606223D01*
X55208310Y-128721534D01*
X55061534Y-128868310D01*
X54946223Y-129040886D01*
X54946222Y-129040889D01*
X54866793Y-129232645D01*
X54866793Y-129232647D01*
X54826300Y-129436220D01*
X54826300Y-129643780D01*
X54860044Y-129813424D01*
X54866793Y-129847354D01*
X54946222Y-130039110D01*
X54946223Y-130039113D01*
X55061534Y-130211689D01*
X55061535Y-130211690D01*
X55061538Y-130211694D01*
X55206093Y-130356249D01*
X55244488Y-130422752D01*
X55244488Y-130499544D01*
X55206092Y-130566049D01*
X55139587Y-130604445D01*
X55101191Y-130609500D01*
X54118809Y-130609500D01*
X54044633Y-130589625D01*
X53990332Y-130535324D01*
X53970457Y-130461148D01*
X53990332Y-130386972D01*
X54013904Y-130356251D01*
X54158462Y-130211694D01*
X54273776Y-130039114D01*
X54353207Y-129847353D01*
X54393700Y-129643780D01*
X54393700Y-129436220D01*
X54353207Y-129232647D01*
X54273776Y-129040886D01*
X54158462Y-128868306D01*
X54011694Y-128721538D01*
X54011690Y-128721535D01*
X54011689Y-128721534D01*
X53839113Y-128606223D01*
X53839110Y-128606222D01*
X53647354Y-128526793D01*
X53606638Y-128518694D01*
X53443780Y-128486300D01*
X53236220Y-128486300D01*
X53100504Y-128513295D01*
X53032645Y-128526793D01*
X52840889Y-128606222D01*
X52840886Y-128606223D01*
X52668310Y-128721534D01*
X52521534Y-128868310D01*
X52406223Y-129040886D01*
X52406222Y-129040889D01*
X52326793Y-129232645D01*
X52326793Y-129232647D01*
X52286300Y-129436220D01*
X52286300Y-129643780D01*
X52320044Y-129813424D01*
X52326793Y-129847354D01*
X52406222Y-130039110D01*
X52406223Y-130039113D01*
X52521534Y-130211689D01*
X52521535Y-130211690D01*
X52521538Y-130211694D01*
X52666093Y-130356249D01*
X52704488Y-130422752D01*
X52704488Y-130499544D01*
X52666092Y-130566049D01*
X52599587Y-130604445D01*
X52561191Y-130609500D01*
X51578809Y-130609500D01*
X51504633Y-130589625D01*
X51450332Y-130535324D01*
X51430457Y-130461148D01*
X51450332Y-130386972D01*
X51473904Y-130356251D01*
X51618462Y-130211694D01*
X51733776Y-130039114D01*
X51813207Y-129847353D01*
X51853700Y-129643780D01*
X51853700Y-129436220D01*
X51813207Y-129232647D01*
X51733776Y-129040886D01*
X51618462Y-128868306D01*
X51471694Y-128721538D01*
X51471690Y-128721535D01*
X51471689Y-128721534D01*
X51299113Y-128606223D01*
X51299110Y-128606222D01*
X51107354Y-128526793D01*
X51066638Y-128518694D01*
X50903780Y-128486300D01*
X50696220Y-128486300D01*
X50560504Y-128513295D01*
X50492645Y-128526793D01*
X50300889Y-128606222D01*
X50300886Y-128606223D01*
X50128310Y-128721534D01*
X49981534Y-128868310D01*
X49866223Y-129040886D01*
X49866222Y-129040889D01*
X49786793Y-129232645D01*
X49786793Y-129232647D01*
X49746300Y-129436220D01*
X49746300Y-129643780D01*
X49780044Y-129813424D01*
X49786793Y-129847354D01*
X49866222Y-130039110D01*
X49866223Y-130039113D01*
X49981534Y-130211689D01*
X49981535Y-130211690D01*
X49981538Y-130211694D01*
X50126093Y-130356249D01*
X50164488Y-130422752D01*
X50164488Y-130499544D01*
X50126092Y-130566049D01*
X50059587Y-130604445D01*
X50021191Y-130609500D01*
X49038809Y-130609500D01*
X48964633Y-130589625D01*
X48910332Y-130535324D01*
X48890457Y-130461148D01*
X48910332Y-130386972D01*
X48933904Y-130356251D01*
X49078462Y-130211694D01*
X49193776Y-130039114D01*
X49273207Y-129847353D01*
X49313700Y-129643780D01*
X49313700Y-129436220D01*
X49273207Y-129232647D01*
X49193776Y-129040886D01*
X49078462Y-128868306D01*
X48931694Y-128721538D01*
X48931690Y-128721535D01*
X48931689Y-128721534D01*
X48759113Y-128606223D01*
X48759110Y-128606222D01*
X48567354Y-128526793D01*
X48526638Y-128518694D01*
X48363780Y-128486300D01*
X48156220Y-128486300D01*
X48020504Y-128513295D01*
X47952645Y-128526793D01*
X47760889Y-128606222D01*
X47760886Y-128606223D01*
X47588310Y-128721534D01*
X47441534Y-128868310D01*
X47326223Y-129040886D01*
X47326222Y-129040889D01*
X47246793Y-129232645D01*
X47246793Y-129232647D01*
X47206300Y-129436220D01*
X47206300Y-129643780D01*
X47240044Y-129813424D01*
X47246793Y-129847354D01*
X47326222Y-130039110D01*
X47326223Y-130039113D01*
X47441534Y-130211689D01*
X47441535Y-130211690D01*
X47441538Y-130211694D01*
X47586093Y-130356249D01*
X47624488Y-130422752D01*
X47624488Y-130499544D01*
X47586092Y-130566049D01*
X47519587Y-130604445D01*
X47481191Y-130609500D01*
X46498809Y-130609500D01*
X46424633Y-130589625D01*
X46370332Y-130535324D01*
X46350457Y-130461148D01*
X46370332Y-130386972D01*
X46393904Y-130356251D01*
X46538462Y-130211694D01*
X46653776Y-130039114D01*
X46733207Y-129847353D01*
X46773700Y-129643780D01*
X46773700Y-129436220D01*
X46733207Y-129232647D01*
X46653776Y-129040886D01*
X46538462Y-128868306D01*
X46391694Y-128721538D01*
X46391690Y-128721535D01*
X46391689Y-128721534D01*
X46219113Y-128606223D01*
X46219110Y-128606222D01*
X46027354Y-128526793D01*
X45986638Y-128518694D01*
X45823780Y-128486300D01*
X45616220Y-128486300D01*
X45480504Y-128513295D01*
X45412645Y-128526793D01*
X45220889Y-128606222D01*
X45220886Y-128606223D01*
X45048310Y-128721534D01*
X44901534Y-128868310D01*
X44786223Y-129040886D01*
X44786222Y-129040889D01*
X44706793Y-129232645D01*
X44706793Y-129232647D01*
X44666300Y-129436220D01*
X44666300Y-129643780D01*
X44700044Y-129813424D01*
X44706793Y-129847354D01*
X44786222Y-130039110D01*
X44786223Y-130039113D01*
X44901534Y-130211689D01*
X44901535Y-130211690D01*
X44901538Y-130211694D01*
X45046093Y-130356249D01*
X45084488Y-130422752D01*
X45084488Y-130499544D01*
X45046092Y-130566049D01*
X44979587Y-130604445D01*
X44941191Y-130609500D01*
X43958809Y-130609500D01*
X43884633Y-130589625D01*
X43830332Y-130535324D01*
X43810457Y-130461148D01*
X43830332Y-130386972D01*
X43853904Y-130356251D01*
X43998462Y-130211694D01*
X44113776Y-130039114D01*
X44193207Y-129847353D01*
X44233700Y-129643780D01*
X44233700Y-129436220D01*
X44193207Y-129232647D01*
X44113776Y-129040886D01*
X43998462Y-128868306D01*
X43851694Y-128721538D01*
X43851690Y-128721535D01*
X43851689Y-128721534D01*
X43679113Y-128606223D01*
X43679110Y-128606222D01*
X43487354Y-128526793D01*
X43446638Y-128518694D01*
X43283780Y-128486300D01*
X43076220Y-128486300D01*
X42940504Y-128513295D01*
X42872645Y-128526793D01*
X42680889Y-128606222D01*
X42680886Y-128606223D01*
X42508310Y-128721534D01*
X42361534Y-128868310D01*
X42246223Y-129040886D01*
X42246222Y-129040889D01*
X42166793Y-129232645D01*
X42166793Y-129232647D01*
X42126300Y-129436220D01*
X42126300Y-129643780D01*
X42160044Y-129813424D01*
X42166793Y-129847354D01*
X42246222Y-130039110D01*
X42246223Y-130039113D01*
X42361534Y-130211689D01*
X42361535Y-130211690D01*
X42361538Y-130211694D01*
X42506093Y-130356249D01*
X42544488Y-130422752D01*
X42544488Y-130499544D01*
X42506092Y-130566049D01*
X42439587Y-130604445D01*
X42401191Y-130609500D01*
X41418809Y-130609500D01*
X41344633Y-130589625D01*
X41290332Y-130535324D01*
X41270457Y-130461148D01*
X41290332Y-130386972D01*
X41313904Y-130356251D01*
X41458462Y-130211694D01*
X41573776Y-130039114D01*
X41653207Y-129847353D01*
X41693700Y-129643780D01*
X41693700Y-129436220D01*
X41653207Y-129232647D01*
X41573776Y-129040886D01*
X41458462Y-128868306D01*
X41311694Y-128721538D01*
X41311690Y-128721535D01*
X41311689Y-128721534D01*
X41139113Y-128606223D01*
X41139110Y-128606222D01*
X40947354Y-128526793D01*
X40906638Y-128518694D01*
X40743780Y-128486300D01*
X40536220Y-128486300D01*
X40400504Y-128513295D01*
X40332645Y-128526793D01*
X40140889Y-128606222D01*
X40140886Y-128606223D01*
X39968310Y-128721534D01*
X39821534Y-128868310D01*
X39706223Y-129040886D01*
X39706222Y-129040889D01*
X39626793Y-129232645D01*
X39626793Y-129232647D01*
X39586300Y-129436220D01*
X39586300Y-129643780D01*
X39620044Y-129813424D01*
X39626793Y-129847354D01*
X39706222Y-130039110D01*
X39706223Y-130039113D01*
X39821534Y-130211689D01*
X39821535Y-130211690D01*
X39821538Y-130211694D01*
X39966093Y-130356249D01*
X40004488Y-130422752D01*
X40004488Y-130499544D01*
X39966092Y-130566049D01*
X39899587Y-130604445D01*
X39861191Y-130609500D01*
X38878809Y-130609500D01*
X38804633Y-130589625D01*
X38750332Y-130535324D01*
X38730457Y-130461148D01*
X38750332Y-130386972D01*
X38773904Y-130356251D01*
X38918462Y-130211694D01*
X39033776Y-130039114D01*
X39113207Y-129847353D01*
X39153700Y-129643780D01*
X39153700Y-129436220D01*
X39113207Y-129232647D01*
X39033776Y-129040886D01*
X38918462Y-128868306D01*
X38771694Y-128721538D01*
X38771690Y-128721535D01*
X38771689Y-128721534D01*
X38599113Y-128606223D01*
X38599110Y-128606222D01*
X38407354Y-128526793D01*
X38366638Y-128518694D01*
X38203780Y-128486300D01*
X37996220Y-128486300D01*
X37860504Y-128513295D01*
X37792645Y-128526793D01*
X37600889Y-128606222D01*
X37600886Y-128606223D01*
X37428310Y-128721534D01*
X37281534Y-128868310D01*
X37166223Y-129040886D01*
X37166222Y-129040889D01*
X37086793Y-129232645D01*
X37086793Y-129232647D01*
X37046300Y-129436220D01*
X37046300Y-129643780D01*
X37080044Y-129813424D01*
X37086793Y-129847354D01*
X37166222Y-130039110D01*
X37166223Y-130039113D01*
X37281534Y-130211689D01*
X37281535Y-130211690D01*
X37281538Y-130211694D01*
X37426093Y-130356249D01*
X37464488Y-130422752D01*
X37464488Y-130499544D01*
X37426092Y-130566049D01*
X37359587Y-130604445D01*
X37321191Y-130609500D01*
X36338809Y-130609500D01*
X36264633Y-130589625D01*
X36210332Y-130535324D01*
X36190457Y-130461148D01*
X36210332Y-130386972D01*
X36233904Y-130356251D01*
X36378462Y-130211694D01*
X36493776Y-130039114D01*
X36573207Y-129847353D01*
X36613700Y-129643780D01*
X36613700Y-129436220D01*
X36573207Y-129232647D01*
X36493776Y-129040886D01*
X36378462Y-128868306D01*
X36231694Y-128721538D01*
X36231690Y-128721535D01*
X36231689Y-128721534D01*
X36059113Y-128606223D01*
X36059110Y-128606222D01*
X35867354Y-128526793D01*
X35826638Y-128518694D01*
X35663780Y-128486300D01*
X35456220Y-128486300D01*
X35320504Y-128513295D01*
X35252645Y-128526793D01*
X35060889Y-128606222D01*
X35060886Y-128606223D01*
X34888310Y-128721534D01*
X34741534Y-128868310D01*
X34626223Y-129040886D01*
X34626222Y-129040889D01*
X34546793Y-129232645D01*
X34546793Y-129232647D01*
X34506300Y-129436220D01*
X34506300Y-129643780D01*
X34540044Y-129813424D01*
X34546793Y-129847354D01*
X34626222Y-130039110D01*
X34626223Y-130039113D01*
X34741534Y-130211689D01*
X34741535Y-130211690D01*
X34741538Y-130211694D01*
X34886093Y-130356249D01*
X34924488Y-130422752D01*
X34924488Y-130499544D01*
X34886092Y-130566049D01*
X34819587Y-130604445D01*
X34781191Y-130609500D01*
X33798809Y-130609500D01*
X33724633Y-130589625D01*
X33670332Y-130535324D01*
X33650457Y-130461148D01*
X33670332Y-130386972D01*
X33693904Y-130356251D01*
X33838462Y-130211694D01*
X33953776Y-130039114D01*
X34033207Y-129847353D01*
X34073700Y-129643780D01*
X34073700Y-129436220D01*
X34033207Y-129232647D01*
X33953776Y-129040886D01*
X33838462Y-128868306D01*
X33691694Y-128721538D01*
X33691690Y-128721535D01*
X33691689Y-128721534D01*
X33519113Y-128606223D01*
X33519110Y-128606222D01*
X33327354Y-128526793D01*
X33286638Y-128518694D01*
X33123780Y-128486300D01*
X32916220Y-128486300D01*
X32780504Y-128513295D01*
X32712645Y-128526793D01*
X32520889Y-128606222D01*
X32520886Y-128606223D01*
X32348310Y-128721534D01*
X32201534Y-128868310D01*
X32086223Y-129040886D01*
X32086222Y-129040889D01*
X32006793Y-129232645D01*
X32006793Y-129232647D01*
X31966300Y-129436220D01*
X31966300Y-129643780D01*
X32000044Y-129813424D01*
X32006793Y-129847354D01*
X32086222Y-130039110D01*
X32086223Y-130039113D01*
X32201534Y-130211689D01*
X32201535Y-130211690D01*
X32201538Y-130211694D01*
X32346093Y-130356249D01*
X32384488Y-130422752D01*
X32384488Y-130499544D01*
X32346092Y-130566049D01*
X32279587Y-130604445D01*
X32241191Y-130609500D01*
X31258809Y-130609500D01*
X31184633Y-130589625D01*
X31130332Y-130535324D01*
X31110457Y-130461148D01*
X31130332Y-130386972D01*
X31153904Y-130356251D01*
X31298462Y-130211694D01*
X31413776Y-130039114D01*
X31493207Y-129847353D01*
X31533700Y-129643780D01*
X31533700Y-129436220D01*
X31493207Y-129232647D01*
X31413776Y-129040886D01*
X31298462Y-128868306D01*
X31151694Y-128721538D01*
X31151690Y-128721535D01*
X31151689Y-128721534D01*
X30979113Y-128606223D01*
X30979110Y-128606222D01*
X30787354Y-128526793D01*
X30746638Y-128518694D01*
X30583780Y-128486300D01*
X30376220Y-128486300D01*
X30240504Y-128513295D01*
X30172645Y-128526793D01*
X29980889Y-128606222D01*
X29980886Y-128606223D01*
X29808310Y-128721534D01*
X29661534Y-128868310D01*
X29546223Y-129040886D01*
X29546222Y-129040889D01*
X29466793Y-129232645D01*
X29466793Y-129232647D01*
X29426300Y-129436220D01*
X29426300Y-129643780D01*
X29460044Y-129813424D01*
X29466793Y-129847354D01*
X29546222Y-130039110D01*
X29546223Y-130039113D01*
X29661534Y-130211689D01*
X29661535Y-130211690D01*
X29661538Y-130211694D01*
X29806093Y-130356249D01*
X29844488Y-130422752D01*
X29844488Y-130499544D01*
X29806092Y-130566049D01*
X29739587Y-130604445D01*
X29701191Y-130609500D01*
X28718809Y-130609500D01*
X28644633Y-130589625D01*
X28590332Y-130535324D01*
X28570457Y-130461148D01*
X28590332Y-130386972D01*
X28613904Y-130356251D01*
X28758462Y-130211694D01*
X28873776Y-130039114D01*
X28953207Y-129847353D01*
X28993700Y-129643780D01*
X28993700Y-129436220D01*
X28953207Y-129232647D01*
X28873776Y-129040886D01*
X28758462Y-128868306D01*
X28611694Y-128721538D01*
X28611690Y-128721535D01*
X28611689Y-128721534D01*
X28439113Y-128606223D01*
X28439110Y-128606222D01*
X28247354Y-128526793D01*
X28206638Y-128518694D01*
X28043780Y-128486300D01*
X27836220Y-128486300D01*
X27700504Y-128513295D01*
X27632645Y-128526793D01*
X27440889Y-128606222D01*
X27440886Y-128606223D01*
X27268310Y-128721534D01*
X27121534Y-128868310D01*
X27006223Y-129040886D01*
X27006222Y-129040889D01*
X26926793Y-129232645D01*
X26926793Y-129232647D01*
X26886300Y-129436220D01*
X26886300Y-129643780D01*
X26920044Y-129813424D01*
X26926793Y-129847354D01*
X27006222Y-130039110D01*
X27006223Y-130039113D01*
X27121534Y-130211689D01*
X27121535Y-130211690D01*
X27121538Y-130211694D01*
X27266093Y-130356249D01*
X27304488Y-130422752D01*
X27304488Y-130499544D01*
X27266092Y-130566049D01*
X27199587Y-130604445D01*
X27161191Y-130609500D01*
X26676472Y-130609500D01*
X26663542Y-130608935D01*
X26497215Y-130594383D01*
X26471748Y-130589893D01*
X26316746Y-130548360D01*
X26292447Y-130539516D01*
X26147011Y-130471698D01*
X26124616Y-130458768D01*
X25993172Y-130366730D01*
X25973362Y-130350108D01*
X25859891Y-130236637D01*
X25843269Y-130216827D01*
X25751231Y-130085383D01*
X25738301Y-130062988D01*
X25734669Y-130055200D01*
X25670482Y-129917549D01*
X25661639Y-129893253D01*
X25650954Y-129853376D01*
X25620105Y-129738245D01*
X25615617Y-129712799D01*
X25601063Y-129546436D01*
X25600500Y-129533528D01*
X25600500Y-126104489D01*
X26785200Y-126104489D01*
X26785200Y-126850647D01*
X26785201Y-126850648D01*
X27462381Y-126850648D01*
X27440000Y-126934174D01*
X27440000Y-127065826D01*
X27462381Y-127149352D01*
X26785202Y-127149352D01*
X26785201Y-127149353D01*
X26785201Y-127895519D01*
X26788155Y-127920991D01*
X26834182Y-128025233D01*
X26914765Y-128105816D01*
X27019009Y-128151844D01*
X27044489Y-128154799D01*
X27790648Y-128154799D01*
X27790648Y-127477618D01*
X27874174Y-127500000D01*
X28005826Y-127500000D01*
X28089352Y-127477618D01*
X28089352Y-128154798D01*
X28089353Y-128154799D01*
X28835516Y-128154799D01*
X28835519Y-128154798D01*
X28860991Y-128151844D01*
X28965233Y-128105817D01*
X29045816Y-128025234D01*
X29091844Y-127920990D01*
X29094800Y-127895510D01*
X29094800Y-127149353D01*
X29094799Y-127149352D01*
X28417619Y-127149352D01*
X28440000Y-127065826D01*
X28440000Y-126934174D01*
X28429830Y-126896220D01*
X29426300Y-126896220D01*
X29426300Y-127103780D01*
X29460044Y-127273424D01*
X29466793Y-127307354D01*
X29546222Y-127499110D01*
X29546223Y-127499113D01*
X29661534Y-127671689D01*
X29661535Y-127671690D01*
X29661538Y-127671694D01*
X29808306Y-127818462D01*
X29808309Y-127818464D01*
X29808310Y-127818465D01*
X29923617Y-127895510D01*
X29980886Y-127933776D01*
X30172647Y-128013207D01*
X30376220Y-128053700D01*
X30376224Y-128053700D01*
X30583776Y-128053700D01*
X30583780Y-128053700D01*
X30787353Y-128013207D01*
X30979114Y-127933776D01*
X31151694Y-127818462D01*
X31298462Y-127671694D01*
X31413776Y-127499114D01*
X31493207Y-127307353D01*
X31533700Y-127103780D01*
X31533700Y-126896220D01*
X31966300Y-126896220D01*
X31966300Y-127103780D01*
X32000044Y-127273424D01*
X32006793Y-127307354D01*
X32086222Y-127499110D01*
X32086223Y-127499113D01*
X32201534Y-127671689D01*
X32201535Y-127671690D01*
X32201538Y-127671694D01*
X32348306Y-127818462D01*
X32348309Y-127818464D01*
X32348310Y-127818465D01*
X32463617Y-127895510D01*
X32520886Y-127933776D01*
X32712647Y-128013207D01*
X32916220Y-128053700D01*
X32916224Y-128053700D01*
X33123776Y-128053700D01*
X33123780Y-128053700D01*
X33327353Y-128013207D01*
X33519114Y-127933776D01*
X33691694Y-127818462D01*
X33838462Y-127671694D01*
X33953776Y-127499114D01*
X34033207Y-127307353D01*
X34073700Y-127103780D01*
X34073700Y-126896220D01*
X34506300Y-126896220D01*
X34506300Y-127103780D01*
X34540044Y-127273424D01*
X34546793Y-127307354D01*
X34626222Y-127499110D01*
X34626223Y-127499113D01*
X34741534Y-127671689D01*
X34741535Y-127671690D01*
X34741538Y-127671694D01*
X34888306Y-127818462D01*
X34888309Y-127818464D01*
X34888310Y-127818465D01*
X35003617Y-127895510D01*
X35060886Y-127933776D01*
X35252647Y-128013207D01*
X35456220Y-128053700D01*
X35456224Y-128053700D01*
X35663776Y-128053700D01*
X35663780Y-128053700D01*
X35867353Y-128013207D01*
X36059114Y-127933776D01*
X36231694Y-127818462D01*
X36378462Y-127671694D01*
X36493776Y-127499114D01*
X36573207Y-127307353D01*
X36613700Y-127103780D01*
X36613700Y-126896220D01*
X37046300Y-126896220D01*
X37046300Y-127103780D01*
X37080044Y-127273424D01*
X37086793Y-127307354D01*
X37166222Y-127499110D01*
X37166223Y-127499113D01*
X37281534Y-127671689D01*
X37281535Y-127671690D01*
X37281538Y-127671694D01*
X37428306Y-127818462D01*
X37428309Y-127818464D01*
X37428310Y-127818465D01*
X37543617Y-127895510D01*
X37600886Y-127933776D01*
X37792647Y-128013207D01*
X37996220Y-128053700D01*
X37996224Y-128053700D01*
X38203776Y-128053700D01*
X38203780Y-128053700D01*
X38407353Y-128013207D01*
X38599114Y-127933776D01*
X38771694Y-127818462D01*
X38918462Y-127671694D01*
X39033776Y-127499114D01*
X39113207Y-127307353D01*
X39153700Y-127103780D01*
X39153700Y-126896220D01*
X39586300Y-126896220D01*
X39586300Y-127103780D01*
X39620044Y-127273424D01*
X39626793Y-127307354D01*
X39706222Y-127499110D01*
X39706223Y-127499113D01*
X39821534Y-127671689D01*
X39821535Y-127671690D01*
X39821538Y-127671694D01*
X39968306Y-127818462D01*
X39968309Y-127818464D01*
X39968310Y-127818465D01*
X40083617Y-127895510D01*
X40140886Y-127933776D01*
X40332647Y-128013207D01*
X40536220Y-128053700D01*
X40536224Y-128053700D01*
X40743776Y-128053700D01*
X40743780Y-128053700D01*
X40947353Y-128013207D01*
X41139114Y-127933776D01*
X41311694Y-127818462D01*
X41458462Y-127671694D01*
X41573776Y-127499114D01*
X41653207Y-127307353D01*
X41693700Y-127103780D01*
X41693700Y-126896220D01*
X42126300Y-126896220D01*
X42126300Y-127103780D01*
X42160044Y-127273424D01*
X42166793Y-127307354D01*
X42246222Y-127499110D01*
X42246223Y-127499113D01*
X42361534Y-127671689D01*
X42361535Y-127671690D01*
X42361538Y-127671694D01*
X42508306Y-127818462D01*
X42508309Y-127818464D01*
X42508310Y-127818465D01*
X42623617Y-127895510D01*
X42680886Y-127933776D01*
X42872647Y-128013207D01*
X43076220Y-128053700D01*
X43076224Y-128053700D01*
X43283776Y-128053700D01*
X43283780Y-128053700D01*
X43487353Y-128013207D01*
X43679114Y-127933776D01*
X43851694Y-127818462D01*
X43998462Y-127671694D01*
X44113776Y-127499114D01*
X44193207Y-127307353D01*
X44233700Y-127103780D01*
X44233700Y-126896220D01*
X44666300Y-126896220D01*
X44666300Y-127103780D01*
X44700044Y-127273424D01*
X44706793Y-127307354D01*
X44786222Y-127499110D01*
X44786223Y-127499113D01*
X44901534Y-127671689D01*
X44901535Y-127671690D01*
X44901538Y-127671694D01*
X45048306Y-127818462D01*
X45048309Y-127818464D01*
X45048310Y-127818465D01*
X45163617Y-127895510D01*
X45220886Y-127933776D01*
X45412647Y-128013207D01*
X45616220Y-128053700D01*
X45616224Y-128053700D01*
X45823776Y-128053700D01*
X45823780Y-128053700D01*
X46027353Y-128013207D01*
X46219114Y-127933776D01*
X46391694Y-127818462D01*
X46538462Y-127671694D01*
X46653776Y-127499114D01*
X46733207Y-127307353D01*
X46773700Y-127103780D01*
X46773700Y-126896220D01*
X47206300Y-126896220D01*
X47206300Y-127103780D01*
X47240044Y-127273424D01*
X47246793Y-127307354D01*
X47326222Y-127499110D01*
X47326223Y-127499113D01*
X47441534Y-127671689D01*
X47441535Y-127671690D01*
X47441538Y-127671694D01*
X47588306Y-127818462D01*
X47588309Y-127818464D01*
X47588310Y-127818465D01*
X47703617Y-127895510D01*
X47760886Y-127933776D01*
X47952647Y-128013207D01*
X48156220Y-128053700D01*
X48156224Y-128053700D01*
X48363776Y-128053700D01*
X48363780Y-128053700D01*
X48567353Y-128013207D01*
X48759114Y-127933776D01*
X48931694Y-127818462D01*
X49078462Y-127671694D01*
X49193776Y-127499114D01*
X49273207Y-127307353D01*
X49313700Y-127103780D01*
X49313700Y-126896220D01*
X49746300Y-126896220D01*
X49746300Y-127103780D01*
X49780044Y-127273424D01*
X49786793Y-127307354D01*
X49866222Y-127499110D01*
X49866223Y-127499113D01*
X49981534Y-127671689D01*
X49981535Y-127671690D01*
X49981538Y-127671694D01*
X50128306Y-127818462D01*
X50128309Y-127818464D01*
X50128310Y-127818465D01*
X50243617Y-127895510D01*
X50300886Y-127933776D01*
X50492647Y-128013207D01*
X50696220Y-128053700D01*
X50696224Y-128053700D01*
X50903776Y-128053700D01*
X50903780Y-128053700D01*
X51107353Y-128013207D01*
X51299114Y-127933776D01*
X51471694Y-127818462D01*
X51618462Y-127671694D01*
X51733776Y-127499114D01*
X51813207Y-127307353D01*
X51853700Y-127103780D01*
X51853700Y-126896220D01*
X52286300Y-126896220D01*
X52286300Y-127103780D01*
X52320044Y-127273424D01*
X52326793Y-127307354D01*
X52406222Y-127499110D01*
X52406223Y-127499113D01*
X52521534Y-127671689D01*
X52521535Y-127671690D01*
X52521538Y-127671694D01*
X52668306Y-127818462D01*
X52668309Y-127818464D01*
X52668310Y-127818465D01*
X52783617Y-127895510D01*
X52840886Y-127933776D01*
X53032647Y-128013207D01*
X53236220Y-128053700D01*
X53236224Y-128053700D01*
X53443776Y-128053700D01*
X53443780Y-128053700D01*
X53647353Y-128013207D01*
X53839114Y-127933776D01*
X54011694Y-127818462D01*
X54158462Y-127671694D01*
X54273776Y-127499114D01*
X54353207Y-127307353D01*
X54393700Y-127103780D01*
X54393700Y-126896220D01*
X54826300Y-126896220D01*
X54826300Y-127103780D01*
X54860044Y-127273424D01*
X54866793Y-127307354D01*
X54946222Y-127499110D01*
X54946223Y-127499113D01*
X55061534Y-127671689D01*
X55061535Y-127671690D01*
X55061538Y-127671694D01*
X55208306Y-127818462D01*
X55208309Y-127818464D01*
X55208310Y-127818465D01*
X55323617Y-127895510D01*
X55380886Y-127933776D01*
X55572647Y-128013207D01*
X55776220Y-128053700D01*
X55776224Y-128053700D01*
X55983776Y-128053700D01*
X55983780Y-128053700D01*
X56187353Y-128013207D01*
X56379114Y-127933776D01*
X56551694Y-127818462D01*
X56698462Y-127671694D01*
X56813776Y-127499114D01*
X56893207Y-127307353D01*
X56933700Y-127103780D01*
X56933700Y-126896220D01*
X57366300Y-126896220D01*
X57366300Y-127103780D01*
X57400044Y-127273424D01*
X57406793Y-127307354D01*
X57486222Y-127499110D01*
X57486223Y-127499113D01*
X57601534Y-127671689D01*
X57601535Y-127671690D01*
X57601538Y-127671694D01*
X57748306Y-127818462D01*
X57748309Y-127818464D01*
X57748310Y-127818465D01*
X57863617Y-127895510D01*
X57920886Y-127933776D01*
X58112647Y-128013207D01*
X58316220Y-128053700D01*
X58316224Y-128053700D01*
X58523776Y-128053700D01*
X58523780Y-128053700D01*
X58727353Y-128013207D01*
X58919114Y-127933776D01*
X59091694Y-127818462D01*
X59238462Y-127671694D01*
X59353776Y-127499114D01*
X59433207Y-127307353D01*
X59473700Y-127103780D01*
X59473700Y-126896220D01*
X59906300Y-126896220D01*
X59906300Y-127103780D01*
X59940044Y-127273424D01*
X59946793Y-127307354D01*
X60026222Y-127499110D01*
X60026223Y-127499113D01*
X60141534Y-127671689D01*
X60141535Y-127671690D01*
X60141538Y-127671694D01*
X60288306Y-127818462D01*
X60288309Y-127818464D01*
X60288310Y-127818465D01*
X60403617Y-127895510D01*
X60460886Y-127933776D01*
X60652647Y-128013207D01*
X60856220Y-128053700D01*
X60856224Y-128053700D01*
X61063776Y-128053700D01*
X61063780Y-128053700D01*
X61267353Y-128013207D01*
X61459114Y-127933776D01*
X61631694Y-127818462D01*
X61778462Y-127671694D01*
X61893776Y-127499114D01*
X61973207Y-127307353D01*
X62013700Y-127103780D01*
X62013700Y-126896220D01*
X62446300Y-126896220D01*
X62446300Y-127103780D01*
X62480044Y-127273424D01*
X62486793Y-127307354D01*
X62566222Y-127499110D01*
X62566223Y-127499113D01*
X62681534Y-127671689D01*
X62681535Y-127671690D01*
X62681538Y-127671694D01*
X62828306Y-127818462D01*
X62828309Y-127818464D01*
X62828310Y-127818465D01*
X62943617Y-127895510D01*
X63000886Y-127933776D01*
X63192647Y-128013207D01*
X63396220Y-128053700D01*
X63396224Y-128053700D01*
X63603776Y-128053700D01*
X63603780Y-128053700D01*
X63807353Y-128013207D01*
X63999114Y-127933776D01*
X64171694Y-127818462D01*
X64318462Y-127671694D01*
X64433776Y-127499114D01*
X64513207Y-127307353D01*
X64553700Y-127103780D01*
X64553700Y-126896220D01*
X64986300Y-126896220D01*
X64986300Y-127103780D01*
X65020044Y-127273424D01*
X65026793Y-127307354D01*
X65106222Y-127499110D01*
X65106223Y-127499113D01*
X65221534Y-127671689D01*
X65221535Y-127671690D01*
X65221538Y-127671694D01*
X65368306Y-127818462D01*
X65368309Y-127818464D01*
X65368310Y-127818465D01*
X65483617Y-127895510D01*
X65540886Y-127933776D01*
X65732647Y-128013207D01*
X65936220Y-128053700D01*
X65936224Y-128053700D01*
X66143776Y-128053700D01*
X66143780Y-128053700D01*
X66347353Y-128013207D01*
X66539114Y-127933776D01*
X66711694Y-127818462D01*
X66858462Y-127671694D01*
X66973776Y-127499114D01*
X67053207Y-127307353D01*
X67093700Y-127103780D01*
X67093700Y-126896220D01*
X67526300Y-126896220D01*
X67526300Y-127103780D01*
X67560044Y-127273424D01*
X67566793Y-127307354D01*
X67646222Y-127499110D01*
X67646223Y-127499113D01*
X67761534Y-127671689D01*
X67761535Y-127671690D01*
X67761538Y-127671694D01*
X67908306Y-127818462D01*
X67908309Y-127818464D01*
X67908310Y-127818465D01*
X68023617Y-127895510D01*
X68080886Y-127933776D01*
X68272647Y-128013207D01*
X68476220Y-128053700D01*
X68476224Y-128053700D01*
X68683776Y-128053700D01*
X68683780Y-128053700D01*
X68887353Y-128013207D01*
X69079114Y-127933776D01*
X69251694Y-127818462D01*
X69398462Y-127671694D01*
X69513776Y-127499114D01*
X69593207Y-127307353D01*
X69633700Y-127103780D01*
X69633700Y-126896220D01*
X70066300Y-126896220D01*
X70066300Y-127103780D01*
X70100044Y-127273424D01*
X70106793Y-127307354D01*
X70186222Y-127499110D01*
X70186223Y-127499113D01*
X70301534Y-127671689D01*
X70301535Y-127671690D01*
X70301538Y-127671694D01*
X70448306Y-127818462D01*
X70448309Y-127818464D01*
X70448310Y-127818465D01*
X70563617Y-127895510D01*
X70620886Y-127933776D01*
X70812647Y-128013207D01*
X71016220Y-128053700D01*
X71016224Y-128053700D01*
X71223776Y-128053700D01*
X71223780Y-128053700D01*
X71427353Y-128013207D01*
X71619114Y-127933776D01*
X71791694Y-127818462D01*
X71938462Y-127671694D01*
X72053776Y-127499114D01*
X72133207Y-127307353D01*
X72173700Y-127103780D01*
X72173700Y-126896220D01*
X72606300Y-126896220D01*
X72606300Y-127103780D01*
X72640044Y-127273424D01*
X72646793Y-127307354D01*
X72726222Y-127499110D01*
X72726223Y-127499113D01*
X72841534Y-127671689D01*
X72841535Y-127671690D01*
X72841538Y-127671694D01*
X72988306Y-127818462D01*
X72988309Y-127818464D01*
X72988310Y-127818465D01*
X73103617Y-127895510D01*
X73160886Y-127933776D01*
X73352647Y-128013207D01*
X73556220Y-128053700D01*
X73556224Y-128053700D01*
X73763776Y-128053700D01*
X73763780Y-128053700D01*
X73967353Y-128013207D01*
X74159114Y-127933776D01*
X74331694Y-127818462D01*
X74478462Y-127671694D01*
X74593776Y-127499114D01*
X74673207Y-127307353D01*
X74713700Y-127103780D01*
X74713700Y-126896220D01*
X75146300Y-126896220D01*
X75146300Y-127103780D01*
X75180044Y-127273424D01*
X75186793Y-127307354D01*
X75266222Y-127499110D01*
X75266223Y-127499113D01*
X75381534Y-127671689D01*
X75381535Y-127671690D01*
X75381538Y-127671694D01*
X75528306Y-127818462D01*
X75528309Y-127818464D01*
X75528310Y-127818465D01*
X75643617Y-127895510D01*
X75700886Y-127933776D01*
X75892647Y-128013207D01*
X76096220Y-128053700D01*
X76096224Y-128053700D01*
X76303776Y-128053700D01*
X76303780Y-128053700D01*
X76507353Y-128013207D01*
X76699114Y-127933776D01*
X76871694Y-127818462D01*
X77018462Y-127671694D01*
X77133776Y-127499114D01*
X77213207Y-127307353D01*
X77253700Y-127103780D01*
X77253700Y-126896220D01*
X77686300Y-126896220D01*
X77686300Y-127103780D01*
X77720044Y-127273424D01*
X77726793Y-127307354D01*
X77806222Y-127499110D01*
X77806223Y-127499113D01*
X77921534Y-127671689D01*
X77921535Y-127671690D01*
X77921538Y-127671694D01*
X78068306Y-127818462D01*
X78068309Y-127818464D01*
X78068310Y-127818465D01*
X78183617Y-127895510D01*
X78240886Y-127933776D01*
X78432647Y-128013207D01*
X78636220Y-128053700D01*
X78636224Y-128053700D01*
X78843776Y-128053700D01*
X78843780Y-128053700D01*
X79047353Y-128013207D01*
X79239114Y-127933776D01*
X79411694Y-127818462D01*
X79558462Y-127671694D01*
X79673776Y-127499114D01*
X79753207Y-127307353D01*
X79793700Y-127103780D01*
X79793700Y-126896220D01*
X80226300Y-126896220D01*
X80226300Y-127103780D01*
X80260044Y-127273424D01*
X80266793Y-127307354D01*
X80346222Y-127499110D01*
X80346223Y-127499113D01*
X80461534Y-127671689D01*
X80461535Y-127671690D01*
X80461538Y-127671694D01*
X80608306Y-127818462D01*
X80608309Y-127818464D01*
X80608310Y-127818465D01*
X80723617Y-127895510D01*
X80780886Y-127933776D01*
X80972647Y-128013207D01*
X81176220Y-128053700D01*
X81176224Y-128053700D01*
X81383776Y-128053700D01*
X81383780Y-128053700D01*
X81587353Y-128013207D01*
X81779114Y-127933776D01*
X81951694Y-127818462D01*
X82098462Y-127671694D01*
X82213776Y-127499114D01*
X82293207Y-127307353D01*
X82333700Y-127103780D01*
X82333700Y-126896220D01*
X82766300Y-126896220D01*
X82766300Y-127103780D01*
X82800044Y-127273424D01*
X82806793Y-127307354D01*
X82886222Y-127499110D01*
X82886223Y-127499113D01*
X83001534Y-127671689D01*
X83001535Y-127671690D01*
X83001538Y-127671694D01*
X83148306Y-127818462D01*
X83148309Y-127818464D01*
X83148310Y-127818465D01*
X83263617Y-127895510D01*
X83320886Y-127933776D01*
X83512647Y-128013207D01*
X83716220Y-128053700D01*
X83716224Y-128053700D01*
X83923776Y-128053700D01*
X83923780Y-128053700D01*
X84127353Y-128013207D01*
X84319114Y-127933776D01*
X84491694Y-127818462D01*
X84638462Y-127671694D01*
X84753776Y-127499114D01*
X84833207Y-127307353D01*
X84873700Y-127103780D01*
X84873700Y-126896220D01*
X85306300Y-126896220D01*
X85306300Y-127103780D01*
X85340044Y-127273424D01*
X85346793Y-127307354D01*
X85426222Y-127499110D01*
X85426223Y-127499113D01*
X85541534Y-127671689D01*
X85541535Y-127671690D01*
X85541538Y-127671694D01*
X85688306Y-127818462D01*
X85688309Y-127818464D01*
X85688310Y-127818465D01*
X85803617Y-127895510D01*
X85860886Y-127933776D01*
X86052647Y-128013207D01*
X86256220Y-128053700D01*
X86256224Y-128053700D01*
X86463776Y-128053700D01*
X86463780Y-128053700D01*
X86667353Y-128013207D01*
X86859114Y-127933776D01*
X87031694Y-127818462D01*
X87178462Y-127671694D01*
X87293776Y-127499114D01*
X87373207Y-127307353D01*
X87413700Y-127103780D01*
X87413700Y-126896220D01*
X87846300Y-126896220D01*
X87846300Y-127103780D01*
X87880044Y-127273424D01*
X87886793Y-127307354D01*
X87966222Y-127499110D01*
X87966223Y-127499113D01*
X88081534Y-127671689D01*
X88081535Y-127671690D01*
X88081538Y-127671694D01*
X88228306Y-127818462D01*
X88228309Y-127818464D01*
X88228310Y-127818465D01*
X88343617Y-127895510D01*
X88400886Y-127933776D01*
X88592647Y-128013207D01*
X88796220Y-128053700D01*
X88796224Y-128053700D01*
X89003776Y-128053700D01*
X89003780Y-128053700D01*
X89207353Y-128013207D01*
X89399114Y-127933776D01*
X89571694Y-127818462D01*
X89718462Y-127671694D01*
X89833776Y-127499114D01*
X89913207Y-127307353D01*
X89953700Y-127103780D01*
X89953700Y-126896220D01*
X90386300Y-126896220D01*
X90386300Y-127103780D01*
X90420044Y-127273424D01*
X90426793Y-127307354D01*
X90506222Y-127499110D01*
X90506223Y-127499113D01*
X90621534Y-127671689D01*
X90621535Y-127671690D01*
X90621538Y-127671694D01*
X90768306Y-127818462D01*
X90768309Y-127818464D01*
X90768310Y-127818465D01*
X90883617Y-127895510D01*
X90940886Y-127933776D01*
X91132647Y-128013207D01*
X91336220Y-128053700D01*
X91336224Y-128053700D01*
X91543776Y-128053700D01*
X91543780Y-128053700D01*
X91747353Y-128013207D01*
X91939114Y-127933776D01*
X92111694Y-127818462D01*
X92258462Y-127671694D01*
X92373776Y-127499114D01*
X92453207Y-127307353D01*
X92493700Y-127103780D01*
X92493700Y-126896220D01*
X92926300Y-126896220D01*
X92926300Y-127103780D01*
X92960044Y-127273424D01*
X92966793Y-127307354D01*
X93046222Y-127499110D01*
X93046223Y-127499113D01*
X93161534Y-127671689D01*
X93161535Y-127671690D01*
X93161538Y-127671694D01*
X93308306Y-127818462D01*
X93308309Y-127818464D01*
X93308310Y-127818465D01*
X93423617Y-127895510D01*
X93480886Y-127933776D01*
X93672647Y-128013207D01*
X93876220Y-128053700D01*
X93876224Y-128053700D01*
X94083776Y-128053700D01*
X94083780Y-128053700D01*
X94287353Y-128013207D01*
X94479114Y-127933776D01*
X94651694Y-127818462D01*
X94798462Y-127671694D01*
X94913776Y-127499114D01*
X94993207Y-127307353D01*
X95033700Y-127103780D01*
X95033700Y-126896220D01*
X95466300Y-126896220D01*
X95466300Y-127103780D01*
X95500044Y-127273424D01*
X95506793Y-127307354D01*
X95586222Y-127499110D01*
X95586223Y-127499113D01*
X95701534Y-127671689D01*
X95701535Y-127671690D01*
X95701538Y-127671694D01*
X95848306Y-127818462D01*
X95848309Y-127818464D01*
X95848310Y-127818465D01*
X95963617Y-127895510D01*
X96020886Y-127933776D01*
X96212647Y-128013207D01*
X96416220Y-128053700D01*
X96416224Y-128053700D01*
X96623776Y-128053700D01*
X96623780Y-128053700D01*
X96827353Y-128013207D01*
X97019114Y-127933776D01*
X97191694Y-127818462D01*
X97338462Y-127671694D01*
X97453776Y-127499114D01*
X97533207Y-127307353D01*
X97573700Y-127103780D01*
X97573700Y-126896220D01*
X98006300Y-126896220D01*
X98006300Y-127103780D01*
X98040044Y-127273424D01*
X98046793Y-127307354D01*
X98126222Y-127499110D01*
X98126223Y-127499113D01*
X98241534Y-127671689D01*
X98241535Y-127671690D01*
X98241538Y-127671694D01*
X98388306Y-127818462D01*
X98388309Y-127818464D01*
X98388310Y-127818465D01*
X98503617Y-127895510D01*
X98560886Y-127933776D01*
X98752647Y-128013207D01*
X98956220Y-128053700D01*
X98956224Y-128053700D01*
X99163776Y-128053700D01*
X99163780Y-128053700D01*
X99367353Y-128013207D01*
X99559114Y-127933776D01*
X99731694Y-127818462D01*
X99878462Y-127671694D01*
X99993776Y-127499114D01*
X100073207Y-127307353D01*
X100113700Y-127103780D01*
X100113700Y-126896220D01*
X100546300Y-126896220D01*
X100546300Y-127103780D01*
X100580044Y-127273424D01*
X100586793Y-127307354D01*
X100666222Y-127499110D01*
X100666223Y-127499113D01*
X100781534Y-127671689D01*
X100781535Y-127671690D01*
X100781538Y-127671694D01*
X100928306Y-127818462D01*
X100928309Y-127818464D01*
X100928310Y-127818465D01*
X101043617Y-127895510D01*
X101100886Y-127933776D01*
X101292647Y-128013207D01*
X101496220Y-128053700D01*
X101496224Y-128053700D01*
X101703776Y-128053700D01*
X101703780Y-128053700D01*
X101907353Y-128013207D01*
X102099114Y-127933776D01*
X102271694Y-127818462D01*
X102418462Y-127671694D01*
X102533776Y-127499114D01*
X102613207Y-127307353D01*
X102653700Y-127103780D01*
X102653700Y-126896220D01*
X103086300Y-126896220D01*
X103086300Y-127103780D01*
X103120044Y-127273424D01*
X103126793Y-127307354D01*
X103206222Y-127499110D01*
X103206223Y-127499113D01*
X103321534Y-127671689D01*
X103321535Y-127671690D01*
X103321538Y-127671694D01*
X103468306Y-127818462D01*
X103468309Y-127818464D01*
X103468310Y-127818465D01*
X103583617Y-127895510D01*
X103640886Y-127933776D01*
X103832647Y-128013207D01*
X104036220Y-128053700D01*
X104036224Y-128053700D01*
X104243776Y-128053700D01*
X104243780Y-128053700D01*
X104447353Y-128013207D01*
X104639114Y-127933776D01*
X104811694Y-127818462D01*
X104958462Y-127671694D01*
X105073776Y-127499114D01*
X105153207Y-127307353D01*
X105193700Y-127103780D01*
X105193700Y-126896220D01*
X105626300Y-126896220D01*
X105626300Y-127103780D01*
X105660044Y-127273424D01*
X105666793Y-127307354D01*
X105746222Y-127499110D01*
X105746223Y-127499113D01*
X105861534Y-127671689D01*
X105861535Y-127671690D01*
X105861538Y-127671694D01*
X106008306Y-127818462D01*
X106008309Y-127818464D01*
X106008310Y-127818465D01*
X106123617Y-127895510D01*
X106180886Y-127933776D01*
X106372647Y-128013207D01*
X106576220Y-128053700D01*
X106576224Y-128053700D01*
X106783776Y-128053700D01*
X106783780Y-128053700D01*
X106987353Y-128013207D01*
X107179114Y-127933776D01*
X107351694Y-127818462D01*
X107498462Y-127671694D01*
X107613776Y-127499114D01*
X107693207Y-127307353D01*
X107733700Y-127103780D01*
X107733700Y-126896220D01*
X108166300Y-126896220D01*
X108166300Y-127103780D01*
X108200044Y-127273424D01*
X108206793Y-127307354D01*
X108286222Y-127499110D01*
X108286223Y-127499113D01*
X108401534Y-127671689D01*
X108401535Y-127671690D01*
X108401538Y-127671694D01*
X108548306Y-127818462D01*
X108548309Y-127818464D01*
X108548310Y-127818465D01*
X108663617Y-127895510D01*
X108720886Y-127933776D01*
X108912647Y-128013207D01*
X109116220Y-128053700D01*
X109116224Y-128053700D01*
X109323776Y-128053700D01*
X109323780Y-128053700D01*
X109527353Y-128013207D01*
X109719114Y-127933776D01*
X109891694Y-127818462D01*
X110038462Y-127671694D01*
X110153776Y-127499114D01*
X110233207Y-127307353D01*
X110273700Y-127103780D01*
X110273700Y-126896220D01*
X110706300Y-126896220D01*
X110706300Y-127103780D01*
X110740044Y-127273424D01*
X110746793Y-127307354D01*
X110826222Y-127499110D01*
X110826223Y-127499113D01*
X110941534Y-127671689D01*
X110941535Y-127671690D01*
X110941538Y-127671694D01*
X111088306Y-127818462D01*
X111088309Y-127818464D01*
X111088310Y-127818465D01*
X111203617Y-127895510D01*
X111260886Y-127933776D01*
X111452647Y-128013207D01*
X111656220Y-128053700D01*
X111656224Y-128053700D01*
X111863776Y-128053700D01*
X111863780Y-128053700D01*
X112067353Y-128013207D01*
X112259114Y-127933776D01*
X112431694Y-127818462D01*
X112578462Y-127671694D01*
X112693776Y-127499114D01*
X112773207Y-127307353D01*
X112813700Y-127103780D01*
X112813700Y-126896220D01*
X113246300Y-126896220D01*
X113246300Y-127103780D01*
X113280044Y-127273424D01*
X113286793Y-127307354D01*
X113366222Y-127499110D01*
X113366223Y-127499113D01*
X113481534Y-127671689D01*
X113481535Y-127671690D01*
X113481538Y-127671694D01*
X113628306Y-127818462D01*
X113628309Y-127818464D01*
X113628310Y-127818465D01*
X113743617Y-127895510D01*
X113800886Y-127933776D01*
X113992647Y-128013207D01*
X114196220Y-128053700D01*
X114196224Y-128053700D01*
X114403776Y-128053700D01*
X114403780Y-128053700D01*
X114607353Y-128013207D01*
X114799114Y-127933776D01*
X114971694Y-127818462D01*
X115118462Y-127671694D01*
X115233776Y-127499114D01*
X115313207Y-127307353D01*
X115353700Y-127103780D01*
X115353700Y-126896220D01*
X115786300Y-126896220D01*
X115786300Y-127103780D01*
X115820044Y-127273424D01*
X115826793Y-127307354D01*
X115906222Y-127499110D01*
X115906223Y-127499113D01*
X116021534Y-127671689D01*
X116021535Y-127671690D01*
X116021538Y-127671694D01*
X116168306Y-127818462D01*
X116168309Y-127818464D01*
X116168310Y-127818465D01*
X116283617Y-127895510D01*
X116340886Y-127933776D01*
X116532647Y-128013207D01*
X116736220Y-128053700D01*
X116736224Y-128053700D01*
X116943776Y-128053700D01*
X116943780Y-128053700D01*
X117147353Y-128013207D01*
X117339114Y-127933776D01*
X117511694Y-127818462D01*
X117658462Y-127671694D01*
X117773776Y-127499114D01*
X117853207Y-127307353D01*
X117893700Y-127103780D01*
X117893700Y-126896220D01*
X118326300Y-126896220D01*
X118326300Y-127103780D01*
X118360044Y-127273424D01*
X118366793Y-127307354D01*
X118446222Y-127499110D01*
X118446223Y-127499113D01*
X118561534Y-127671689D01*
X118561535Y-127671690D01*
X118561538Y-127671694D01*
X118708306Y-127818462D01*
X118708309Y-127818464D01*
X118708310Y-127818465D01*
X118823617Y-127895510D01*
X118880886Y-127933776D01*
X119072647Y-128013207D01*
X119276220Y-128053700D01*
X119276224Y-128053700D01*
X119483776Y-128053700D01*
X119483780Y-128053700D01*
X119687353Y-128013207D01*
X119879114Y-127933776D01*
X120051694Y-127818462D01*
X120198462Y-127671694D01*
X120313776Y-127499114D01*
X120393207Y-127307353D01*
X120433700Y-127103780D01*
X120433700Y-126896220D01*
X120866300Y-126896220D01*
X120866300Y-127103780D01*
X120900044Y-127273424D01*
X120906793Y-127307354D01*
X120986222Y-127499110D01*
X120986223Y-127499113D01*
X121101534Y-127671689D01*
X121101535Y-127671690D01*
X121101538Y-127671694D01*
X121248306Y-127818462D01*
X121248309Y-127818464D01*
X121248310Y-127818465D01*
X121363617Y-127895510D01*
X121420886Y-127933776D01*
X121612647Y-128013207D01*
X121816220Y-128053700D01*
X121816224Y-128053700D01*
X122023776Y-128053700D01*
X122023780Y-128053700D01*
X122227353Y-128013207D01*
X122419114Y-127933776D01*
X122591694Y-127818462D01*
X122738462Y-127671694D01*
X122853776Y-127499114D01*
X122933207Y-127307353D01*
X122973700Y-127103780D01*
X122973700Y-126896220D01*
X123406300Y-126896220D01*
X123406300Y-127103780D01*
X123440044Y-127273424D01*
X123446793Y-127307354D01*
X123526222Y-127499110D01*
X123526223Y-127499113D01*
X123641534Y-127671689D01*
X123641535Y-127671690D01*
X123641538Y-127671694D01*
X123788306Y-127818462D01*
X123788309Y-127818464D01*
X123788310Y-127818465D01*
X123903617Y-127895510D01*
X123960886Y-127933776D01*
X124152647Y-128013207D01*
X124356220Y-128053700D01*
X124356224Y-128053700D01*
X124563776Y-128053700D01*
X124563780Y-128053700D01*
X124767353Y-128013207D01*
X124959114Y-127933776D01*
X125131694Y-127818462D01*
X125278462Y-127671694D01*
X125393776Y-127499114D01*
X125473207Y-127307353D01*
X125513700Y-127103780D01*
X125513700Y-126896220D01*
X125946300Y-126896220D01*
X125946300Y-127103780D01*
X125980044Y-127273424D01*
X125986793Y-127307354D01*
X126066222Y-127499110D01*
X126066223Y-127499113D01*
X126181534Y-127671689D01*
X126181535Y-127671690D01*
X126181538Y-127671694D01*
X126328306Y-127818462D01*
X126328309Y-127818464D01*
X126328310Y-127818465D01*
X126443617Y-127895510D01*
X126500886Y-127933776D01*
X126692647Y-128013207D01*
X126896220Y-128053700D01*
X126896224Y-128053700D01*
X127103776Y-128053700D01*
X127103780Y-128053700D01*
X127307353Y-128013207D01*
X127499114Y-127933776D01*
X127671694Y-127818462D01*
X127818462Y-127671694D01*
X127933776Y-127499114D01*
X128013207Y-127307353D01*
X128053700Y-127103780D01*
X128053700Y-126896220D01*
X128013207Y-126692647D01*
X127933776Y-126500886D01*
X127818462Y-126328306D01*
X127671694Y-126181538D01*
X127671690Y-126181535D01*
X127671689Y-126181534D01*
X127594464Y-126129934D01*
X131026300Y-126129934D01*
X131026300Y-127870065D01*
X131038117Y-127929474D01*
X131038119Y-127929480D01*
X131083140Y-127996860D01*
X131150520Y-128041881D01*
X131150524Y-128041881D01*
X131150525Y-128041882D01*
X131209934Y-128053700D01*
X131209936Y-128053700D01*
X132950066Y-128053700D01*
X132990033Y-128045749D01*
X133009480Y-128041881D01*
X133076860Y-127996860D01*
X133121881Y-127929480D01*
X133133700Y-127870064D01*
X133133700Y-126896220D01*
X133566300Y-126896220D01*
X133566300Y-127103780D01*
X133600044Y-127273424D01*
X133606793Y-127307354D01*
X133686222Y-127499110D01*
X133686223Y-127499113D01*
X133801534Y-127671689D01*
X133801535Y-127671690D01*
X133801538Y-127671694D01*
X133948306Y-127818462D01*
X133948309Y-127818464D01*
X133948310Y-127818465D01*
X134063617Y-127895510D01*
X134120886Y-127933776D01*
X134312647Y-128013207D01*
X134516220Y-128053700D01*
X134516224Y-128053700D01*
X134723776Y-128053700D01*
X134723780Y-128053700D01*
X134927353Y-128013207D01*
X135119114Y-127933776D01*
X135291694Y-127818462D01*
X135438462Y-127671694D01*
X135553776Y-127499114D01*
X135633207Y-127307353D01*
X135673700Y-127103780D01*
X135673700Y-126896220D01*
X136106300Y-126896220D01*
X136106300Y-127103780D01*
X136140044Y-127273424D01*
X136146793Y-127307354D01*
X136226222Y-127499110D01*
X136226223Y-127499113D01*
X136341534Y-127671689D01*
X136341535Y-127671690D01*
X136341538Y-127671694D01*
X136488306Y-127818462D01*
X136488309Y-127818464D01*
X136488310Y-127818465D01*
X136603617Y-127895510D01*
X136660886Y-127933776D01*
X136852647Y-128013207D01*
X137056220Y-128053700D01*
X137056224Y-128053700D01*
X137263776Y-128053700D01*
X137263780Y-128053700D01*
X137467353Y-128013207D01*
X137659114Y-127933776D01*
X137831694Y-127818462D01*
X137978462Y-127671694D01*
X138093776Y-127499114D01*
X138173207Y-127307353D01*
X138213700Y-127103780D01*
X138213700Y-126896220D01*
X138646300Y-126896220D01*
X138646300Y-127103780D01*
X138680044Y-127273424D01*
X138686793Y-127307354D01*
X138766222Y-127499110D01*
X138766223Y-127499113D01*
X138881534Y-127671689D01*
X138881535Y-127671690D01*
X138881538Y-127671694D01*
X139028306Y-127818462D01*
X139028309Y-127818464D01*
X139028310Y-127818465D01*
X139143617Y-127895510D01*
X139200886Y-127933776D01*
X139392647Y-128013207D01*
X139596220Y-128053700D01*
X139596224Y-128053700D01*
X139803776Y-128053700D01*
X139803780Y-128053700D01*
X140007353Y-128013207D01*
X140199114Y-127933776D01*
X140371694Y-127818462D01*
X140518462Y-127671694D01*
X140633776Y-127499114D01*
X140713207Y-127307353D01*
X140753700Y-127103780D01*
X140753700Y-126896220D01*
X141186300Y-126896220D01*
X141186300Y-127103780D01*
X141220044Y-127273424D01*
X141226793Y-127307354D01*
X141306222Y-127499110D01*
X141306223Y-127499113D01*
X141421534Y-127671689D01*
X141421535Y-127671690D01*
X141421538Y-127671694D01*
X141568306Y-127818462D01*
X141568309Y-127818464D01*
X141568310Y-127818465D01*
X141683617Y-127895510D01*
X141740886Y-127933776D01*
X141932647Y-128013207D01*
X142136220Y-128053700D01*
X142136224Y-128053700D01*
X142343776Y-128053700D01*
X142343780Y-128053700D01*
X142547353Y-128013207D01*
X142739114Y-127933776D01*
X142911694Y-127818462D01*
X143058462Y-127671694D01*
X143173776Y-127499114D01*
X143253207Y-127307353D01*
X143293700Y-127103780D01*
X143293700Y-126896220D01*
X143726300Y-126896220D01*
X143726300Y-127103780D01*
X143760044Y-127273424D01*
X143766793Y-127307354D01*
X143846222Y-127499110D01*
X143846223Y-127499113D01*
X143961534Y-127671689D01*
X143961535Y-127671690D01*
X143961538Y-127671694D01*
X144108306Y-127818462D01*
X144108309Y-127818464D01*
X144108310Y-127818465D01*
X144223617Y-127895510D01*
X144280886Y-127933776D01*
X144472647Y-128013207D01*
X144676220Y-128053700D01*
X144676224Y-128053700D01*
X144883776Y-128053700D01*
X144883780Y-128053700D01*
X145087353Y-128013207D01*
X145279114Y-127933776D01*
X145451694Y-127818462D01*
X145598462Y-127671694D01*
X145713776Y-127499114D01*
X145793207Y-127307353D01*
X145833700Y-127103780D01*
X145833700Y-126896220D01*
X146266300Y-126896220D01*
X146266300Y-127103780D01*
X146300044Y-127273424D01*
X146306793Y-127307354D01*
X146386222Y-127499110D01*
X146386223Y-127499113D01*
X146501534Y-127671689D01*
X146501535Y-127671690D01*
X146501538Y-127671694D01*
X146648306Y-127818462D01*
X146648309Y-127818464D01*
X146648310Y-127818465D01*
X146763617Y-127895510D01*
X146820886Y-127933776D01*
X147012647Y-128013207D01*
X147216220Y-128053700D01*
X147216224Y-128053700D01*
X147423776Y-128053700D01*
X147423780Y-128053700D01*
X147627353Y-128013207D01*
X147819114Y-127933776D01*
X147991694Y-127818462D01*
X148138462Y-127671694D01*
X148253776Y-127499114D01*
X148333207Y-127307353D01*
X148373700Y-127103780D01*
X148373700Y-126896220D01*
X148806300Y-126896220D01*
X148806300Y-127103780D01*
X148840044Y-127273424D01*
X148846793Y-127307354D01*
X148926222Y-127499110D01*
X148926223Y-127499113D01*
X149041534Y-127671689D01*
X149041535Y-127671690D01*
X149041538Y-127671694D01*
X149188306Y-127818462D01*
X149188309Y-127818464D01*
X149188310Y-127818465D01*
X149303617Y-127895510D01*
X149360886Y-127933776D01*
X149552647Y-128013207D01*
X149756220Y-128053700D01*
X149756224Y-128053700D01*
X149963776Y-128053700D01*
X149963780Y-128053700D01*
X150167353Y-128013207D01*
X150359114Y-127933776D01*
X150531694Y-127818462D01*
X150678462Y-127671694D01*
X150793776Y-127499114D01*
X150873207Y-127307353D01*
X150913700Y-127103780D01*
X150913700Y-126896220D01*
X151346300Y-126896220D01*
X151346300Y-127103780D01*
X151380044Y-127273424D01*
X151386793Y-127307354D01*
X151466222Y-127499110D01*
X151466223Y-127499113D01*
X151581534Y-127671689D01*
X151581535Y-127671690D01*
X151581538Y-127671694D01*
X151728306Y-127818462D01*
X151728309Y-127818464D01*
X151728310Y-127818465D01*
X151843617Y-127895510D01*
X151900886Y-127933776D01*
X152092647Y-128013207D01*
X152296220Y-128053700D01*
X152296224Y-128053700D01*
X152503776Y-128053700D01*
X152503780Y-128053700D01*
X152707353Y-128013207D01*
X152899114Y-127933776D01*
X153071694Y-127818462D01*
X153218462Y-127671694D01*
X153333776Y-127499114D01*
X153413207Y-127307353D01*
X153453700Y-127103780D01*
X153453700Y-126896220D01*
X153886300Y-126896220D01*
X153886300Y-127103780D01*
X153920044Y-127273424D01*
X153926793Y-127307354D01*
X154006222Y-127499110D01*
X154006223Y-127499113D01*
X154121534Y-127671689D01*
X154121535Y-127671690D01*
X154121538Y-127671694D01*
X154268306Y-127818462D01*
X154268309Y-127818464D01*
X154268310Y-127818465D01*
X154383617Y-127895510D01*
X154440886Y-127933776D01*
X154632647Y-128013207D01*
X154836220Y-128053700D01*
X154836224Y-128053700D01*
X155043776Y-128053700D01*
X155043780Y-128053700D01*
X155247353Y-128013207D01*
X155439114Y-127933776D01*
X155611694Y-127818462D01*
X155758462Y-127671694D01*
X155873776Y-127499114D01*
X155953207Y-127307353D01*
X155993700Y-127103780D01*
X155993700Y-126896220D01*
X156426300Y-126896220D01*
X156426300Y-127103780D01*
X156460044Y-127273424D01*
X156466793Y-127307354D01*
X156546222Y-127499110D01*
X156546223Y-127499113D01*
X156661534Y-127671689D01*
X156661535Y-127671690D01*
X156661538Y-127671694D01*
X156808306Y-127818462D01*
X156808309Y-127818464D01*
X156808310Y-127818465D01*
X156923617Y-127895510D01*
X156980886Y-127933776D01*
X157172647Y-128013207D01*
X157376220Y-128053700D01*
X157376224Y-128053700D01*
X157583776Y-128053700D01*
X157583780Y-128053700D01*
X157787353Y-128013207D01*
X157979114Y-127933776D01*
X158151694Y-127818462D01*
X158298462Y-127671694D01*
X158413776Y-127499114D01*
X158493207Y-127307353D01*
X158533700Y-127103780D01*
X158533700Y-126896220D01*
X158966300Y-126896220D01*
X158966300Y-127103780D01*
X159000044Y-127273424D01*
X159006793Y-127307354D01*
X159086222Y-127499110D01*
X159086223Y-127499113D01*
X159201534Y-127671689D01*
X159201535Y-127671690D01*
X159201538Y-127671694D01*
X159348306Y-127818462D01*
X159348309Y-127818464D01*
X159348310Y-127818465D01*
X159463617Y-127895510D01*
X159520886Y-127933776D01*
X159712647Y-128013207D01*
X159916220Y-128053700D01*
X159916224Y-128053700D01*
X160123776Y-128053700D01*
X160123780Y-128053700D01*
X160327353Y-128013207D01*
X160519114Y-127933776D01*
X160691694Y-127818462D01*
X160838462Y-127671694D01*
X160953776Y-127499114D01*
X161033207Y-127307353D01*
X161073700Y-127103780D01*
X161073700Y-126896220D01*
X161506300Y-126896220D01*
X161506300Y-127103780D01*
X161540044Y-127273424D01*
X161546793Y-127307354D01*
X161626222Y-127499110D01*
X161626223Y-127499113D01*
X161741534Y-127671689D01*
X161741535Y-127671690D01*
X161741538Y-127671694D01*
X161888306Y-127818462D01*
X161888309Y-127818464D01*
X161888310Y-127818465D01*
X162003617Y-127895510D01*
X162060886Y-127933776D01*
X162252647Y-128013207D01*
X162456220Y-128053700D01*
X162456224Y-128053700D01*
X162663776Y-128053700D01*
X162663780Y-128053700D01*
X162867353Y-128013207D01*
X163059114Y-127933776D01*
X163231694Y-127818462D01*
X163378462Y-127671694D01*
X163493776Y-127499114D01*
X163573207Y-127307353D01*
X163613700Y-127103780D01*
X163613700Y-126896220D01*
X164046300Y-126896220D01*
X164046300Y-127103780D01*
X164080044Y-127273424D01*
X164086793Y-127307354D01*
X164166222Y-127499110D01*
X164166223Y-127499113D01*
X164281534Y-127671689D01*
X164281535Y-127671690D01*
X164281538Y-127671694D01*
X164428306Y-127818462D01*
X164428309Y-127818464D01*
X164428310Y-127818465D01*
X164543617Y-127895510D01*
X164600886Y-127933776D01*
X164792647Y-128013207D01*
X164996220Y-128053700D01*
X164996224Y-128053700D01*
X165203776Y-128053700D01*
X165203780Y-128053700D01*
X165407353Y-128013207D01*
X165599114Y-127933776D01*
X165771694Y-127818462D01*
X165918462Y-127671694D01*
X166033776Y-127499114D01*
X166113207Y-127307353D01*
X166153700Y-127103780D01*
X166153700Y-126896220D01*
X166586300Y-126896220D01*
X166586300Y-127103780D01*
X166620044Y-127273424D01*
X166626793Y-127307354D01*
X166706222Y-127499110D01*
X166706223Y-127499113D01*
X166821534Y-127671689D01*
X166821535Y-127671690D01*
X166821538Y-127671694D01*
X166968306Y-127818462D01*
X166968309Y-127818464D01*
X166968310Y-127818465D01*
X167083617Y-127895510D01*
X167140886Y-127933776D01*
X167332647Y-128013207D01*
X167536220Y-128053700D01*
X167536224Y-128053700D01*
X167743776Y-128053700D01*
X167743780Y-128053700D01*
X167947353Y-128013207D01*
X168139114Y-127933776D01*
X168311694Y-127818462D01*
X168458462Y-127671694D01*
X168573776Y-127499114D01*
X168653207Y-127307353D01*
X168693700Y-127103780D01*
X168693700Y-126896220D01*
X169126300Y-126896220D01*
X169126300Y-127103780D01*
X169160044Y-127273424D01*
X169166793Y-127307354D01*
X169246222Y-127499110D01*
X169246223Y-127499113D01*
X169361534Y-127671689D01*
X169361535Y-127671690D01*
X169361538Y-127671694D01*
X169508306Y-127818462D01*
X169508309Y-127818464D01*
X169508310Y-127818465D01*
X169623617Y-127895510D01*
X169680886Y-127933776D01*
X169872647Y-128013207D01*
X170076220Y-128053700D01*
X170076224Y-128053700D01*
X170283776Y-128053700D01*
X170283780Y-128053700D01*
X170487353Y-128013207D01*
X170679114Y-127933776D01*
X170851694Y-127818462D01*
X170998462Y-127671694D01*
X171113776Y-127499114D01*
X171193207Y-127307353D01*
X171233700Y-127103780D01*
X171233700Y-126896220D01*
X171666300Y-126896220D01*
X171666300Y-127103780D01*
X171700044Y-127273424D01*
X171706793Y-127307354D01*
X171786222Y-127499110D01*
X171786223Y-127499113D01*
X171901534Y-127671689D01*
X171901535Y-127671690D01*
X171901538Y-127671694D01*
X172048306Y-127818462D01*
X172048309Y-127818464D01*
X172048310Y-127818465D01*
X172163617Y-127895510D01*
X172220886Y-127933776D01*
X172412647Y-128013207D01*
X172616220Y-128053700D01*
X172616224Y-128053700D01*
X172823776Y-128053700D01*
X172823780Y-128053700D01*
X173027353Y-128013207D01*
X173219114Y-127933776D01*
X173391694Y-127818462D01*
X173538462Y-127671694D01*
X173653776Y-127499114D01*
X173733207Y-127307353D01*
X173773700Y-127103780D01*
X173773700Y-126896220D01*
X174206300Y-126896220D01*
X174206300Y-127103780D01*
X174240044Y-127273424D01*
X174246793Y-127307354D01*
X174326222Y-127499110D01*
X174326223Y-127499113D01*
X174441534Y-127671689D01*
X174441535Y-127671690D01*
X174441538Y-127671694D01*
X174588306Y-127818462D01*
X174588309Y-127818464D01*
X174588310Y-127818465D01*
X174703617Y-127895510D01*
X174760886Y-127933776D01*
X174952647Y-128013207D01*
X175156220Y-128053700D01*
X175156224Y-128053700D01*
X175363776Y-128053700D01*
X175363780Y-128053700D01*
X175567353Y-128013207D01*
X175759114Y-127933776D01*
X175931694Y-127818462D01*
X176078462Y-127671694D01*
X176193776Y-127499114D01*
X176273207Y-127307353D01*
X176313700Y-127103780D01*
X176313700Y-126896220D01*
X176273207Y-126692647D01*
X176193776Y-126500886D01*
X176078462Y-126328306D01*
X175931694Y-126181538D01*
X175931690Y-126181535D01*
X175931689Y-126181534D01*
X175759113Y-126066223D01*
X175759110Y-126066222D01*
X175567354Y-125986793D01*
X175526638Y-125978694D01*
X175363780Y-125946300D01*
X175156220Y-125946300D01*
X175020504Y-125973295D01*
X174952645Y-125986793D01*
X174760889Y-126066222D01*
X174760886Y-126066223D01*
X174588310Y-126181534D01*
X174441534Y-126328310D01*
X174326223Y-126500886D01*
X174326222Y-126500889D01*
X174246793Y-126692645D01*
X174246793Y-126692647D01*
X174206300Y-126896220D01*
X173773700Y-126896220D01*
X173733207Y-126692647D01*
X173653776Y-126500886D01*
X173538462Y-126328306D01*
X173391694Y-126181538D01*
X173391690Y-126181535D01*
X173391689Y-126181534D01*
X173219113Y-126066223D01*
X173219110Y-126066222D01*
X173027354Y-125986793D01*
X172986638Y-125978694D01*
X172823780Y-125946300D01*
X172616220Y-125946300D01*
X172480504Y-125973295D01*
X172412645Y-125986793D01*
X172220889Y-126066222D01*
X172220886Y-126066223D01*
X172048310Y-126181534D01*
X171901534Y-126328310D01*
X171786223Y-126500886D01*
X171786222Y-126500889D01*
X171706793Y-126692645D01*
X171706793Y-126692647D01*
X171666300Y-126896220D01*
X171233700Y-126896220D01*
X171193207Y-126692647D01*
X171113776Y-126500886D01*
X170998462Y-126328306D01*
X170851694Y-126181538D01*
X170851690Y-126181535D01*
X170851689Y-126181534D01*
X170679113Y-126066223D01*
X170679110Y-126066222D01*
X170487354Y-125986793D01*
X170446638Y-125978694D01*
X170283780Y-125946300D01*
X170076220Y-125946300D01*
X169940504Y-125973295D01*
X169872645Y-125986793D01*
X169680889Y-126066222D01*
X169680886Y-126066223D01*
X169508310Y-126181534D01*
X169361534Y-126328310D01*
X169246223Y-126500886D01*
X169246222Y-126500889D01*
X169166793Y-126692645D01*
X169166793Y-126692647D01*
X169126300Y-126896220D01*
X168693700Y-126896220D01*
X168653207Y-126692647D01*
X168573776Y-126500886D01*
X168458462Y-126328306D01*
X168311694Y-126181538D01*
X168311690Y-126181535D01*
X168311689Y-126181534D01*
X168139113Y-126066223D01*
X168139110Y-126066222D01*
X167947354Y-125986793D01*
X167906638Y-125978694D01*
X167743780Y-125946300D01*
X167536220Y-125946300D01*
X167400504Y-125973295D01*
X167332645Y-125986793D01*
X167140889Y-126066222D01*
X167140886Y-126066223D01*
X166968310Y-126181534D01*
X166821534Y-126328310D01*
X166706223Y-126500886D01*
X166706222Y-126500889D01*
X166626793Y-126692645D01*
X166626793Y-126692647D01*
X166586300Y-126896220D01*
X166153700Y-126896220D01*
X166113207Y-126692647D01*
X166033776Y-126500886D01*
X165918462Y-126328306D01*
X165771694Y-126181538D01*
X165771690Y-126181535D01*
X165771689Y-126181534D01*
X165599113Y-126066223D01*
X165599110Y-126066222D01*
X165407354Y-125986793D01*
X165366638Y-125978694D01*
X165203780Y-125946300D01*
X164996220Y-125946300D01*
X164860504Y-125973295D01*
X164792645Y-125986793D01*
X164600889Y-126066222D01*
X164600886Y-126066223D01*
X164428310Y-126181534D01*
X164281534Y-126328310D01*
X164166223Y-126500886D01*
X164166222Y-126500889D01*
X164086793Y-126692645D01*
X164086793Y-126692647D01*
X164046300Y-126896220D01*
X163613700Y-126896220D01*
X163573207Y-126692647D01*
X163493776Y-126500886D01*
X163378462Y-126328306D01*
X163231694Y-126181538D01*
X163231690Y-126181535D01*
X163231689Y-126181534D01*
X163059113Y-126066223D01*
X163059110Y-126066222D01*
X162867354Y-125986793D01*
X162826638Y-125978694D01*
X162663780Y-125946300D01*
X162456220Y-125946300D01*
X162320504Y-125973295D01*
X162252645Y-125986793D01*
X162060889Y-126066222D01*
X162060886Y-126066223D01*
X161888310Y-126181534D01*
X161741534Y-126328310D01*
X161626223Y-126500886D01*
X161626222Y-126500889D01*
X161546793Y-126692645D01*
X161546793Y-126692647D01*
X161506300Y-126896220D01*
X161073700Y-126896220D01*
X161033207Y-126692647D01*
X160953776Y-126500886D01*
X160838462Y-126328306D01*
X160691694Y-126181538D01*
X160691690Y-126181535D01*
X160691689Y-126181534D01*
X160519113Y-126066223D01*
X160519110Y-126066222D01*
X160327354Y-125986793D01*
X160286638Y-125978694D01*
X160123780Y-125946300D01*
X159916220Y-125946300D01*
X159780504Y-125973295D01*
X159712645Y-125986793D01*
X159520889Y-126066222D01*
X159520886Y-126066223D01*
X159348310Y-126181534D01*
X159201534Y-126328310D01*
X159086223Y-126500886D01*
X159086222Y-126500889D01*
X159006793Y-126692645D01*
X159006793Y-126692647D01*
X158966300Y-126896220D01*
X158533700Y-126896220D01*
X158493207Y-126692647D01*
X158413776Y-126500886D01*
X158298462Y-126328306D01*
X158151694Y-126181538D01*
X158151690Y-126181535D01*
X158151689Y-126181534D01*
X157979113Y-126066223D01*
X157979110Y-126066222D01*
X157787354Y-125986793D01*
X157746638Y-125978694D01*
X157583780Y-125946300D01*
X157376220Y-125946300D01*
X157240504Y-125973295D01*
X157172645Y-125986793D01*
X156980889Y-126066222D01*
X156980886Y-126066223D01*
X156808310Y-126181534D01*
X156661534Y-126328310D01*
X156546223Y-126500886D01*
X156546222Y-126500889D01*
X156466793Y-126692645D01*
X156466793Y-126692647D01*
X156426300Y-126896220D01*
X155993700Y-126896220D01*
X155953207Y-126692647D01*
X155873776Y-126500886D01*
X155758462Y-126328306D01*
X155611694Y-126181538D01*
X155611690Y-126181535D01*
X155611689Y-126181534D01*
X155439113Y-126066223D01*
X155439110Y-126066222D01*
X155247354Y-125986793D01*
X155206638Y-125978694D01*
X155043780Y-125946300D01*
X154836220Y-125946300D01*
X154700504Y-125973295D01*
X154632645Y-125986793D01*
X154440889Y-126066222D01*
X154440886Y-126066223D01*
X154268310Y-126181534D01*
X154121534Y-126328310D01*
X154006223Y-126500886D01*
X154006222Y-126500889D01*
X153926793Y-126692645D01*
X153926793Y-126692647D01*
X153886300Y-126896220D01*
X153453700Y-126896220D01*
X153413207Y-126692647D01*
X153333776Y-126500886D01*
X153218462Y-126328306D01*
X153071694Y-126181538D01*
X153071690Y-126181535D01*
X153071689Y-126181534D01*
X152899113Y-126066223D01*
X152899110Y-126066222D01*
X152707354Y-125986793D01*
X152666638Y-125978694D01*
X152503780Y-125946300D01*
X152296220Y-125946300D01*
X152160504Y-125973295D01*
X152092645Y-125986793D01*
X151900889Y-126066222D01*
X151900886Y-126066223D01*
X151728310Y-126181534D01*
X151581534Y-126328310D01*
X151466223Y-126500886D01*
X151466222Y-126500889D01*
X151386793Y-126692645D01*
X151386793Y-126692647D01*
X151346300Y-126896220D01*
X150913700Y-126896220D01*
X150873207Y-126692647D01*
X150793776Y-126500886D01*
X150678462Y-126328306D01*
X150531694Y-126181538D01*
X150531690Y-126181535D01*
X150531689Y-126181534D01*
X150359113Y-126066223D01*
X150359110Y-126066222D01*
X150167354Y-125986793D01*
X150126638Y-125978694D01*
X149963780Y-125946300D01*
X149756220Y-125946300D01*
X149620504Y-125973295D01*
X149552645Y-125986793D01*
X149360889Y-126066222D01*
X149360886Y-126066223D01*
X149188310Y-126181534D01*
X149041534Y-126328310D01*
X148926223Y-126500886D01*
X148926222Y-126500889D01*
X148846793Y-126692645D01*
X148846793Y-126692647D01*
X148806300Y-126896220D01*
X148373700Y-126896220D01*
X148333207Y-126692647D01*
X148253776Y-126500886D01*
X148138462Y-126328306D01*
X147991694Y-126181538D01*
X147991690Y-126181535D01*
X147991689Y-126181534D01*
X147819113Y-126066223D01*
X147819110Y-126066222D01*
X147627354Y-125986793D01*
X147586638Y-125978694D01*
X147423780Y-125946300D01*
X147216220Y-125946300D01*
X147080504Y-125973295D01*
X147012645Y-125986793D01*
X146820889Y-126066222D01*
X146820886Y-126066223D01*
X146648310Y-126181534D01*
X146501534Y-126328310D01*
X146386223Y-126500886D01*
X146386222Y-126500889D01*
X146306793Y-126692645D01*
X146306793Y-126692647D01*
X146266300Y-126896220D01*
X145833700Y-126896220D01*
X145793207Y-126692647D01*
X145713776Y-126500886D01*
X145598462Y-126328306D01*
X145451694Y-126181538D01*
X145451690Y-126181535D01*
X145451689Y-126181534D01*
X145279113Y-126066223D01*
X145279110Y-126066222D01*
X145087354Y-125986793D01*
X145046638Y-125978694D01*
X144883780Y-125946300D01*
X144676220Y-125946300D01*
X144540504Y-125973295D01*
X144472645Y-125986793D01*
X144280889Y-126066222D01*
X144280886Y-126066223D01*
X144108310Y-126181534D01*
X143961534Y-126328310D01*
X143846223Y-126500886D01*
X143846222Y-126500889D01*
X143766793Y-126692645D01*
X143766793Y-126692647D01*
X143726300Y-126896220D01*
X143293700Y-126896220D01*
X143253207Y-126692647D01*
X143173776Y-126500886D01*
X143058462Y-126328306D01*
X142911694Y-126181538D01*
X142911690Y-126181535D01*
X142911689Y-126181534D01*
X142739113Y-126066223D01*
X142739110Y-126066222D01*
X142547354Y-125986793D01*
X142506638Y-125978694D01*
X142343780Y-125946300D01*
X142136220Y-125946300D01*
X142000504Y-125973295D01*
X141932645Y-125986793D01*
X141740889Y-126066222D01*
X141740886Y-126066223D01*
X141568310Y-126181534D01*
X141421534Y-126328310D01*
X141306223Y-126500886D01*
X141306222Y-126500889D01*
X141226793Y-126692645D01*
X141226793Y-126692647D01*
X141186300Y-126896220D01*
X140753700Y-126896220D01*
X140713207Y-126692647D01*
X140633776Y-126500886D01*
X140518462Y-126328306D01*
X140371694Y-126181538D01*
X140371690Y-126181535D01*
X140371689Y-126181534D01*
X140199113Y-126066223D01*
X140199110Y-126066222D01*
X140007354Y-125986793D01*
X139966638Y-125978694D01*
X139803780Y-125946300D01*
X139596220Y-125946300D01*
X139460504Y-125973295D01*
X139392645Y-125986793D01*
X139200889Y-126066222D01*
X139200886Y-126066223D01*
X139028310Y-126181534D01*
X138881534Y-126328310D01*
X138766223Y-126500886D01*
X138766222Y-126500889D01*
X138686793Y-126692645D01*
X138686793Y-126692647D01*
X138646300Y-126896220D01*
X138213700Y-126896220D01*
X138173207Y-126692647D01*
X138093776Y-126500886D01*
X137978462Y-126328306D01*
X137831694Y-126181538D01*
X137831690Y-126181535D01*
X137831689Y-126181534D01*
X137659113Y-126066223D01*
X137659110Y-126066222D01*
X137467354Y-125986793D01*
X137426638Y-125978694D01*
X137263780Y-125946300D01*
X137056220Y-125946300D01*
X136920504Y-125973295D01*
X136852645Y-125986793D01*
X136660889Y-126066222D01*
X136660886Y-126066223D01*
X136488310Y-126181534D01*
X136341534Y-126328310D01*
X136226223Y-126500886D01*
X136226222Y-126500889D01*
X136146793Y-126692645D01*
X136146793Y-126692647D01*
X136106300Y-126896220D01*
X135673700Y-126896220D01*
X135633207Y-126692647D01*
X135553776Y-126500886D01*
X135438462Y-126328306D01*
X135291694Y-126181538D01*
X135291690Y-126181535D01*
X135291689Y-126181534D01*
X135119113Y-126066223D01*
X135119110Y-126066222D01*
X134927354Y-125986793D01*
X134886638Y-125978694D01*
X134723780Y-125946300D01*
X134516220Y-125946300D01*
X134380504Y-125973295D01*
X134312645Y-125986793D01*
X134120889Y-126066222D01*
X134120886Y-126066223D01*
X133948310Y-126181534D01*
X133801534Y-126328310D01*
X133686223Y-126500886D01*
X133686222Y-126500889D01*
X133606793Y-126692645D01*
X133606793Y-126692647D01*
X133566300Y-126896220D01*
X133133700Y-126896220D01*
X133133700Y-126129936D01*
X133128636Y-126104480D01*
X133121882Y-126070525D01*
X133121881Y-126070524D01*
X133121881Y-126070520D01*
X133076860Y-126003140D01*
X133009480Y-125958119D01*
X133009474Y-125958117D01*
X132950066Y-125946300D01*
X132950064Y-125946300D01*
X131209936Y-125946300D01*
X131209934Y-125946300D01*
X131150525Y-125958117D01*
X131150519Y-125958119D01*
X131083141Y-126003139D01*
X131083139Y-126003141D01*
X131038119Y-126070519D01*
X131038117Y-126070525D01*
X131026300Y-126129934D01*
X127594464Y-126129934D01*
X127499113Y-126066223D01*
X127499110Y-126066222D01*
X127307354Y-125986793D01*
X127266638Y-125978694D01*
X127103780Y-125946300D01*
X126896220Y-125946300D01*
X126760504Y-125973295D01*
X126692645Y-125986793D01*
X126500889Y-126066222D01*
X126500886Y-126066223D01*
X126328310Y-126181534D01*
X126181534Y-126328310D01*
X126066223Y-126500886D01*
X126066222Y-126500889D01*
X125986793Y-126692645D01*
X125986793Y-126692647D01*
X125946300Y-126896220D01*
X125513700Y-126896220D01*
X125473207Y-126692647D01*
X125393776Y-126500886D01*
X125278462Y-126328306D01*
X125131694Y-126181538D01*
X125131690Y-126181535D01*
X125131689Y-126181534D01*
X124959113Y-126066223D01*
X124959110Y-126066222D01*
X124767354Y-125986793D01*
X124726638Y-125978694D01*
X124563780Y-125946300D01*
X124356220Y-125946300D01*
X124220504Y-125973295D01*
X124152645Y-125986793D01*
X123960889Y-126066222D01*
X123960886Y-126066223D01*
X123788310Y-126181534D01*
X123641534Y-126328310D01*
X123526223Y-126500886D01*
X123526222Y-126500889D01*
X123446793Y-126692645D01*
X123446793Y-126692647D01*
X123406300Y-126896220D01*
X122973700Y-126896220D01*
X122933207Y-126692647D01*
X122853776Y-126500886D01*
X122738462Y-126328306D01*
X122591694Y-126181538D01*
X122591690Y-126181535D01*
X122591689Y-126181534D01*
X122419113Y-126066223D01*
X122419110Y-126066222D01*
X122227354Y-125986793D01*
X122186638Y-125978694D01*
X122023780Y-125946300D01*
X121816220Y-125946300D01*
X121680504Y-125973295D01*
X121612645Y-125986793D01*
X121420889Y-126066222D01*
X121420886Y-126066223D01*
X121248310Y-126181534D01*
X121101534Y-126328310D01*
X120986223Y-126500886D01*
X120986222Y-126500889D01*
X120906793Y-126692645D01*
X120906793Y-126692647D01*
X120866300Y-126896220D01*
X120433700Y-126896220D01*
X120393207Y-126692647D01*
X120313776Y-126500886D01*
X120198462Y-126328306D01*
X120051694Y-126181538D01*
X120051690Y-126181535D01*
X120051689Y-126181534D01*
X119879113Y-126066223D01*
X119879110Y-126066222D01*
X119687354Y-125986793D01*
X119646638Y-125978694D01*
X119483780Y-125946300D01*
X119276220Y-125946300D01*
X119140504Y-125973295D01*
X119072645Y-125986793D01*
X118880889Y-126066222D01*
X118880886Y-126066223D01*
X118708310Y-126181534D01*
X118561534Y-126328310D01*
X118446223Y-126500886D01*
X118446222Y-126500889D01*
X118366793Y-126692645D01*
X118366793Y-126692647D01*
X118326300Y-126896220D01*
X117893700Y-126896220D01*
X117853207Y-126692647D01*
X117773776Y-126500886D01*
X117658462Y-126328306D01*
X117511694Y-126181538D01*
X117511690Y-126181535D01*
X117511689Y-126181534D01*
X117339113Y-126066223D01*
X117339110Y-126066222D01*
X117147354Y-125986793D01*
X117106638Y-125978694D01*
X116943780Y-125946300D01*
X116736220Y-125946300D01*
X116600504Y-125973295D01*
X116532645Y-125986793D01*
X116340889Y-126066222D01*
X116340886Y-126066223D01*
X116168310Y-126181534D01*
X116021534Y-126328310D01*
X115906223Y-126500886D01*
X115906222Y-126500889D01*
X115826793Y-126692645D01*
X115826793Y-126692647D01*
X115786300Y-126896220D01*
X115353700Y-126896220D01*
X115313207Y-126692647D01*
X115233776Y-126500886D01*
X115118462Y-126328306D01*
X114971694Y-126181538D01*
X114971690Y-126181535D01*
X114971689Y-126181534D01*
X114799113Y-126066223D01*
X114799110Y-126066222D01*
X114607354Y-125986793D01*
X114566638Y-125978694D01*
X114403780Y-125946300D01*
X114196220Y-125946300D01*
X114060504Y-125973295D01*
X113992645Y-125986793D01*
X113800889Y-126066222D01*
X113800886Y-126066223D01*
X113628310Y-126181534D01*
X113481534Y-126328310D01*
X113366223Y-126500886D01*
X113366222Y-126500889D01*
X113286793Y-126692645D01*
X113286793Y-126692647D01*
X113246300Y-126896220D01*
X112813700Y-126896220D01*
X112773207Y-126692647D01*
X112693776Y-126500886D01*
X112578462Y-126328306D01*
X112431694Y-126181538D01*
X112431690Y-126181535D01*
X112431689Y-126181534D01*
X112259113Y-126066223D01*
X112259110Y-126066222D01*
X112067354Y-125986793D01*
X112026638Y-125978694D01*
X111863780Y-125946300D01*
X111656220Y-125946300D01*
X111520504Y-125973295D01*
X111452645Y-125986793D01*
X111260889Y-126066222D01*
X111260886Y-126066223D01*
X111088310Y-126181534D01*
X110941534Y-126328310D01*
X110826223Y-126500886D01*
X110826222Y-126500889D01*
X110746793Y-126692645D01*
X110746793Y-126692647D01*
X110706300Y-126896220D01*
X110273700Y-126896220D01*
X110233207Y-126692647D01*
X110153776Y-126500886D01*
X110038462Y-126328306D01*
X109891694Y-126181538D01*
X109891690Y-126181535D01*
X109891689Y-126181534D01*
X109719113Y-126066223D01*
X109719110Y-126066222D01*
X109527354Y-125986793D01*
X109486638Y-125978694D01*
X109323780Y-125946300D01*
X109116220Y-125946300D01*
X108980504Y-125973295D01*
X108912645Y-125986793D01*
X108720889Y-126066222D01*
X108720886Y-126066223D01*
X108548310Y-126181534D01*
X108401534Y-126328310D01*
X108286223Y-126500886D01*
X108286222Y-126500889D01*
X108206793Y-126692645D01*
X108206793Y-126692647D01*
X108166300Y-126896220D01*
X107733700Y-126896220D01*
X107693207Y-126692647D01*
X107613776Y-126500886D01*
X107498462Y-126328306D01*
X107351694Y-126181538D01*
X107351690Y-126181535D01*
X107351689Y-126181534D01*
X107179113Y-126066223D01*
X107179110Y-126066222D01*
X106987354Y-125986793D01*
X106946638Y-125978694D01*
X106783780Y-125946300D01*
X106576220Y-125946300D01*
X106440504Y-125973295D01*
X106372645Y-125986793D01*
X106180889Y-126066222D01*
X106180886Y-126066223D01*
X106008310Y-126181534D01*
X105861534Y-126328310D01*
X105746223Y-126500886D01*
X105746222Y-126500889D01*
X105666793Y-126692645D01*
X105666793Y-126692647D01*
X105626300Y-126896220D01*
X105193700Y-126896220D01*
X105153207Y-126692647D01*
X105073776Y-126500886D01*
X104958462Y-126328306D01*
X104811694Y-126181538D01*
X104811690Y-126181535D01*
X104811689Y-126181534D01*
X104639113Y-126066223D01*
X104639110Y-126066222D01*
X104447354Y-125986793D01*
X104406638Y-125978694D01*
X104243780Y-125946300D01*
X104036220Y-125946300D01*
X103900504Y-125973295D01*
X103832645Y-125986793D01*
X103640889Y-126066222D01*
X103640886Y-126066223D01*
X103468310Y-126181534D01*
X103321534Y-126328310D01*
X103206223Y-126500886D01*
X103206222Y-126500889D01*
X103126793Y-126692645D01*
X103126793Y-126692647D01*
X103086300Y-126896220D01*
X102653700Y-126896220D01*
X102613207Y-126692647D01*
X102533776Y-126500886D01*
X102418462Y-126328306D01*
X102271694Y-126181538D01*
X102271690Y-126181535D01*
X102271689Y-126181534D01*
X102099113Y-126066223D01*
X102099110Y-126066222D01*
X101907354Y-125986793D01*
X101866638Y-125978694D01*
X101703780Y-125946300D01*
X101496220Y-125946300D01*
X101360504Y-125973295D01*
X101292645Y-125986793D01*
X101100889Y-126066222D01*
X101100886Y-126066223D01*
X100928310Y-126181534D01*
X100781534Y-126328310D01*
X100666223Y-126500886D01*
X100666222Y-126500889D01*
X100586793Y-126692645D01*
X100586793Y-126692647D01*
X100546300Y-126896220D01*
X100113700Y-126896220D01*
X100073207Y-126692647D01*
X99993776Y-126500886D01*
X99878462Y-126328306D01*
X99731694Y-126181538D01*
X99731690Y-126181535D01*
X99731689Y-126181534D01*
X99559113Y-126066223D01*
X99559110Y-126066222D01*
X99367354Y-125986793D01*
X99326638Y-125978694D01*
X99163780Y-125946300D01*
X98956220Y-125946300D01*
X98820504Y-125973295D01*
X98752645Y-125986793D01*
X98560889Y-126066222D01*
X98560886Y-126066223D01*
X98388310Y-126181534D01*
X98241534Y-126328310D01*
X98126223Y-126500886D01*
X98126222Y-126500889D01*
X98046793Y-126692645D01*
X98046793Y-126692647D01*
X98006300Y-126896220D01*
X97573700Y-126896220D01*
X97533207Y-126692647D01*
X97453776Y-126500886D01*
X97338462Y-126328306D01*
X97191694Y-126181538D01*
X97191690Y-126181535D01*
X97191689Y-126181534D01*
X97019113Y-126066223D01*
X97019110Y-126066222D01*
X96827354Y-125986793D01*
X96786638Y-125978694D01*
X96623780Y-125946300D01*
X96416220Y-125946300D01*
X96280504Y-125973295D01*
X96212645Y-125986793D01*
X96020889Y-126066222D01*
X96020886Y-126066223D01*
X95848310Y-126181534D01*
X95701534Y-126328310D01*
X95586223Y-126500886D01*
X95586222Y-126500889D01*
X95506793Y-126692645D01*
X95506793Y-126692647D01*
X95466300Y-126896220D01*
X95033700Y-126896220D01*
X94993207Y-126692647D01*
X94913776Y-126500886D01*
X94798462Y-126328306D01*
X94651694Y-126181538D01*
X94651690Y-126181535D01*
X94651689Y-126181534D01*
X94479113Y-126066223D01*
X94479110Y-126066222D01*
X94287354Y-125986793D01*
X94246638Y-125978694D01*
X94083780Y-125946300D01*
X93876220Y-125946300D01*
X93740504Y-125973295D01*
X93672645Y-125986793D01*
X93480889Y-126066222D01*
X93480886Y-126066223D01*
X93308310Y-126181534D01*
X93161534Y-126328310D01*
X93046223Y-126500886D01*
X93046222Y-126500889D01*
X92966793Y-126692645D01*
X92966793Y-126692647D01*
X92926300Y-126896220D01*
X92493700Y-126896220D01*
X92453207Y-126692647D01*
X92373776Y-126500886D01*
X92258462Y-126328306D01*
X92111694Y-126181538D01*
X92111690Y-126181535D01*
X92111689Y-126181534D01*
X91939113Y-126066223D01*
X91939110Y-126066222D01*
X91747354Y-125986793D01*
X91706638Y-125978694D01*
X91543780Y-125946300D01*
X91336220Y-125946300D01*
X91200504Y-125973295D01*
X91132645Y-125986793D01*
X90940889Y-126066222D01*
X90940886Y-126066223D01*
X90768310Y-126181534D01*
X90621534Y-126328310D01*
X90506223Y-126500886D01*
X90506222Y-126500889D01*
X90426793Y-126692645D01*
X90426793Y-126692647D01*
X90386300Y-126896220D01*
X89953700Y-126896220D01*
X89913207Y-126692647D01*
X89833776Y-126500886D01*
X89718462Y-126328306D01*
X89571694Y-126181538D01*
X89571690Y-126181535D01*
X89571689Y-126181534D01*
X89399113Y-126066223D01*
X89399110Y-126066222D01*
X89207354Y-125986793D01*
X89166638Y-125978694D01*
X89003780Y-125946300D01*
X88796220Y-125946300D01*
X88660504Y-125973295D01*
X88592645Y-125986793D01*
X88400889Y-126066222D01*
X88400886Y-126066223D01*
X88228310Y-126181534D01*
X88081534Y-126328310D01*
X87966223Y-126500886D01*
X87966222Y-126500889D01*
X87886793Y-126692645D01*
X87886793Y-126692647D01*
X87846300Y-126896220D01*
X87413700Y-126896220D01*
X87373207Y-126692647D01*
X87293776Y-126500886D01*
X87178462Y-126328306D01*
X87031694Y-126181538D01*
X87031690Y-126181535D01*
X87031689Y-126181534D01*
X86859113Y-126066223D01*
X86859110Y-126066222D01*
X86667354Y-125986793D01*
X86626638Y-125978694D01*
X86463780Y-125946300D01*
X86256220Y-125946300D01*
X86120504Y-125973295D01*
X86052645Y-125986793D01*
X85860889Y-126066222D01*
X85860886Y-126066223D01*
X85688310Y-126181534D01*
X85541534Y-126328310D01*
X85426223Y-126500886D01*
X85426222Y-126500889D01*
X85346793Y-126692645D01*
X85346793Y-126692647D01*
X85306300Y-126896220D01*
X84873700Y-126896220D01*
X84833207Y-126692647D01*
X84753776Y-126500886D01*
X84638462Y-126328306D01*
X84491694Y-126181538D01*
X84491690Y-126181535D01*
X84491689Y-126181534D01*
X84319113Y-126066223D01*
X84319110Y-126066222D01*
X84127354Y-125986793D01*
X84086638Y-125978694D01*
X83923780Y-125946300D01*
X83716220Y-125946300D01*
X83580504Y-125973295D01*
X83512645Y-125986793D01*
X83320889Y-126066222D01*
X83320886Y-126066223D01*
X83148310Y-126181534D01*
X83001534Y-126328310D01*
X82886223Y-126500886D01*
X82886222Y-126500889D01*
X82806793Y-126692645D01*
X82806793Y-126692647D01*
X82766300Y-126896220D01*
X82333700Y-126896220D01*
X82293207Y-126692647D01*
X82213776Y-126500886D01*
X82098462Y-126328306D01*
X81951694Y-126181538D01*
X81951690Y-126181535D01*
X81951689Y-126181534D01*
X81779113Y-126066223D01*
X81779110Y-126066222D01*
X81587354Y-125986793D01*
X81546638Y-125978694D01*
X81383780Y-125946300D01*
X81176220Y-125946300D01*
X81040504Y-125973295D01*
X80972645Y-125986793D01*
X80780889Y-126066222D01*
X80780886Y-126066223D01*
X80608310Y-126181534D01*
X80461534Y-126328310D01*
X80346223Y-126500886D01*
X80346222Y-126500889D01*
X80266793Y-126692645D01*
X80266793Y-126692647D01*
X80226300Y-126896220D01*
X79793700Y-126896220D01*
X79753207Y-126692647D01*
X79673776Y-126500886D01*
X79558462Y-126328306D01*
X79411694Y-126181538D01*
X79411690Y-126181535D01*
X79411689Y-126181534D01*
X79239113Y-126066223D01*
X79239110Y-126066222D01*
X79047354Y-125986793D01*
X79006638Y-125978694D01*
X78843780Y-125946300D01*
X78636220Y-125946300D01*
X78500504Y-125973295D01*
X78432645Y-125986793D01*
X78240889Y-126066222D01*
X78240886Y-126066223D01*
X78068310Y-126181534D01*
X77921534Y-126328310D01*
X77806223Y-126500886D01*
X77806222Y-126500889D01*
X77726793Y-126692645D01*
X77726793Y-126692647D01*
X77686300Y-126896220D01*
X77253700Y-126896220D01*
X77213207Y-126692647D01*
X77133776Y-126500886D01*
X77018462Y-126328306D01*
X76871694Y-126181538D01*
X76871690Y-126181535D01*
X76871689Y-126181534D01*
X76699113Y-126066223D01*
X76699110Y-126066222D01*
X76507354Y-125986793D01*
X76466638Y-125978694D01*
X76303780Y-125946300D01*
X76096220Y-125946300D01*
X75960504Y-125973295D01*
X75892645Y-125986793D01*
X75700889Y-126066222D01*
X75700886Y-126066223D01*
X75528310Y-126181534D01*
X75381534Y-126328310D01*
X75266223Y-126500886D01*
X75266222Y-126500889D01*
X75186793Y-126692645D01*
X75186793Y-126692647D01*
X75146300Y-126896220D01*
X74713700Y-126896220D01*
X74673207Y-126692647D01*
X74593776Y-126500886D01*
X74478462Y-126328306D01*
X74331694Y-126181538D01*
X74331690Y-126181535D01*
X74331689Y-126181534D01*
X74159113Y-126066223D01*
X74159110Y-126066222D01*
X73967354Y-125986793D01*
X73926638Y-125978694D01*
X73763780Y-125946300D01*
X73556220Y-125946300D01*
X73420504Y-125973295D01*
X73352645Y-125986793D01*
X73160889Y-126066222D01*
X73160886Y-126066223D01*
X72988310Y-126181534D01*
X72841534Y-126328310D01*
X72726223Y-126500886D01*
X72726222Y-126500889D01*
X72646793Y-126692645D01*
X72646793Y-126692647D01*
X72606300Y-126896220D01*
X72173700Y-126896220D01*
X72133207Y-126692647D01*
X72053776Y-126500886D01*
X71938462Y-126328306D01*
X71791694Y-126181538D01*
X71791690Y-126181535D01*
X71791689Y-126181534D01*
X71619113Y-126066223D01*
X71619110Y-126066222D01*
X71427354Y-125986793D01*
X71386638Y-125978694D01*
X71223780Y-125946300D01*
X71016220Y-125946300D01*
X70880504Y-125973295D01*
X70812645Y-125986793D01*
X70620889Y-126066222D01*
X70620886Y-126066223D01*
X70448310Y-126181534D01*
X70301534Y-126328310D01*
X70186223Y-126500886D01*
X70186222Y-126500889D01*
X70106793Y-126692645D01*
X70106793Y-126692647D01*
X70066300Y-126896220D01*
X69633700Y-126896220D01*
X69593207Y-126692647D01*
X69513776Y-126500886D01*
X69398462Y-126328306D01*
X69251694Y-126181538D01*
X69251690Y-126181535D01*
X69251689Y-126181534D01*
X69079113Y-126066223D01*
X69079110Y-126066222D01*
X68887354Y-125986793D01*
X68846638Y-125978694D01*
X68683780Y-125946300D01*
X68476220Y-125946300D01*
X68340504Y-125973295D01*
X68272645Y-125986793D01*
X68080889Y-126066222D01*
X68080886Y-126066223D01*
X67908310Y-126181534D01*
X67761534Y-126328310D01*
X67646223Y-126500886D01*
X67646222Y-126500889D01*
X67566793Y-126692645D01*
X67566793Y-126692647D01*
X67526300Y-126896220D01*
X67093700Y-126896220D01*
X67053207Y-126692647D01*
X66973776Y-126500886D01*
X66858462Y-126328306D01*
X66711694Y-126181538D01*
X66711690Y-126181535D01*
X66711689Y-126181534D01*
X66539113Y-126066223D01*
X66539110Y-126066222D01*
X66347354Y-125986793D01*
X66306638Y-125978694D01*
X66143780Y-125946300D01*
X65936220Y-125946300D01*
X65800504Y-125973295D01*
X65732645Y-125986793D01*
X65540889Y-126066222D01*
X65540886Y-126066223D01*
X65368310Y-126181534D01*
X65221534Y-126328310D01*
X65106223Y-126500886D01*
X65106222Y-126500889D01*
X65026793Y-126692645D01*
X65026793Y-126692647D01*
X64986300Y-126896220D01*
X64553700Y-126896220D01*
X64513207Y-126692647D01*
X64433776Y-126500886D01*
X64318462Y-126328306D01*
X64171694Y-126181538D01*
X64171690Y-126181535D01*
X64171689Y-126181534D01*
X63999113Y-126066223D01*
X63999110Y-126066222D01*
X63807354Y-125986793D01*
X63766638Y-125978694D01*
X63603780Y-125946300D01*
X63396220Y-125946300D01*
X63260504Y-125973295D01*
X63192645Y-125986793D01*
X63000889Y-126066222D01*
X63000886Y-126066223D01*
X62828310Y-126181534D01*
X62681534Y-126328310D01*
X62566223Y-126500886D01*
X62566222Y-126500889D01*
X62486793Y-126692645D01*
X62486793Y-126692647D01*
X62446300Y-126896220D01*
X62013700Y-126896220D01*
X61973207Y-126692647D01*
X61893776Y-126500886D01*
X61778462Y-126328306D01*
X61631694Y-126181538D01*
X61631690Y-126181535D01*
X61631689Y-126181534D01*
X61459113Y-126066223D01*
X61459110Y-126066222D01*
X61267354Y-125986793D01*
X61226638Y-125978694D01*
X61063780Y-125946300D01*
X60856220Y-125946300D01*
X60720504Y-125973295D01*
X60652645Y-125986793D01*
X60460889Y-126066222D01*
X60460886Y-126066223D01*
X60288310Y-126181534D01*
X60141534Y-126328310D01*
X60026223Y-126500886D01*
X60026222Y-126500889D01*
X59946793Y-126692645D01*
X59946793Y-126692647D01*
X59906300Y-126896220D01*
X59473700Y-126896220D01*
X59433207Y-126692647D01*
X59353776Y-126500886D01*
X59238462Y-126328306D01*
X59091694Y-126181538D01*
X59091690Y-126181535D01*
X59091689Y-126181534D01*
X58919113Y-126066223D01*
X58919110Y-126066222D01*
X58727354Y-125986793D01*
X58686638Y-125978694D01*
X58523780Y-125946300D01*
X58316220Y-125946300D01*
X58180504Y-125973295D01*
X58112645Y-125986793D01*
X57920889Y-126066222D01*
X57920886Y-126066223D01*
X57748310Y-126181534D01*
X57601534Y-126328310D01*
X57486223Y-126500886D01*
X57486222Y-126500889D01*
X57406793Y-126692645D01*
X57406793Y-126692647D01*
X57366300Y-126896220D01*
X56933700Y-126896220D01*
X56893207Y-126692647D01*
X56813776Y-126500886D01*
X56698462Y-126328306D01*
X56551694Y-126181538D01*
X56551690Y-126181535D01*
X56551689Y-126181534D01*
X56379113Y-126066223D01*
X56379110Y-126066222D01*
X56187354Y-125986793D01*
X56146638Y-125978694D01*
X55983780Y-125946300D01*
X55776220Y-125946300D01*
X55640504Y-125973295D01*
X55572645Y-125986793D01*
X55380889Y-126066222D01*
X55380886Y-126066223D01*
X55208310Y-126181534D01*
X55061534Y-126328310D01*
X54946223Y-126500886D01*
X54946222Y-126500889D01*
X54866793Y-126692645D01*
X54866793Y-126692647D01*
X54826300Y-126896220D01*
X54393700Y-126896220D01*
X54353207Y-126692647D01*
X54273776Y-126500886D01*
X54158462Y-126328306D01*
X54011694Y-126181538D01*
X54011690Y-126181535D01*
X54011689Y-126181534D01*
X53839113Y-126066223D01*
X53839110Y-126066222D01*
X53647354Y-125986793D01*
X53606638Y-125978694D01*
X53443780Y-125946300D01*
X53236220Y-125946300D01*
X53100504Y-125973295D01*
X53032645Y-125986793D01*
X52840889Y-126066222D01*
X52840886Y-126066223D01*
X52668310Y-126181534D01*
X52521534Y-126328310D01*
X52406223Y-126500886D01*
X52406222Y-126500889D01*
X52326793Y-126692645D01*
X52326793Y-126692647D01*
X52286300Y-126896220D01*
X51853700Y-126896220D01*
X51813207Y-126692647D01*
X51733776Y-126500886D01*
X51618462Y-126328306D01*
X51471694Y-126181538D01*
X51471690Y-126181535D01*
X51471689Y-126181534D01*
X51299113Y-126066223D01*
X51299110Y-126066222D01*
X51107354Y-125986793D01*
X51066638Y-125978694D01*
X50903780Y-125946300D01*
X50696220Y-125946300D01*
X50560504Y-125973295D01*
X50492645Y-125986793D01*
X50300889Y-126066222D01*
X50300886Y-126066223D01*
X50128310Y-126181534D01*
X49981534Y-126328310D01*
X49866223Y-126500886D01*
X49866222Y-126500889D01*
X49786793Y-126692645D01*
X49786793Y-126692647D01*
X49746300Y-126896220D01*
X49313700Y-126896220D01*
X49273207Y-126692647D01*
X49193776Y-126500886D01*
X49078462Y-126328306D01*
X48931694Y-126181538D01*
X48931690Y-126181535D01*
X48931689Y-126181534D01*
X48759113Y-126066223D01*
X48759110Y-126066222D01*
X48567354Y-125986793D01*
X48526638Y-125978694D01*
X48363780Y-125946300D01*
X48156220Y-125946300D01*
X48020504Y-125973295D01*
X47952645Y-125986793D01*
X47760889Y-126066222D01*
X47760886Y-126066223D01*
X47588310Y-126181534D01*
X47441534Y-126328310D01*
X47326223Y-126500886D01*
X47326222Y-126500889D01*
X47246793Y-126692645D01*
X47246793Y-126692647D01*
X47206300Y-126896220D01*
X46773700Y-126896220D01*
X46733207Y-126692647D01*
X46653776Y-126500886D01*
X46538462Y-126328306D01*
X46391694Y-126181538D01*
X46391690Y-126181535D01*
X46391689Y-126181534D01*
X46219113Y-126066223D01*
X46219110Y-126066222D01*
X46027354Y-125986793D01*
X45986638Y-125978694D01*
X45823780Y-125946300D01*
X45616220Y-125946300D01*
X45480504Y-125973295D01*
X45412645Y-125986793D01*
X45220889Y-126066222D01*
X45220886Y-126066223D01*
X45048310Y-126181534D01*
X44901534Y-126328310D01*
X44786223Y-126500886D01*
X44786222Y-126500889D01*
X44706793Y-126692645D01*
X44706793Y-126692647D01*
X44666300Y-126896220D01*
X44233700Y-126896220D01*
X44193207Y-126692647D01*
X44113776Y-126500886D01*
X43998462Y-126328306D01*
X43851694Y-126181538D01*
X43851690Y-126181535D01*
X43851689Y-126181534D01*
X43679113Y-126066223D01*
X43679110Y-126066222D01*
X43487354Y-125986793D01*
X43446638Y-125978694D01*
X43283780Y-125946300D01*
X43076220Y-125946300D01*
X42940504Y-125973295D01*
X42872645Y-125986793D01*
X42680889Y-126066222D01*
X42680886Y-126066223D01*
X42508310Y-126181534D01*
X42361534Y-126328310D01*
X42246223Y-126500886D01*
X42246222Y-126500889D01*
X42166793Y-126692645D01*
X42166793Y-126692647D01*
X42126300Y-126896220D01*
X41693700Y-126896220D01*
X41653207Y-126692647D01*
X41573776Y-126500886D01*
X41458462Y-126328306D01*
X41311694Y-126181538D01*
X41311690Y-126181535D01*
X41311689Y-126181534D01*
X41139113Y-126066223D01*
X41139110Y-126066222D01*
X40947354Y-125986793D01*
X40906638Y-125978694D01*
X40743780Y-125946300D01*
X40536220Y-125946300D01*
X40400504Y-125973295D01*
X40332645Y-125986793D01*
X40140889Y-126066222D01*
X40140886Y-126066223D01*
X39968310Y-126181534D01*
X39821534Y-126328310D01*
X39706223Y-126500886D01*
X39706222Y-126500889D01*
X39626793Y-126692645D01*
X39626793Y-126692647D01*
X39586300Y-126896220D01*
X39153700Y-126896220D01*
X39113207Y-126692647D01*
X39033776Y-126500886D01*
X38918462Y-126328306D01*
X38771694Y-126181538D01*
X38771690Y-126181535D01*
X38771689Y-126181534D01*
X38599113Y-126066223D01*
X38599110Y-126066222D01*
X38407354Y-125986793D01*
X38366638Y-125978694D01*
X38203780Y-125946300D01*
X37996220Y-125946300D01*
X37860504Y-125973295D01*
X37792645Y-125986793D01*
X37600889Y-126066222D01*
X37600886Y-126066223D01*
X37428310Y-126181534D01*
X37281534Y-126328310D01*
X37166223Y-126500886D01*
X37166222Y-126500889D01*
X37086793Y-126692645D01*
X37086793Y-126692647D01*
X37046300Y-126896220D01*
X36613700Y-126896220D01*
X36573207Y-126692647D01*
X36493776Y-126500886D01*
X36378462Y-126328306D01*
X36231694Y-126181538D01*
X36231690Y-126181535D01*
X36231689Y-126181534D01*
X36059113Y-126066223D01*
X36059110Y-126066222D01*
X35867354Y-125986793D01*
X35826638Y-125978694D01*
X35663780Y-125946300D01*
X35456220Y-125946300D01*
X35320504Y-125973295D01*
X35252645Y-125986793D01*
X35060889Y-126066222D01*
X35060886Y-126066223D01*
X34888310Y-126181534D01*
X34741534Y-126328310D01*
X34626223Y-126500886D01*
X34626222Y-126500889D01*
X34546793Y-126692645D01*
X34546793Y-126692647D01*
X34506300Y-126896220D01*
X34073700Y-126896220D01*
X34033207Y-126692647D01*
X33953776Y-126500886D01*
X33838462Y-126328306D01*
X33691694Y-126181538D01*
X33691690Y-126181535D01*
X33691689Y-126181534D01*
X33519113Y-126066223D01*
X33519110Y-126066222D01*
X33327354Y-125986793D01*
X33286638Y-125978694D01*
X33123780Y-125946300D01*
X32916220Y-125946300D01*
X32780504Y-125973295D01*
X32712645Y-125986793D01*
X32520889Y-126066222D01*
X32520886Y-126066223D01*
X32348310Y-126181534D01*
X32201534Y-126328310D01*
X32086223Y-126500886D01*
X32086222Y-126500889D01*
X32006793Y-126692645D01*
X32006793Y-126692647D01*
X31966300Y-126896220D01*
X31533700Y-126896220D01*
X31493207Y-126692647D01*
X31413776Y-126500886D01*
X31298462Y-126328306D01*
X31151694Y-126181538D01*
X31151690Y-126181535D01*
X31151689Y-126181534D01*
X30979113Y-126066223D01*
X30979110Y-126066222D01*
X30787354Y-125986793D01*
X30746638Y-125978694D01*
X30583780Y-125946300D01*
X30376220Y-125946300D01*
X30240504Y-125973295D01*
X30172645Y-125986793D01*
X29980889Y-126066222D01*
X29980886Y-126066223D01*
X29808310Y-126181534D01*
X29661534Y-126328310D01*
X29546223Y-126500886D01*
X29546222Y-126500889D01*
X29466793Y-126692645D01*
X29466793Y-126692647D01*
X29426300Y-126896220D01*
X28429830Y-126896220D01*
X28417619Y-126850648D01*
X29094798Y-126850648D01*
X29094799Y-126850647D01*
X29094799Y-126104484D01*
X29094798Y-126104480D01*
X29091844Y-126079008D01*
X29045817Y-125974766D01*
X28965234Y-125894183D01*
X28860990Y-125848155D01*
X28835510Y-125845200D01*
X28089353Y-125845200D01*
X28089352Y-125845201D01*
X28089352Y-126522381D01*
X28005826Y-126500000D01*
X27874174Y-126500000D01*
X27790648Y-126522381D01*
X27790648Y-125845201D01*
X27790647Y-125845200D01*
X27044484Y-125845200D01*
X27044480Y-125845201D01*
X27019008Y-125848155D01*
X26914766Y-125894182D01*
X26834183Y-125974765D01*
X26788155Y-126079009D01*
X26785200Y-126104489D01*
X25600500Y-126104489D01*
X25600500Y-84319130D01*
X34396500Y-84319130D01*
X34396500Y-86233869D01*
X34396501Y-86233909D01*
X34399255Y-86280140D01*
X34443047Y-86481448D01*
X34443048Y-86481449D01*
X34524141Y-86670818D01*
X34524142Y-86670819D01*
X34639607Y-86841420D01*
X34639609Y-86841422D01*
X34785278Y-86987091D01*
X34955882Y-87102559D01*
X35145256Y-87183654D01*
X35346555Y-87227444D01*
X35392822Y-87230200D01*
X35392830Y-87230200D01*
X37307570Y-87230200D01*
X37307578Y-87230200D01*
X37353845Y-87227444D01*
X37555144Y-87183654D01*
X37744518Y-87102559D01*
X37915122Y-86987091D01*
X38060791Y-86841422D01*
X38176259Y-86670818D01*
X38257354Y-86481444D01*
X38301144Y-86280145D01*
X38303900Y-86233878D01*
X38303900Y-84319122D01*
X38301144Y-84272855D01*
X38257354Y-84071556D01*
X38176259Y-83882182D01*
X38060791Y-83711578D01*
X37915122Y-83565909D01*
X37915120Y-83565907D01*
X37744519Y-83450442D01*
X37744520Y-83450442D01*
X37744518Y-83450441D01*
X37555149Y-83369348D01*
X37555148Y-83369347D01*
X37555144Y-83369346D01*
X37353845Y-83325556D01*
X37353844Y-83325555D01*
X37353840Y-83325555D01*
X37307609Y-83322801D01*
X37307584Y-83322800D01*
X37307578Y-83322800D01*
X35392822Y-83322800D01*
X35392816Y-83322800D01*
X35392790Y-83322801D01*
X35346559Y-83325555D01*
X35145251Y-83369347D01*
X35145250Y-83369348D01*
X34955880Y-83450442D01*
X34785279Y-83565907D01*
X34639607Y-83711579D01*
X34524142Y-83882180D01*
X34443048Y-84071550D01*
X34443047Y-84071551D01*
X34399255Y-84272859D01*
X34396501Y-84319090D01*
X34396500Y-84319130D01*
X25600500Y-84319130D01*
X25600500Y-79521179D01*
X31646500Y-79521179D01*
X31646500Y-81631820D01*
X31656616Y-81745614D01*
X31709978Y-81932101D01*
X31709981Y-81932109D01*
X31799777Y-82104015D01*
X31799779Y-82104018D01*
X31799781Y-82104021D01*
X31922355Y-82254345D01*
X32072679Y-82376919D01*
X32072681Y-82376920D01*
X32072684Y-82376922D01*
X32244590Y-82466718D01*
X32244595Y-82466719D01*
X32244601Y-82466723D01*
X32431081Y-82520082D01*
X32431085Y-82520083D01*
X32492198Y-82525515D01*
X32544884Y-82530200D01*
X32544894Y-82530200D01*
X34155506Y-82530200D01*
X34155516Y-82530200D01*
X34216633Y-82524766D01*
X34269314Y-82520083D01*
X34269316Y-82520082D01*
X34269319Y-82520082D01*
X34455799Y-82466723D01*
X34627721Y-82376919D01*
X34778045Y-82254345D01*
X34900619Y-82104021D01*
X34990423Y-81932099D01*
X35043782Y-81745619D01*
X35043782Y-81745616D01*
X35043783Y-81745614D01*
X35048466Y-81692933D01*
X35053900Y-81631816D01*
X35053900Y-79521184D01*
X35049215Y-79468498D01*
X35043783Y-79407385D01*
X35043782Y-79407381D01*
X34990423Y-79220901D01*
X34990419Y-79220895D01*
X34990418Y-79220890D01*
X34900622Y-79048984D01*
X34900620Y-79048981D01*
X34900619Y-79048979D01*
X34778045Y-78898655D01*
X34633740Y-78780989D01*
X37295400Y-78780989D01*
X37295400Y-80427147D01*
X37295401Y-80427148D01*
X38850200Y-80427148D01*
X38850200Y-80725852D01*
X37295402Y-80725852D01*
X37295401Y-80725853D01*
X37295401Y-82372019D01*
X37298355Y-82397491D01*
X37344382Y-82501733D01*
X37424965Y-82582316D01*
X37529209Y-82628344D01*
X37554689Y-82631299D01*
X39200846Y-82631299D01*
X39200848Y-82631298D01*
X39200848Y-82054118D01*
X39284374Y-82076500D01*
X39416026Y-82076500D01*
X39499552Y-82054118D01*
X39499552Y-82631298D01*
X39499553Y-82631299D01*
X41145716Y-82631299D01*
X41145719Y-82631298D01*
X41171191Y-82628344D01*
X41275433Y-82582317D01*
X41356016Y-82501734D01*
X41402044Y-82397490D01*
X41405000Y-82372010D01*
X41405000Y-80725853D01*
X41404999Y-80725852D01*
X39850200Y-80725852D01*
X39850200Y-80427148D01*
X41404998Y-80427148D01*
X41404999Y-80427147D01*
X41404999Y-78780984D01*
X41404998Y-78780980D01*
X41402044Y-78755508D01*
X41356017Y-78651266D01*
X41275434Y-78570683D01*
X41171190Y-78524655D01*
X41145710Y-78521700D01*
X39499553Y-78521700D01*
X39499552Y-78521701D01*
X39499552Y-79098881D01*
X39416026Y-79076500D01*
X39284374Y-79076500D01*
X39200848Y-79098881D01*
X39200848Y-78521701D01*
X39200847Y-78521700D01*
X37554684Y-78521700D01*
X37554680Y-78521701D01*
X37529208Y-78524655D01*
X37424966Y-78570682D01*
X37344383Y-78651265D01*
X37298355Y-78755509D01*
X37295400Y-78780989D01*
X34633740Y-78780989D01*
X34627721Y-78776081D01*
X34627719Y-78776080D01*
X34627718Y-78776079D01*
X34627715Y-78776077D01*
X34455809Y-78686281D01*
X34455801Y-78686278D01*
X34455800Y-78686277D01*
X34455799Y-78686277D01*
X34375798Y-78663385D01*
X34269314Y-78632916D01*
X34155520Y-78622800D01*
X34155516Y-78622800D01*
X32544884Y-78622800D01*
X32544879Y-78622800D01*
X32431085Y-78632916D01*
X32244598Y-78686278D01*
X32244590Y-78686281D01*
X32072684Y-78776077D01*
X32072681Y-78776079D01*
X31922358Y-78898652D01*
X31922352Y-78898658D01*
X31799779Y-79048981D01*
X31799777Y-79048984D01*
X31709981Y-79220890D01*
X31709978Y-79220898D01*
X31656616Y-79407385D01*
X31646500Y-79521179D01*
X25600500Y-79521179D01*
X25600500Y-71123241D01*
X25600641Y-71116770D01*
X25607274Y-70964856D01*
X25607801Y-70952783D01*
X27076300Y-70952783D01*
X27076300Y-71287216D01*
X27109078Y-71620024D01*
X27109081Y-71620044D01*
X27174318Y-71948006D01*
X27174325Y-71948038D01*
X27271399Y-72268050D01*
X27271402Y-72268059D01*
X27399374Y-72577009D01*
X27399380Y-72577022D01*
X27399381Y-72577024D01*
X27528262Y-72818145D01*
X27557032Y-72871969D01*
X27557036Y-72871975D01*
X27635236Y-72989009D01*
X27742825Y-73150027D01*
X27954983Y-73408542D01*
X28191458Y-73645017D01*
X28449973Y-73857175D01*
X28505726Y-73894428D01*
X28728024Y-74042963D01*
X28728030Y-74042967D01*
X28728032Y-74042968D01*
X28728038Y-74042972D01*
X29022976Y-74200619D01*
X29022986Y-74200623D01*
X29022990Y-74200625D01*
X29114346Y-74238466D01*
X29331945Y-74328599D01*
X29651971Y-74425677D01*
X29872757Y-74469594D01*
X29979955Y-74490918D01*
X29979958Y-74490918D01*
X29979971Y-74490921D01*
X30312787Y-74523700D01*
X30312789Y-74523700D01*
X30647211Y-74523700D01*
X30647213Y-74523700D01*
X30980029Y-74490921D01*
X31308029Y-74425677D01*
X31628055Y-74328599D01*
X31937024Y-74200619D01*
X32231962Y-74042972D01*
X32510027Y-73857175D01*
X32768542Y-73645017D01*
X33005017Y-73408542D01*
X33217175Y-73150027D01*
X33307739Y-73014489D01*
X44556200Y-73014489D01*
X44556200Y-73510647D01*
X44556201Y-73510648D01*
X45200818Y-73510648D01*
X45181444Y-73544204D01*
X45161000Y-73620504D01*
X45161000Y-73699496D01*
X45181444Y-73775796D01*
X45200818Y-73809352D01*
X44556202Y-73809352D01*
X44556201Y-73809353D01*
X44556201Y-74305519D01*
X44559155Y-74330991D01*
X44605182Y-74435233D01*
X44685765Y-74515816D01*
X44790009Y-74561844D01*
X44815489Y-74564799D01*
X45311648Y-74564799D01*
X45311648Y-73920182D01*
X45345204Y-73939556D01*
X45421504Y-73960000D01*
X45500496Y-73960000D01*
X45576796Y-73939556D01*
X45610352Y-73920182D01*
X45610352Y-74564798D01*
X45610353Y-74564799D01*
X46106516Y-74564799D01*
X46106519Y-74564798D01*
X46131991Y-74561844D01*
X46236233Y-74515817D01*
X46316816Y-74435234D01*
X46327003Y-74412162D01*
X46375144Y-74352333D01*
X46446750Y-74324591D01*
X46522635Y-74336368D01*
X46545133Y-74348729D01*
X46580305Y-74372230D01*
X46726569Y-74432814D01*
X46881842Y-74463700D01*
X46881846Y-74463700D01*
X47040154Y-74463700D01*
X47040158Y-74463700D01*
X47195431Y-74432814D01*
X47341695Y-74372230D01*
X47473329Y-74284275D01*
X47585275Y-74172329D01*
X47673230Y-74040695D01*
X47733814Y-73894431D01*
X47764700Y-73739158D01*
X47764700Y-73580842D01*
X47733814Y-73425569D01*
X47673230Y-73279305D01*
X47614194Y-73190952D01*
X47585278Y-73147675D01*
X47585277Y-73147674D01*
X47585275Y-73147671D01*
X47473329Y-73035725D01*
X47473325Y-73035722D01*
X47473324Y-73035721D01*
X47376864Y-72971269D01*
X47341695Y-72947770D01*
X47341690Y-72947768D01*
X47245297Y-72907841D01*
X47195431Y-72887186D01*
X47195429Y-72887185D01*
X47195423Y-72887183D01*
X47150012Y-72878150D01*
X47150004Y-72878150D01*
X47040158Y-72856300D01*
X46881842Y-72856300D01*
X46793462Y-72873880D01*
X46726571Y-72887185D01*
X46580307Y-72947768D01*
X46545136Y-72971269D01*
X46472418Y-72995952D01*
X46397101Y-72980970D01*
X46339366Y-72930337D01*
X46327006Y-72907841D01*
X46316817Y-72884766D01*
X46236234Y-72804183D01*
X46131990Y-72758155D01*
X46106510Y-72755200D01*
X45610353Y-72755200D01*
X45610352Y-72755201D01*
X45610352Y-73399817D01*
X45576796Y-73380444D01*
X45500496Y-73360000D01*
X45421504Y-73360000D01*
X45345204Y-73380444D01*
X45311648Y-73399817D01*
X45311648Y-72755201D01*
X45311647Y-72755200D01*
X44815484Y-72755200D01*
X44815480Y-72755201D01*
X44790008Y-72758155D01*
X44685766Y-72804182D01*
X44605183Y-72884765D01*
X44559155Y-72989009D01*
X44556200Y-73014489D01*
X33307739Y-73014489D01*
X33324764Y-72989009D01*
X33365675Y-72927782D01*
X33402963Y-72871975D01*
X33402967Y-72871969D01*
X33402972Y-72871962D01*
X33473542Y-72739934D01*
X49437300Y-72739934D01*
X49437300Y-74580065D01*
X49449117Y-74639474D01*
X49449119Y-74639480D01*
X49494140Y-74706860D01*
X49561520Y-74751881D01*
X49561524Y-74751881D01*
X49561525Y-74751882D01*
X49620934Y-74763700D01*
X49620936Y-74763700D01*
X51461066Y-74763700D01*
X51501033Y-74755749D01*
X51520480Y-74751881D01*
X51587860Y-74706860D01*
X51632881Y-74639480D01*
X51644700Y-74580064D01*
X51644700Y-73573137D01*
X51977300Y-73573137D01*
X51977300Y-73746863D01*
X51987198Y-73809353D01*
X52004476Y-73918446D01*
X52004478Y-73918455D01*
X52058160Y-74083671D01*
X52058164Y-74083681D01*
X52137031Y-74238466D01*
X52239140Y-74379006D01*
X52239142Y-74379008D01*
X52239145Y-74379012D01*
X52361988Y-74501855D01*
X52361991Y-74501857D01*
X52361993Y-74501859D01*
X52502533Y-74603968D01*
X52502535Y-74603969D01*
X52657326Y-74682839D01*
X52822550Y-74736523D01*
X52994137Y-74763700D01*
X52994141Y-74763700D01*
X53167859Y-74763700D01*
X53167863Y-74763700D01*
X53339450Y-74736523D01*
X53504674Y-74682839D01*
X53659465Y-74603969D01*
X53800012Y-74501855D01*
X53922855Y-74379012D01*
X54024969Y-74238465D01*
X54103839Y-74083674D01*
X54157523Y-73918450D01*
X54184700Y-73746863D01*
X54184700Y-73573137D01*
X54157523Y-73401550D01*
X54103839Y-73236326D01*
X54024969Y-73081535D01*
X53927782Y-72947770D01*
X53922859Y-72940993D01*
X53922857Y-72940991D01*
X53922855Y-72940988D01*
X53800012Y-72818145D01*
X53800008Y-72818142D01*
X53800006Y-72818140D01*
X53659466Y-72716031D01*
X53504681Y-72637164D01*
X53504675Y-72637161D01*
X53504674Y-72637161D01*
X53504671Y-72637160D01*
X53339455Y-72583478D01*
X53339446Y-72583476D01*
X53276567Y-72573517D01*
X53167863Y-72556300D01*
X52994137Y-72556300D01*
X52919516Y-72568119D01*
X52822553Y-72583476D01*
X52822544Y-72583478D01*
X52657328Y-72637160D01*
X52657318Y-72637164D01*
X52502533Y-72716031D01*
X52361993Y-72818140D01*
X52239140Y-72940993D01*
X52137031Y-73081533D01*
X52058164Y-73236318D01*
X52058160Y-73236328D01*
X52004478Y-73401544D01*
X52004476Y-73401553D01*
X52000672Y-73425571D01*
X51977300Y-73573137D01*
X51644700Y-73573137D01*
X51644700Y-72739936D01*
X51632881Y-72680520D01*
X51587860Y-72613140D01*
X51520480Y-72568119D01*
X51520474Y-72568117D01*
X51461066Y-72556300D01*
X51461064Y-72556300D01*
X49620936Y-72556300D01*
X49620934Y-72556300D01*
X49561525Y-72568117D01*
X49561519Y-72568119D01*
X49494141Y-72613139D01*
X49494139Y-72613141D01*
X49449119Y-72680519D01*
X49449117Y-72680525D01*
X49437300Y-72739934D01*
X33473542Y-72739934D01*
X33560619Y-72577024D01*
X33688599Y-72268055D01*
X33785677Y-71948029D01*
X33850921Y-71620029D01*
X33883700Y-71287213D01*
X33883700Y-70952787D01*
X33850921Y-70619971D01*
X33785677Y-70291971D01*
X33703325Y-70020489D01*
X38006200Y-70020489D01*
X38006200Y-70716647D01*
X38006201Y-70716648D01*
X38736908Y-70716648D01*
X38711000Y-70813339D01*
X38711000Y-70918661D01*
X38736908Y-71015352D01*
X38006202Y-71015352D01*
X38006201Y-71015353D01*
X38006201Y-71711519D01*
X38009155Y-71736991D01*
X38055182Y-71841233D01*
X38135765Y-71921816D01*
X38240009Y-71967844D01*
X38265489Y-71970799D01*
X38961648Y-71970799D01*
X38961648Y-71240091D01*
X39058339Y-71266000D01*
X39163661Y-71266000D01*
X39260352Y-71240091D01*
X39260352Y-71970798D01*
X39260353Y-71970799D01*
X39956516Y-71970799D01*
X39956519Y-71970798D01*
X39981991Y-71967844D01*
X40086233Y-71921817D01*
X40166816Y-71841234D01*
X40212844Y-71736990D01*
X40215800Y-71711510D01*
X40215800Y-71015353D01*
X40215799Y-71015352D01*
X39485092Y-71015352D01*
X39511000Y-70918661D01*
X39511000Y-70813339D01*
X39498622Y-70767143D01*
X40607300Y-70767143D01*
X40607300Y-70964856D01*
X40645870Y-71158763D01*
X40645871Y-71158765D01*
X40721532Y-71341428D01*
X40721533Y-71341430D01*
X40831372Y-71505816D01*
X40831373Y-71505817D01*
X40831376Y-71505821D01*
X40971179Y-71645624D01*
X41135570Y-71755467D01*
X41318232Y-71831128D01*
X41318235Y-71831128D01*
X41318236Y-71831129D01*
X41512143Y-71869700D01*
X41512144Y-71869700D01*
X41709857Y-71869700D01*
X41903763Y-71831129D01*
X41903763Y-71831128D01*
X41903768Y-71831128D01*
X42086430Y-71755467D01*
X42250821Y-71645624D01*
X42390624Y-71505821D01*
X42500467Y-71341430D01*
X42576128Y-71158768D01*
X42614700Y-70964856D01*
X42614700Y-70952783D01*
X169316300Y-70952783D01*
X169316300Y-71287216D01*
X169349078Y-71620024D01*
X169349081Y-71620044D01*
X169414318Y-71948006D01*
X169414325Y-71948038D01*
X169511399Y-72268050D01*
X169511402Y-72268059D01*
X169639374Y-72577009D01*
X169639380Y-72577022D01*
X169639381Y-72577024D01*
X169768262Y-72818145D01*
X169797032Y-72871969D01*
X169797036Y-72871975D01*
X169875236Y-72989009D01*
X169982825Y-73150027D01*
X170194983Y-73408542D01*
X170431458Y-73645017D01*
X170689973Y-73857175D01*
X170745726Y-73894428D01*
X170968024Y-74042963D01*
X170968030Y-74042967D01*
X170968032Y-74042968D01*
X170968038Y-74042972D01*
X171262976Y-74200619D01*
X171262986Y-74200623D01*
X171262990Y-74200625D01*
X171354346Y-74238466D01*
X171571945Y-74328599D01*
X171891971Y-74425677D01*
X172112757Y-74469594D01*
X172219955Y-74490918D01*
X172219958Y-74490918D01*
X172219971Y-74490921D01*
X172552787Y-74523700D01*
X172552789Y-74523700D01*
X172887211Y-74523700D01*
X172887213Y-74523700D01*
X173220029Y-74490921D01*
X173548029Y-74425677D01*
X173868055Y-74328599D01*
X174177024Y-74200619D01*
X174471962Y-74042972D01*
X174750027Y-73857175D01*
X175008542Y-73645017D01*
X175245017Y-73408542D01*
X175457175Y-73150027D01*
X175642972Y-72871962D01*
X175800619Y-72577024D01*
X175928599Y-72268055D01*
X176025677Y-71948029D01*
X176090921Y-71620029D01*
X176123700Y-71287213D01*
X176123700Y-70952787D01*
X176090921Y-70619971D01*
X176025677Y-70291971D01*
X175928599Y-69971945D01*
X175928597Y-69971940D01*
X175800625Y-69662990D01*
X175800623Y-69662986D01*
X175800619Y-69662976D01*
X175642972Y-69368038D01*
X175617355Y-69329700D01*
X175509775Y-69168695D01*
X175457175Y-69089973D01*
X175245017Y-68831458D01*
X175008542Y-68594983D01*
X174750027Y-68382825D01*
X174692430Y-68344340D01*
X174471975Y-68197036D01*
X174471969Y-68197032D01*
X174433833Y-68176648D01*
X174177024Y-68039381D01*
X174177022Y-68039380D01*
X174177009Y-68039374D01*
X173868059Y-67911402D01*
X173868050Y-67911399D01*
X173548038Y-67814325D01*
X173548006Y-67814318D01*
X173220044Y-67749081D01*
X173220024Y-67749078D01*
X172887216Y-67716300D01*
X172887213Y-67716300D01*
X172552787Y-67716300D01*
X172552783Y-67716300D01*
X172219975Y-67749078D01*
X172219955Y-67749081D01*
X171891993Y-67814318D01*
X171891961Y-67814325D01*
X171571949Y-67911399D01*
X171571940Y-67911402D01*
X171262990Y-68039374D01*
X171262973Y-68039382D01*
X170968030Y-68197032D01*
X170968024Y-68197036D01*
X170689981Y-68382819D01*
X170689980Y-68382820D01*
X170689973Y-68382825D01*
X170571085Y-68480394D01*
X170431453Y-68594987D01*
X170194987Y-68831453D01*
X170194983Y-68831458D01*
X169982825Y-69089973D01*
X169982822Y-69089976D01*
X169982819Y-69089981D01*
X169797036Y-69368024D01*
X169797032Y-69368030D01*
X169639382Y-69662973D01*
X169639374Y-69662990D01*
X169511402Y-69971940D01*
X169511399Y-69971949D01*
X169414325Y-70291961D01*
X169414318Y-70291993D01*
X169349081Y-70619955D01*
X169349078Y-70619975D01*
X169316300Y-70952783D01*
X42614700Y-70952783D01*
X42614700Y-70767144D01*
X42604656Y-70716648D01*
X42576129Y-70573236D01*
X42576128Y-70573234D01*
X42576128Y-70573232D01*
X42500467Y-70390570D01*
X42390624Y-70226179D01*
X42250821Y-70086376D01*
X42250817Y-70086373D01*
X42250816Y-70086372D01*
X42086430Y-69976533D01*
X42086428Y-69976532D01*
X42010766Y-69945192D01*
X41903768Y-69900872D01*
X41903766Y-69900871D01*
X41903765Y-69900871D01*
X41903763Y-69900870D01*
X41709857Y-69862300D01*
X41709856Y-69862300D01*
X41512144Y-69862300D01*
X41512143Y-69862300D01*
X41318236Y-69900870D01*
X41318234Y-69900871D01*
X41135571Y-69976532D01*
X41135569Y-69976533D01*
X40971183Y-70086372D01*
X40831372Y-70226183D01*
X40721533Y-70390569D01*
X40721532Y-70390571D01*
X40645871Y-70573234D01*
X40645870Y-70573236D01*
X40607300Y-70767143D01*
X39498622Y-70767143D01*
X39485092Y-70716648D01*
X40215798Y-70716648D01*
X40215799Y-70716647D01*
X40215799Y-70020484D01*
X40215798Y-70020480D01*
X40212844Y-69995008D01*
X40166817Y-69890766D01*
X40086234Y-69810183D01*
X39981990Y-69764155D01*
X39956510Y-69761200D01*
X39260353Y-69761200D01*
X39260352Y-69761201D01*
X39260352Y-70491908D01*
X39163661Y-70466000D01*
X39058339Y-70466000D01*
X38961648Y-70491908D01*
X38961648Y-69761201D01*
X38961647Y-69761200D01*
X38265484Y-69761200D01*
X38265480Y-69761201D01*
X38240008Y-69764155D01*
X38135766Y-69810182D01*
X38055183Y-69890765D01*
X38009155Y-69995009D01*
X38006200Y-70020489D01*
X33703325Y-70020489D01*
X33689991Y-69976533D01*
X33688602Y-69971954D01*
X33688597Y-69971940D01*
X33560625Y-69662990D01*
X33560623Y-69662986D01*
X33560619Y-69662976D01*
X33402972Y-69368038D01*
X33377355Y-69329700D01*
X33269775Y-69168695D01*
X33217175Y-69089973D01*
X33005017Y-68831458D01*
X32768542Y-68594983D01*
X32510027Y-68382825D01*
X32510020Y-68382820D01*
X32452431Y-68344340D01*
X32231975Y-68197036D01*
X32231969Y-68197032D01*
X32193833Y-68176648D01*
X32193831Y-68176647D01*
X44366084Y-68176647D01*
X44366085Y-68176648D01*
X45086908Y-68176648D01*
X45061000Y-68273339D01*
X45061000Y-68378661D01*
X45086908Y-68475352D01*
X44366084Y-68475352D01*
X44383403Y-68584705D01*
X44383405Y-68584712D01*
X44437140Y-68750091D01*
X44437144Y-68750102D01*
X44516092Y-68905043D01*
X44618304Y-69045726D01*
X44741273Y-69168695D01*
X44881956Y-69270907D01*
X45036897Y-69349855D01*
X45036908Y-69349859D01*
X45202287Y-69403594D01*
X45202294Y-69403596D01*
X45311647Y-69420915D01*
X45311648Y-69420915D01*
X45311648Y-68700091D01*
X45408339Y-68726000D01*
X45513661Y-68726000D01*
X45610352Y-68700091D01*
X45610352Y-69420915D01*
X45719705Y-69403596D01*
X45719712Y-69403594D01*
X45885091Y-69349859D01*
X45885102Y-69349855D01*
X46040043Y-69270907D01*
X46180726Y-69168695D01*
X46303695Y-69045726D01*
X46405907Y-68905043D01*
X46484855Y-68750102D01*
X46484859Y-68750091D01*
X46538594Y-68584712D01*
X46538596Y-68584705D01*
X46555916Y-68475352D01*
X45835092Y-68475352D01*
X45861000Y-68378661D01*
X45861000Y-68273339D01*
X45848622Y-68227143D01*
X52077300Y-68227143D01*
X52077300Y-68424856D01*
X52115870Y-68618763D01*
X52115871Y-68618765D01*
X52115872Y-68618768D01*
X52141339Y-68680250D01*
X52191532Y-68801428D01*
X52191533Y-68801430D01*
X52301372Y-68965816D01*
X52301373Y-68965817D01*
X52301376Y-68965821D01*
X52441179Y-69105624D01*
X52605570Y-69215467D01*
X52788232Y-69291128D01*
X52788235Y-69291128D01*
X52788236Y-69291129D01*
X52982143Y-69329700D01*
X52982144Y-69329700D01*
X53179857Y-69329700D01*
X53373763Y-69291129D01*
X53373763Y-69291128D01*
X53373768Y-69291128D01*
X53556430Y-69215467D01*
X53720821Y-69105624D01*
X53860624Y-68965821D01*
X53970467Y-68801430D01*
X54046128Y-68618768D01*
X54084700Y-68424856D01*
X54084700Y-68227144D01*
X54078710Y-68197032D01*
X54046129Y-68033236D01*
X54046128Y-68033234D01*
X54046128Y-68033232D01*
X53970467Y-67850570D01*
X53880750Y-67716300D01*
X53860627Y-67686183D01*
X53860626Y-67686182D01*
X53860624Y-67686179D01*
X53720821Y-67546376D01*
X53720817Y-67546373D01*
X53720816Y-67546372D01*
X53556430Y-67436533D01*
X53556428Y-67436532D01*
X53435548Y-67386462D01*
X53373768Y-67360872D01*
X53373766Y-67360871D01*
X53373765Y-67360871D01*
X53373763Y-67360870D01*
X53179857Y-67322300D01*
X53179856Y-67322300D01*
X52982144Y-67322300D01*
X52982143Y-67322300D01*
X52788236Y-67360870D01*
X52788234Y-67360871D01*
X52605571Y-67436532D01*
X52605569Y-67436533D01*
X52441183Y-67546372D01*
X52301372Y-67686183D01*
X52191533Y-67850569D01*
X52191532Y-67850571D01*
X52115871Y-68033234D01*
X52115870Y-68033236D01*
X52077300Y-68227143D01*
X45848622Y-68227143D01*
X45835092Y-68176648D01*
X46555915Y-68176648D01*
X46538596Y-68067296D01*
X46538594Y-68067287D01*
X46484859Y-67901908D01*
X46484855Y-67901897D01*
X46405907Y-67746956D01*
X46303695Y-67606273D01*
X46180726Y-67483304D01*
X46040043Y-67381092D01*
X45885102Y-67302144D01*
X45885091Y-67302140D01*
X45719708Y-67248404D01*
X45719697Y-67248401D01*
X45610353Y-67231082D01*
X45610352Y-67231083D01*
X45610352Y-67951908D01*
X45513661Y-67926000D01*
X45408339Y-67926000D01*
X45311648Y-67951908D01*
X45311648Y-67231083D01*
X45311646Y-67231082D01*
X45202302Y-67248401D01*
X45202291Y-67248404D01*
X45036908Y-67302140D01*
X45036897Y-67302144D01*
X44881956Y-67381092D01*
X44741273Y-67483304D01*
X44618304Y-67606273D01*
X44516092Y-67746956D01*
X44437144Y-67901897D01*
X44437140Y-67901908D01*
X44383405Y-68067287D01*
X44383403Y-68067294D01*
X44366084Y-68176647D01*
X32193831Y-68176647D01*
X31937024Y-68039381D01*
X31937022Y-68039380D01*
X31937009Y-68039374D01*
X31628059Y-67911402D01*
X31628050Y-67911399D01*
X31308038Y-67814325D01*
X31308006Y-67814318D01*
X30980044Y-67749081D01*
X30980024Y-67749078D01*
X30647216Y-67716300D01*
X30647213Y-67716300D01*
X30312787Y-67716300D01*
X30312783Y-67716300D01*
X29979975Y-67749078D01*
X29979955Y-67749081D01*
X29651993Y-67814318D01*
X29651961Y-67814325D01*
X29331949Y-67911399D01*
X29331940Y-67911402D01*
X29022990Y-68039374D01*
X29022973Y-68039382D01*
X28728030Y-68197032D01*
X28728024Y-68197036D01*
X28449981Y-68382819D01*
X28449980Y-68382820D01*
X28449973Y-68382825D01*
X28331085Y-68480394D01*
X28191453Y-68594987D01*
X27954987Y-68831453D01*
X27954983Y-68831458D01*
X27742825Y-69089973D01*
X27742822Y-69089976D01*
X27742819Y-69089981D01*
X27557036Y-69368024D01*
X27557032Y-69368030D01*
X27399382Y-69662973D01*
X27399374Y-69662990D01*
X27271402Y-69971940D01*
X27271399Y-69971949D01*
X27174325Y-70291961D01*
X27174318Y-70291993D01*
X27109081Y-70619955D01*
X27109078Y-70619975D01*
X27076300Y-70952783D01*
X25607801Y-70952783D01*
X25618785Y-70701184D01*
X25619913Y-70688302D01*
X25628854Y-70620394D01*
X25673786Y-70279102D01*
X25676032Y-70266363D01*
X25684940Y-70226183D01*
X25765369Y-69863386D01*
X25768704Y-69850940D01*
X25892830Y-69457265D01*
X25897244Y-69445138D01*
X26055195Y-69063809D01*
X26060654Y-69052102D01*
X26251242Y-68685987D01*
X26257698Y-68674803D01*
X26479478Y-68326679D01*
X26486880Y-68316109D01*
X26738157Y-67988637D01*
X26746447Y-67978757D01*
X27025313Y-67674428D01*
X27034428Y-67665313D01*
X27338757Y-67386447D01*
X27348637Y-67378157D01*
X27676109Y-67126880D01*
X27686679Y-67119478D01*
X28034803Y-66897698D01*
X28045987Y-66891242D01*
X28412102Y-66700654D01*
X28423809Y-66695195D01*
X28805138Y-66537244D01*
X28817265Y-66532830D01*
X29210940Y-66408704D01*
X29223386Y-66405369D01*
X29626370Y-66316030D01*
X29639102Y-66313786D01*
X30048312Y-66259912D01*
X30061184Y-66258785D01*
X30476771Y-66240641D01*
X30483242Y-66240500D01*
X30519882Y-66240500D01*
X172680118Y-66240500D01*
X172716758Y-66240500D01*
X172723229Y-66240641D01*
G37*
G04 #@! TD.AperFunction*
M02*
