G04 #@! TF.GenerationSoftware,KiCad,Pcbnew,9.0.0+dfsg-1*
G04 #@! TF.CreationDate,2025-03-20T13:58:07-04:00*
G04 #@! TF.ProjectId,breakout,62726561-6b6f-4757-942e-6b696361645f,A.27*
G04 #@! TF.SameCoordinates,Original*
G04 #@! TF.FileFunction,Soldermask,Bot*
G04 #@! TF.FilePolarity,Negative*
%FSLAX46Y46*%
G04 Gerber Fmt 4.6, Leading zero omitted, Abs format (unit mm)*
G04 Created by KiCad (PCBNEW 9.0.0+dfsg-1) date 2025-03-20 13:58:07*
%MOMM*%
%LPD*%
G01*
G04 APERTURE LIST*
G04 Aperture macros list*
%AMRoundRect*
0 Rectangle with rounded corners*
0 $1 Rounding radius*
0 $2 $3 $4 $5 $6 $7 $8 $9 X,Y pos of 4 corners*
0 Add a 4 corners polygon primitive as box body*
4,1,4,$2,$3,$4,$5,$6,$7,$8,$9,$2,$3,0*
0 Add four circle primitives for the rounded corners*
1,1,$1+$1,$2,$3*
1,1,$1+$1,$4,$5*
1,1,$1+$1,$6,$7*
1,1,$1+$1,$8,$9*
0 Add four rect primitives between the rounded corners*
20,1,$1+$1,$2,$3,$4,$5,0*
20,1,$1+$1,$4,$5,$6,$7,0*
20,1,$1+$1,$6,$7,$8,$9,0*
20,1,$1+$1,$8,$9,$2,$3,0*%
G04 Aperture macros list end*
%ADD10C,1.600000*%
%ADD11O,1.600000X1.600000*%
%ADD12R,1.600000X1.600000*%
%ADD13R,1.800000X1.800000*%
%ADD14C,1.800000*%
%ADD15C,6.400000*%
%ADD16R,3.500000X3.500000*%
%ADD17RoundRect,0.750000X-0.750000X-1.000000X0.750000X-1.000000X0.750000X1.000000X-0.750000X1.000000X0*%
%ADD18RoundRect,0.875000X-0.875000X-0.875000X0.875000X-0.875000X0.875000X0.875000X-0.875000X0.875000X0*%
%ADD19R,1.200000X1.200000*%
%ADD20C,1.200000*%
%ADD21R,1.700000X1.700000*%
%ADD22O,1.700000X1.700000*%
G04 APERTURE END LIST*
D10*
X53081000Y-68326000D03*
D11*
X45461000Y-68326000D03*
D12*
X39111000Y-70866000D03*
D10*
X41611000Y-70866000D03*
D13*
X50541000Y-73660000D03*
D14*
X53081000Y-73660000D03*
D15*
X172720000Y-71120000D03*
D16*
X39350200Y-80576500D03*
D17*
X33350200Y-80576500D03*
D18*
X36350200Y-85276500D03*
D15*
X30480000Y-71120000D03*
D19*
X45461000Y-73660000D03*
D20*
X46961000Y-73660000D03*
D21*
X132080000Y-127000000D03*
D22*
X132080000Y-129540000D03*
X134620000Y-127000000D03*
X134620000Y-129540000D03*
X137160000Y-127000000D03*
X137160000Y-129540000D03*
X139700000Y-127000000D03*
X139700000Y-129540000D03*
X142240000Y-127000000D03*
X142240000Y-129540000D03*
X144780000Y-127000000D03*
X144780000Y-129540000D03*
X147320000Y-127000000D03*
X147320000Y-129540000D03*
X149860000Y-127000000D03*
X149860000Y-129540000D03*
X152400000Y-127000000D03*
X152400000Y-129540000D03*
X154940000Y-127000000D03*
X154940000Y-129540000D03*
X157480000Y-127000000D03*
X157480000Y-129540000D03*
X160020000Y-127000000D03*
X160020000Y-129540000D03*
X162560000Y-127000000D03*
X162560000Y-129540000D03*
X165100000Y-127000000D03*
X165100000Y-129540000D03*
X167640000Y-127000000D03*
X167640000Y-129540000D03*
X170180000Y-127000000D03*
X170180000Y-129540000D03*
X172720000Y-127000000D03*
X172720000Y-129540000D03*
X175260000Y-127000000D03*
X175260000Y-129540000D03*
D21*
X27940000Y-127000000D03*
D22*
X27940000Y-129540000D03*
X30480000Y-127000000D03*
X30480000Y-129540000D03*
X33020000Y-127000000D03*
X33020000Y-129540000D03*
X35560000Y-127000000D03*
X35560000Y-129540000D03*
X38100000Y-127000000D03*
X38100000Y-129540000D03*
X40640000Y-127000000D03*
X40640000Y-129540000D03*
X43180000Y-127000000D03*
X43180000Y-129540000D03*
X45720000Y-127000000D03*
X45720000Y-129540000D03*
X48260000Y-127000000D03*
X48260000Y-129540000D03*
X50800000Y-127000000D03*
X50800000Y-129540000D03*
X53340000Y-127000000D03*
X53340000Y-129540000D03*
X55880000Y-127000000D03*
X55880000Y-129540000D03*
X58420000Y-127000000D03*
X58420000Y-129540000D03*
X60960000Y-127000000D03*
X60960000Y-129540000D03*
X63500000Y-127000000D03*
X63500000Y-129540000D03*
X66040000Y-127000000D03*
X66040000Y-129540000D03*
X68580000Y-127000000D03*
X68580000Y-129540000D03*
X71120000Y-127000000D03*
X71120000Y-129540000D03*
X73660000Y-127000000D03*
X73660000Y-129540000D03*
X76200000Y-127000000D03*
X76200000Y-129540000D03*
X78740000Y-127000000D03*
X78740000Y-129540000D03*
X81280000Y-127000000D03*
X81280000Y-129540000D03*
X83820000Y-127000000D03*
X83820000Y-129540000D03*
X86360000Y-127000000D03*
X86360000Y-129540000D03*
X88900000Y-127000000D03*
X88900000Y-129540000D03*
X91440000Y-127000000D03*
X91440000Y-129540000D03*
X93980000Y-127000000D03*
X93980000Y-129540000D03*
X96520000Y-127000000D03*
X96520000Y-129540000D03*
X99060000Y-127000000D03*
X99060000Y-129540000D03*
X101600000Y-127000000D03*
X101600000Y-129540000D03*
X104140000Y-127000000D03*
X104140000Y-129540000D03*
X106680000Y-127000000D03*
X106680000Y-129540000D03*
X109220000Y-127000000D03*
X109220000Y-129540000D03*
X111760000Y-127000000D03*
X111760000Y-129540000D03*
X114300000Y-127000000D03*
X114300000Y-129540000D03*
X116840000Y-127000000D03*
X116840000Y-129540000D03*
X119380000Y-127000000D03*
X119380000Y-129540000D03*
X121920000Y-127000000D03*
X121920000Y-129540000D03*
X124460000Y-127000000D03*
X124460000Y-129540000D03*
X127000000Y-127000000D03*
X127000000Y-129540000D03*
M02*
