M48
; DRILL file {KiCad 9.0.0+dfsg-1} date 2025-03-20T13:57:34-0400
; FORMAT={-:-/ absolute / metric / decimal}
; #@! TF.CreationDate,2025-03-20T13:57:34-04:00
; #@! TF.GenerationSoftware,Kicad,Pcbnew,9.0.0+dfsg-1
; #@! TF.FileFunction,Plated,1,6,PTH
FMAT,2
METRIC
; #@! TA.AperFunction,Plated,PTH,ComponentDrill
T1C0.600
; #@! TA.AperFunction,Plated,PTH,ComponentDrill
T2C0.800
; #@! TA.AperFunction,Plated,PTH,ComponentDrill
T3C0.900
; #@! TA.AperFunction,Plated,PTH,ComponentDrill
T4C1.000
; #@! TA.AperFunction,Plated,PTH,ComponentDrill
T5C3.200
%
G90
G05
T1
X45.461Y-73.66
X46.961Y-73.66
T2
X39.111Y-70.866
X41.611Y-70.866
X45.461Y-68.326
X53.081Y-68.326
T3
X50.541Y-73.66
X53.081Y-73.66
T4
X27.94Y-127.0
X27.94Y-129.54
X30.48Y-127.0
X30.48Y-129.54
X33.02Y-127.0
X33.02Y-129.54
X35.56Y-127.0
X35.56Y-129.54
X38.1Y-127.0
X38.1Y-129.54
X40.64Y-127.0
X40.64Y-129.54
X43.18Y-127.0
X43.18Y-129.54
X45.72Y-127.0
X45.72Y-129.54
X48.26Y-127.0
X48.26Y-129.54
X50.8Y-127.0
X50.8Y-129.54
X53.34Y-127.0
X53.34Y-129.54
X55.88Y-127.0
X55.88Y-129.54
X58.42Y-127.0
X58.42Y-129.54
X60.96Y-127.0
X60.96Y-129.54
X63.5Y-127.0
X63.5Y-129.54
X66.04Y-127.0
X66.04Y-129.54
X68.58Y-127.0
X68.58Y-129.54
X71.12Y-127.0
X71.12Y-129.54
X73.66Y-127.0
X73.66Y-129.54
X76.2Y-127.0
X76.2Y-129.54
X78.74Y-127.0
X78.74Y-129.54
X81.28Y-127.0
X81.28Y-129.54
X83.82Y-127.0
X83.82Y-129.54
X86.36Y-127.0
X86.36Y-129.54
X88.9Y-127.0
X88.9Y-129.54
X91.44Y-127.0
X91.44Y-129.54
X93.98Y-127.0
X93.98Y-129.54
X96.52Y-127.0
X96.52Y-129.54
X99.06Y-127.0
X99.06Y-129.54
X101.6Y-127.0
X101.6Y-129.54
X104.14Y-127.0
X104.14Y-129.54
X106.68Y-127.0
X106.68Y-129.54
X109.22Y-127.0
X109.22Y-129.54
X111.76Y-127.0
X111.76Y-129.54
X114.3Y-127.0
X114.3Y-129.54
X116.84Y-127.0
X116.84Y-129.54
X119.38Y-127.0
X119.38Y-129.54
X121.92Y-127.0
X121.92Y-129.54
X124.46Y-127.0
X124.46Y-129.54
X127.0Y-127.0
X127.0Y-129.54
X132.08Y-127.0
X132.08Y-129.54
X134.62Y-127.0
X134.62Y-129.54
X137.16Y-127.0
X137.16Y-129.54
X139.7Y-127.0
X139.7Y-129.54
X142.24Y-127.0
X142.24Y-129.54
X144.78Y-127.0
X144.78Y-129.54
X147.32Y-127.0
X147.32Y-129.54
X149.86Y-127.0
X149.86Y-129.54
X152.4Y-127.0
X152.4Y-129.54
X154.94Y-127.0
X154.94Y-129.54
X157.48Y-127.0
X157.48Y-129.54
X160.02Y-127.0
X160.02Y-129.54
X162.56Y-127.0
X162.56Y-129.54
X165.1Y-127.0
X165.1Y-129.54
X167.64Y-127.0
X167.64Y-129.54
X170.18Y-127.0
X170.18Y-129.54
X172.72Y-127.0
X172.72Y-129.54
X175.26Y-127.0
X175.26Y-129.54
T5
X30.48Y-71.12
X172.72Y-71.12
T4
G00X33.35Y-79.576
M15
G01X33.35Y-81.576
M16
G05
G00X35.35Y-85.276
M15
G01X37.35Y-85.276
M16
G05
G00X39.35Y-79.576
M15
G01X39.35Y-81.576
M16
G05
M30
