G04 #@! TF.GenerationSoftware,KiCad,Pcbnew,9.0.0+dfsg-1*
G04 #@! TF.CreationDate,2025-03-20T13:58:06-04:00*
G04 #@! TF.ProjectId,breakout,62726561-6b6f-4757-942e-6b696361645f,A.27*
G04 #@! TF.SameCoordinates,Original*
G04 #@! TF.FileFunction,Legend,Top*
G04 #@! TF.FilePolarity,Positive*
%FSLAX46Y46*%
G04 Gerber Fmt 4.6, Leading zero omitted, Abs format (unit mm)*
G04 Created by KiCad (PCBNEW 9.0.0+dfsg-1) date 2025-03-20 13:58:06*
%MOMM*%
%LPD*%
G01*
G04 APERTURE LIST*
G04 Aperture macros list*
%AMRoundRect*
0 Rectangle with rounded corners*
0 $1 Rounding radius*
0 $2 $3 $4 $5 $6 $7 $8 $9 X,Y pos of 4 corners*
0 Add a 4 corners polygon primitive as box body*
4,1,4,$2,$3,$4,$5,$6,$7,$8,$9,$2,$3,0*
0 Add four circle primitives for the rounded corners*
1,1,$1+$1,$2,$3*
1,1,$1+$1,$4,$5*
1,1,$1+$1,$6,$7*
1,1,$1+$1,$8,$9*
0 Add four rect primitives between the rounded corners*
20,1,$1+$1,$2,$3,$4,$5,0*
20,1,$1+$1,$4,$5,$6,$7,0*
20,1,$1+$1,$6,$7,$8,$9,0*
20,1,$1+$1,$8,$9,$2,$3,0*%
G04 Aperture macros list end*
%ADD10C,0.120000*%
%ADD11C,0.150000*%
%ADD12C,0.500000*%
%ADD13C,1.600000*%
%ADD14O,1.600000X1.600000*%
%ADD15R,1.600000X1.600000*%
%ADD16R,1.800000X1.800000*%
%ADD17C,1.800000*%
%ADD18C,6.400000*%
%ADD19R,3.500000X3.500000*%
%ADD20RoundRect,0.750000X-0.750000X-1.000000X0.750000X-1.000000X0.750000X1.000000X-0.750000X1.000000X0*%
%ADD21RoundRect,0.875000X-0.875000X-0.875000X0.875000X-0.875000X0.875000X0.875000X-0.875000X0.875000X0*%
%ADD22R,1.200000X1.200000*%
%ADD23C,1.200000*%
%ADD24R,1.700000X1.700000*%
%ADD25O,1.700000X1.700000*%
G04 APERTURE END LIST*
D10*
X128270000Y-129540000D02*
X26610000Y-129570000D01*
X176590000Y-129540000D02*
X130750000Y-129570000D01*
D11*
X42339048Y-89354866D02*
X43100953Y-89354866D01*
X42720000Y-89735819D02*
X42720000Y-88973914D01*
X29982438Y-125021811D02*
X29934819Y-125117049D01*
X29934819Y-125117049D02*
X29934819Y-125259906D01*
X29934819Y-125259906D02*
X29982438Y-125402763D01*
X29982438Y-125402763D02*
X30077676Y-125498001D01*
X30077676Y-125498001D02*
X30172914Y-125545620D01*
X30172914Y-125545620D02*
X30363390Y-125593239D01*
X30363390Y-125593239D02*
X30506247Y-125593239D01*
X30506247Y-125593239D02*
X30696723Y-125545620D01*
X30696723Y-125545620D02*
X30791961Y-125498001D01*
X30791961Y-125498001D02*
X30887200Y-125402763D01*
X30887200Y-125402763D02*
X30934819Y-125259906D01*
X30934819Y-125259906D02*
X30934819Y-125164668D01*
X30934819Y-125164668D02*
X30887200Y-125021811D01*
X30887200Y-125021811D02*
X30839580Y-124974192D01*
X30839580Y-124974192D02*
X30506247Y-124974192D01*
X30506247Y-124974192D02*
X30506247Y-125164668D01*
X30934819Y-124545620D02*
X29934819Y-124545620D01*
X29934819Y-124545620D02*
X30934819Y-123974192D01*
X30934819Y-123974192D02*
X29934819Y-123974192D01*
X30934819Y-123498001D02*
X29934819Y-123498001D01*
X29934819Y-123498001D02*
X29934819Y-123259906D01*
X29934819Y-123259906D02*
X29982438Y-123117049D01*
X29982438Y-123117049D02*
X30077676Y-123021811D01*
X30077676Y-123021811D02*
X30172914Y-122974192D01*
X30172914Y-122974192D02*
X30363390Y-122926573D01*
X30363390Y-122926573D02*
X30506247Y-122926573D01*
X30506247Y-122926573D02*
X30696723Y-122974192D01*
X30696723Y-122974192D02*
X30791961Y-123021811D01*
X30791961Y-123021811D02*
X30887200Y-123117049D01*
X30887200Y-123117049D02*
X30934819Y-123259906D01*
X30934819Y-123259906D02*
X30934819Y-123498001D01*
X56049104Y-125593239D02*
X56049104Y-125117049D01*
X56334819Y-125688477D02*
X55334819Y-125355144D01*
X55334819Y-125355144D02*
X56334819Y-125021811D01*
X55811009Y-124355144D02*
X55858628Y-124212287D01*
X55858628Y-124212287D02*
X55906247Y-124164668D01*
X55906247Y-124164668D02*
X56001485Y-124117049D01*
X56001485Y-124117049D02*
X56144342Y-124117049D01*
X56144342Y-124117049D02*
X56239580Y-124164668D01*
X56239580Y-124164668D02*
X56287200Y-124212287D01*
X56287200Y-124212287D02*
X56334819Y-124307525D01*
X56334819Y-124307525D02*
X56334819Y-124688477D01*
X56334819Y-124688477D02*
X55334819Y-124688477D01*
X55334819Y-124688477D02*
X55334819Y-124355144D01*
X55334819Y-124355144D02*
X55382438Y-124259906D01*
X55382438Y-124259906D02*
X55430057Y-124212287D01*
X55430057Y-124212287D02*
X55525295Y-124164668D01*
X55525295Y-124164668D02*
X55620533Y-124164668D01*
X55620533Y-124164668D02*
X55715771Y-124212287D01*
X55715771Y-124212287D02*
X55763390Y-124259906D01*
X55763390Y-124259906D02*
X55811009Y-124355144D01*
X55811009Y-124355144D02*
X55811009Y-124688477D01*
X55334819Y-123498001D02*
X55334819Y-123307525D01*
X55334819Y-123307525D02*
X55382438Y-123212287D01*
X55382438Y-123212287D02*
X55477676Y-123117049D01*
X55477676Y-123117049D02*
X55668152Y-123069430D01*
X55668152Y-123069430D02*
X56001485Y-123069430D01*
X56001485Y-123069430D02*
X56191961Y-123117049D01*
X56191961Y-123117049D02*
X56287200Y-123212287D01*
X56287200Y-123212287D02*
X56334819Y-123307525D01*
X56334819Y-123307525D02*
X56334819Y-123498001D01*
X56334819Y-123498001D02*
X56287200Y-123593239D01*
X56287200Y-123593239D02*
X56191961Y-123688477D01*
X56191961Y-123688477D02*
X56001485Y-123736096D01*
X56001485Y-123736096D02*
X55668152Y-123736096D01*
X55668152Y-123736096D02*
X55477676Y-123688477D01*
X55477676Y-123688477D02*
X55382438Y-123593239D01*
X55382438Y-123593239D02*
X55334819Y-123498001D01*
X56334819Y-122069430D02*
X55858628Y-122402763D01*
X56334819Y-122640858D02*
X55334819Y-122640858D01*
X55334819Y-122640858D02*
X55334819Y-122259906D01*
X55334819Y-122259906D02*
X55382438Y-122164668D01*
X55382438Y-122164668D02*
X55430057Y-122117049D01*
X55430057Y-122117049D02*
X55525295Y-122069430D01*
X55525295Y-122069430D02*
X55668152Y-122069430D01*
X55668152Y-122069430D02*
X55763390Y-122117049D01*
X55763390Y-122117049D02*
X55811009Y-122164668D01*
X55811009Y-122164668D02*
X55858628Y-122259906D01*
X55858628Y-122259906D02*
X55858628Y-122640858D01*
X55334819Y-121783715D02*
X55334819Y-121212287D01*
X56334819Y-121498001D02*
X55334819Y-121498001D01*
X55057200Y-125683716D02*
X55057200Y-121217049D01*
X173174819Y-125535620D02*
X172174819Y-125535620D01*
X172174819Y-125535620D02*
X172174819Y-125297525D01*
X172174819Y-125297525D02*
X172222438Y-125154668D01*
X172222438Y-125154668D02*
X172317676Y-125059430D01*
X172317676Y-125059430D02*
X172412914Y-125011811D01*
X172412914Y-125011811D02*
X172603390Y-124964192D01*
X172603390Y-124964192D02*
X172746247Y-124964192D01*
X172746247Y-124964192D02*
X172936723Y-125011811D01*
X172936723Y-125011811D02*
X173031961Y-125059430D01*
X173031961Y-125059430D02*
X173127200Y-125154668D01*
X173127200Y-125154668D02*
X173174819Y-125297525D01*
X173174819Y-125297525D02*
X173174819Y-125535620D01*
X173174819Y-124011811D02*
X173174819Y-124583239D01*
X173174819Y-124297525D02*
X172174819Y-124297525D01*
X172174819Y-124297525D02*
X172317676Y-124392763D01*
X172317676Y-124392763D02*
X172412914Y-124488001D01*
X172412914Y-124488001D02*
X172460533Y-124583239D01*
X106849104Y-125593239D02*
X106849104Y-125117049D01*
X107134819Y-125688477D02*
X106134819Y-125355144D01*
X106134819Y-125355144D02*
X107134819Y-125021811D01*
X107134819Y-124164668D02*
X107134819Y-124736096D01*
X107134819Y-124450382D02*
X106134819Y-124450382D01*
X106134819Y-124450382D02*
X106277676Y-124545620D01*
X106277676Y-124545620D02*
X106372914Y-124640858D01*
X106372914Y-124640858D02*
X106420533Y-124736096D01*
X106563390Y-123593239D02*
X106515771Y-123688477D01*
X106515771Y-123688477D02*
X106468152Y-123736096D01*
X106468152Y-123736096D02*
X106372914Y-123783715D01*
X106372914Y-123783715D02*
X106325295Y-123783715D01*
X106325295Y-123783715D02*
X106230057Y-123736096D01*
X106230057Y-123736096D02*
X106182438Y-123688477D01*
X106182438Y-123688477D02*
X106134819Y-123593239D01*
X106134819Y-123593239D02*
X106134819Y-123402763D01*
X106134819Y-123402763D02*
X106182438Y-123307525D01*
X106182438Y-123307525D02*
X106230057Y-123259906D01*
X106230057Y-123259906D02*
X106325295Y-123212287D01*
X106325295Y-123212287D02*
X106372914Y-123212287D01*
X106372914Y-123212287D02*
X106468152Y-123259906D01*
X106468152Y-123259906D02*
X106515771Y-123307525D01*
X106515771Y-123307525D02*
X106563390Y-123402763D01*
X106563390Y-123402763D02*
X106563390Y-123593239D01*
X106563390Y-123593239D02*
X106611009Y-123688477D01*
X106611009Y-123688477D02*
X106658628Y-123736096D01*
X106658628Y-123736096D02*
X106753866Y-123783715D01*
X106753866Y-123783715D02*
X106944342Y-123783715D01*
X106944342Y-123783715D02*
X107039580Y-123736096D01*
X107039580Y-123736096D02*
X107087200Y-123688477D01*
X107087200Y-123688477D02*
X107134819Y-123593239D01*
X107134819Y-123593239D02*
X107134819Y-123402763D01*
X107134819Y-123402763D02*
X107087200Y-123307525D01*
X107087200Y-123307525D02*
X107039580Y-123259906D01*
X107039580Y-123259906D02*
X106944342Y-123212287D01*
X106944342Y-123212287D02*
X106753866Y-123212287D01*
X106753866Y-123212287D02*
X106658628Y-123259906D01*
X106658628Y-123259906D02*
X106611009Y-123307525D01*
X106611009Y-123307525D02*
X106563390Y-123402763D01*
X48333866Y-125688477D02*
X48286247Y-125640858D01*
X48286247Y-125640858D02*
X48238628Y-125545620D01*
X48238628Y-125545620D02*
X48333866Y-125355144D01*
X48333866Y-125355144D02*
X48286247Y-125259906D01*
X48286247Y-125259906D02*
X48238628Y-125212287D01*
X49095771Y-124545620D02*
X49095771Y-124593239D01*
X49095771Y-124593239D02*
X49048152Y-124688477D01*
X49048152Y-124688477D02*
X48952914Y-124736096D01*
X48952914Y-124736096D02*
X48476723Y-124736096D01*
X48476723Y-124736096D02*
X48381485Y-124783715D01*
X48381485Y-124783715D02*
X48333866Y-124878953D01*
X48333866Y-124878953D02*
X48286247Y-124783715D01*
X48286247Y-124783715D02*
X48191009Y-124736096D01*
X48191009Y-124736096D02*
X47714819Y-124736096D01*
X47714819Y-124736096D02*
X47619580Y-124688477D01*
X47619580Y-124688477D02*
X47571961Y-124593239D01*
X47571961Y-124593239D02*
X47571961Y-124545620D01*
X48619580Y-123593239D02*
X48667200Y-123640858D01*
X48667200Y-123640858D02*
X48714819Y-123783715D01*
X48714819Y-123783715D02*
X48714819Y-123878953D01*
X48714819Y-123878953D02*
X48667200Y-124021810D01*
X48667200Y-124021810D02*
X48571961Y-124117048D01*
X48571961Y-124117048D02*
X48476723Y-124164667D01*
X48476723Y-124164667D02*
X48286247Y-124212286D01*
X48286247Y-124212286D02*
X48143390Y-124212286D01*
X48143390Y-124212286D02*
X47952914Y-124164667D01*
X47952914Y-124164667D02*
X47857676Y-124117048D01*
X47857676Y-124117048D02*
X47762438Y-124021810D01*
X47762438Y-124021810D02*
X47714819Y-123878953D01*
X47714819Y-123878953D02*
X47714819Y-123783715D01*
X47714819Y-123783715D02*
X47762438Y-123640858D01*
X47762438Y-123640858D02*
X47810057Y-123593239D01*
X48714819Y-122688477D02*
X48714819Y-123164667D01*
X48714819Y-123164667D02*
X47714819Y-123164667D01*
X48714819Y-122355143D02*
X47714819Y-122355143D01*
X48714819Y-121783715D02*
X48143390Y-122212286D01*
X47714819Y-121783715D02*
X48286247Y-122355143D01*
X104309104Y-125593239D02*
X104309104Y-125117049D01*
X104594819Y-125688477D02*
X103594819Y-125355144D01*
X103594819Y-125355144D02*
X104594819Y-125021811D01*
X104594819Y-124164668D02*
X104594819Y-124736096D01*
X104594819Y-124450382D02*
X103594819Y-124450382D01*
X103594819Y-124450382D02*
X103737676Y-124545620D01*
X103737676Y-124545620D02*
X103832914Y-124640858D01*
X103832914Y-124640858D02*
X103880533Y-124736096D01*
X104594819Y-123688477D02*
X104594819Y-123498001D01*
X104594819Y-123498001D02*
X104547200Y-123402763D01*
X104547200Y-123402763D02*
X104499580Y-123355144D01*
X104499580Y-123355144D02*
X104356723Y-123259906D01*
X104356723Y-123259906D02*
X104166247Y-123212287D01*
X104166247Y-123212287D02*
X103785295Y-123212287D01*
X103785295Y-123212287D02*
X103690057Y-123259906D01*
X103690057Y-123259906D02*
X103642438Y-123307525D01*
X103642438Y-123307525D02*
X103594819Y-123402763D01*
X103594819Y-123402763D02*
X103594819Y-123593239D01*
X103594819Y-123593239D02*
X103642438Y-123688477D01*
X103642438Y-123688477D02*
X103690057Y-123736096D01*
X103690057Y-123736096D02*
X103785295Y-123783715D01*
X103785295Y-123783715D02*
X104023390Y-123783715D01*
X104023390Y-123783715D02*
X104118628Y-123736096D01*
X104118628Y-123736096D02*
X104166247Y-123688477D01*
X104166247Y-123688477D02*
X104213866Y-123593239D01*
X104213866Y-123593239D02*
X104213866Y-123402763D01*
X104213866Y-123402763D02*
X104166247Y-123307525D01*
X104166247Y-123307525D02*
X104118628Y-123259906D01*
X104118628Y-123259906D02*
X104023390Y-123212287D01*
X46079580Y-124974192D02*
X46127200Y-125021811D01*
X46127200Y-125021811D02*
X46174819Y-125164668D01*
X46174819Y-125164668D02*
X46174819Y-125259906D01*
X46174819Y-125259906D02*
X46127200Y-125402763D01*
X46127200Y-125402763D02*
X46031961Y-125498001D01*
X46031961Y-125498001D02*
X45936723Y-125545620D01*
X45936723Y-125545620D02*
X45746247Y-125593239D01*
X45746247Y-125593239D02*
X45603390Y-125593239D01*
X45603390Y-125593239D02*
X45412914Y-125545620D01*
X45412914Y-125545620D02*
X45317676Y-125498001D01*
X45317676Y-125498001D02*
X45222438Y-125402763D01*
X45222438Y-125402763D02*
X45174819Y-125259906D01*
X45174819Y-125259906D02*
X45174819Y-125164668D01*
X45174819Y-125164668D02*
X45222438Y-125021811D01*
X45222438Y-125021811D02*
X45270057Y-124974192D01*
X46174819Y-124069430D02*
X46174819Y-124545620D01*
X46174819Y-124545620D02*
X45174819Y-124545620D01*
X46174819Y-123736096D02*
X45174819Y-123736096D01*
X46174819Y-123164668D02*
X45603390Y-123593239D01*
X45174819Y-123164668D02*
X45746247Y-123736096D01*
X157934819Y-125535620D02*
X156934819Y-125535620D01*
X156934819Y-125535620D02*
X156934819Y-125297525D01*
X156934819Y-125297525D02*
X156982438Y-125154668D01*
X156982438Y-125154668D02*
X157077676Y-125059430D01*
X157077676Y-125059430D02*
X157172914Y-125011811D01*
X157172914Y-125011811D02*
X157363390Y-124964192D01*
X157363390Y-124964192D02*
X157506247Y-124964192D01*
X157506247Y-124964192D02*
X157696723Y-125011811D01*
X157696723Y-125011811D02*
X157791961Y-125059430D01*
X157791961Y-125059430D02*
X157887200Y-125154668D01*
X157887200Y-125154668D02*
X157934819Y-125297525D01*
X157934819Y-125297525D02*
X157934819Y-125535620D01*
X156934819Y-124630858D02*
X156934819Y-123964192D01*
X156934819Y-123964192D02*
X157934819Y-124392763D01*
X127169104Y-125583239D02*
X127169104Y-125107049D01*
X127454819Y-125678477D02*
X126454819Y-125345144D01*
X126454819Y-125345144D02*
X127454819Y-125011811D01*
X127454819Y-124154668D02*
X127454819Y-124726096D01*
X127454819Y-124440382D02*
X126454819Y-124440382D01*
X126454819Y-124440382D02*
X126597676Y-124535620D01*
X126597676Y-124535620D02*
X126692914Y-124630858D01*
X126692914Y-124630858D02*
X126740533Y-124726096D01*
X126454819Y-123535620D02*
X126454819Y-123440382D01*
X126454819Y-123440382D02*
X126502438Y-123345144D01*
X126502438Y-123345144D02*
X126550057Y-123297525D01*
X126550057Y-123297525D02*
X126645295Y-123249906D01*
X126645295Y-123249906D02*
X126835771Y-123202287D01*
X126835771Y-123202287D02*
X127073866Y-123202287D01*
X127073866Y-123202287D02*
X127264342Y-123249906D01*
X127264342Y-123249906D02*
X127359580Y-123297525D01*
X127359580Y-123297525D02*
X127407200Y-123345144D01*
X127407200Y-123345144D02*
X127454819Y-123440382D01*
X127454819Y-123440382D02*
X127454819Y-123535620D01*
X127454819Y-123535620D02*
X127407200Y-123630858D01*
X127407200Y-123630858D02*
X127359580Y-123678477D01*
X127359580Y-123678477D02*
X127264342Y-123726096D01*
X127264342Y-123726096D02*
X127073866Y-123773715D01*
X127073866Y-123773715D02*
X126835771Y-123773715D01*
X126835771Y-123773715D02*
X126645295Y-123726096D01*
X126645295Y-123726096D02*
X126550057Y-123678477D01*
X126550057Y-123678477D02*
X126502438Y-123630858D01*
X126502438Y-123630858D02*
X126454819Y-123535620D01*
X51254819Y-125545620D02*
X50254819Y-125545620D01*
X51254819Y-124498002D02*
X50778628Y-124831335D01*
X51254819Y-125069430D02*
X50254819Y-125069430D01*
X50254819Y-125069430D02*
X50254819Y-124688478D01*
X50254819Y-124688478D02*
X50302438Y-124593240D01*
X50302438Y-124593240D02*
X50350057Y-124545621D01*
X50350057Y-124545621D02*
X50445295Y-124498002D01*
X50445295Y-124498002D02*
X50588152Y-124498002D01*
X50588152Y-124498002D02*
X50683390Y-124545621D01*
X50683390Y-124545621D02*
X50731009Y-124593240D01*
X50731009Y-124593240D02*
X50778628Y-124688478D01*
X50778628Y-124688478D02*
X50778628Y-125069430D01*
X51350057Y-123402764D02*
X51302438Y-123498002D01*
X51302438Y-123498002D02*
X51207200Y-123593240D01*
X51207200Y-123593240D02*
X51064342Y-123736097D01*
X51064342Y-123736097D02*
X51016723Y-123831335D01*
X51016723Y-123831335D02*
X51016723Y-123926573D01*
X51254819Y-123878954D02*
X51207200Y-123974192D01*
X51207200Y-123974192D02*
X51111961Y-124069430D01*
X51111961Y-124069430D02*
X50921485Y-124117049D01*
X50921485Y-124117049D02*
X50588152Y-124117049D01*
X50588152Y-124117049D02*
X50397676Y-124069430D01*
X50397676Y-124069430D02*
X50302438Y-123974192D01*
X50302438Y-123974192D02*
X50254819Y-123878954D01*
X50254819Y-123878954D02*
X50254819Y-123688478D01*
X50254819Y-123688478D02*
X50302438Y-123593240D01*
X50302438Y-123593240D02*
X50397676Y-123498002D01*
X50397676Y-123498002D02*
X50588152Y-123450383D01*
X50588152Y-123450383D02*
X50921485Y-123450383D01*
X50921485Y-123450383D02*
X51111961Y-123498002D01*
X51111961Y-123498002D02*
X51207200Y-123593240D01*
X51207200Y-123593240D02*
X51254819Y-123688478D01*
X51254819Y-123688478D02*
X51254819Y-123878954D01*
X49977200Y-125683716D02*
X49977200Y-123359907D01*
X134789104Y-125583239D02*
X134789104Y-125107049D01*
X135074819Y-125678477D02*
X134074819Y-125345144D01*
X134074819Y-125345144D02*
X135074819Y-125011811D01*
X134503390Y-124535620D02*
X134455771Y-124630858D01*
X134455771Y-124630858D02*
X134408152Y-124678477D01*
X134408152Y-124678477D02*
X134312914Y-124726096D01*
X134312914Y-124726096D02*
X134265295Y-124726096D01*
X134265295Y-124726096D02*
X134170057Y-124678477D01*
X134170057Y-124678477D02*
X134122438Y-124630858D01*
X134122438Y-124630858D02*
X134074819Y-124535620D01*
X134074819Y-124535620D02*
X134074819Y-124345144D01*
X134074819Y-124345144D02*
X134122438Y-124249906D01*
X134122438Y-124249906D02*
X134170057Y-124202287D01*
X134170057Y-124202287D02*
X134265295Y-124154668D01*
X134265295Y-124154668D02*
X134312914Y-124154668D01*
X134312914Y-124154668D02*
X134408152Y-124202287D01*
X134408152Y-124202287D02*
X134455771Y-124249906D01*
X134455771Y-124249906D02*
X134503390Y-124345144D01*
X134503390Y-124345144D02*
X134503390Y-124535620D01*
X134503390Y-124535620D02*
X134551009Y-124630858D01*
X134551009Y-124630858D02*
X134598628Y-124678477D01*
X134598628Y-124678477D02*
X134693866Y-124726096D01*
X134693866Y-124726096D02*
X134884342Y-124726096D01*
X134884342Y-124726096D02*
X134979580Y-124678477D01*
X134979580Y-124678477D02*
X135027200Y-124630858D01*
X135027200Y-124630858D02*
X135074819Y-124535620D01*
X135074819Y-124535620D02*
X135074819Y-124345144D01*
X135074819Y-124345144D02*
X135027200Y-124249906D01*
X135027200Y-124249906D02*
X134979580Y-124202287D01*
X134979580Y-124202287D02*
X134884342Y-124154668D01*
X134884342Y-124154668D02*
X134693866Y-124154668D01*
X134693866Y-124154668D02*
X134598628Y-124202287D01*
X134598628Y-124202287D02*
X134551009Y-124249906D01*
X134551009Y-124249906D02*
X134503390Y-124345144D01*
X122089104Y-125583239D02*
X122089104Y-125107049D01*
X122374819Y-125678477D02*
X121374819Y-125345144D01*
X121374819Y-125345144D02*
X122374819Y-125011811D01*
X122374819Y-124154668D02*
X122374819Y-124726096D01*
X122374819Y-124440382D02*
X121374819Y-124440382D01*
X121374819Y-124440382D02*
X121517676Y-124535620D01*
X121517676Y-124535620D02*
X121612914Y-124630858D01*
X121612914Y-124630858D02*
X121660533Y-124726096D01*
X121470057Y-123773715D02*
X121422438Y-123726096D01*
X121422438Y-123726096D02*
X121374819Y-123630858D01*
X121374819Y-123630858D02*
X121374819Y-123392763D01*
X121374819Y-123392763D02*
X121422438Y-123297525D01*
X121422438Y-123297525D02*
X121470057Y-123249906D01*
X121470057Y-123249906D02*
X121565295Y-123202287D01*
X121565295Y-123202287D02*
X121660533Y-123202287D01*
X121660533Y-123202287D02*
X121803390Y-123249906D01*
X121803390Y-123249906D02*
X122374819Y-123821334D01*
X122374819Y-123821334D02*
X122374819Y-123202287D01*
X36014819Y-124974192D02*
X35538628Y-125307525D01*
X36014819Y-125545620D02*
X35014819Y-125545620D01*
X35014819Y-125545620D02*
X35014819Y-125164668D01*
X35014819Y-125164668D02*
X35062438Y-125069430D01*
X35062438Y-125069430D02*
X35110057Y-125021811D01*
X35110057Y-125021811D02*
X35205295Y-124974192D01*
X35205295Y-124974192D02*
X35348152Y-124974192D01*
X35348152Y-124974192D02*
X35443390Y-125021811D01*
X35443390Y-125021811D02*
X35491009Y-125069430D01*
X35491009Y-125069430D02*
X35538628Y-125164668D01*
X35538628Y-125164668D02*
X35538628Y-125545620D01*
X35967200Y-124593239D02*
X36014819Y-124450382D01*
X36014819Y-124450382D02*
X36014819Y-124212287D01*
X36014819Y-124212287D02*
X35967200Y-124117049D01*
X35967200Y-124117049D02*
X35919580Y-124069430D01*
X35919580Y-124069430D02*
X35824342Y-124021811D01*
X35824342Y-124021811D02*
X35729104Y-124021811D01*
X35729104Y-124021811D02*
X35633866Y-124069430D01*
X35633866Y-124069430D02*
X35586247Y-124117049D01*
X35586247Y-124117049D02*
X35538628Y-124212287D01*
X35538628Y-124212287D02*
X35491009Y-124402763D01*
X35491009Y-124402763D02*
X35443390Y-124498001D01*
X35443390Y-124498001D02*
X35395771Y-124545620D01*
X35395771Y-124545620D02*
X35300533Y-124593239D01*
X35300533Y-124593239D02*
X35205295Y-124593239D01*
X35205295Y-124593239D02*
X35110057Y-124545620D01*
X35110057Y-124545620D02*
X35062438Y-124498001D01*
X35062438Y-124498001D02*
X35014819Y-124402763D01*
X35014819Y-124402763D02*
X35014819Y-124164668D01*
X35014819Y-124164668D02*
X35062438Y-124021811D01*
X35014819Y-123736096D02*
X35014819Y-123164668D01*
X36014819Y-123450382D02*
X35014819Y-123450382D01*
X34737200Y-125683716D02*
X34737200Y-123169430D01*
X39643969Y-86680819D02*
X39167779Y-86680819D01*
X39167779Y-86680819D02*
X39120160Y-87157009D01*
X39120160Y-87157009D02*
X39167779Y-87109390D01*
X39167779Y-87109390D02*
X39263017Y-87061771D01*
X39263017Y-87061771D02*
X39501112Y-87061771D01*
X39501112Y-87061771D02*
X39596350Y-87109390D01*
X39596350Y-87109390D02*
X39643969Y-87157009D01*
X39643969Y-87157009D02*
X39691588Y-87252247D01*
X39691588Y-87252247D02*
X39691588Y-87490342D01*
X39691588Y-87490342D02*
X39643969Y-87585580D01*
X39643969Y-87585580D02*
X39596350Y-87633200D01*
X39596350Y-87633200D02*
X39501112Y-87680819D01*
X39501112Y-87680819D02*
X39263017Y-87680819D01*
X39263017Y-87680819D02*
X39167779Y-87633200D01*
X39167779Y-87633200D02*
X39120160Y-87585580D01*
X39977303Y-86680819D02*
X40310636Y-87680819D01*
X40310636Y-87680819D02*
X40643969Y-86680819D01*
X61414819Y-124974192D02*
X60938628Y-125307525D01*
X61414819Y-125545620D02*
X60414819Y-125545620D01*
X60414819Y-125545620D02*
X60414819Y-125164668D01*
X60414819Y-125164668D02*
X60462438Y-125069430D01*
X60462438Y-125069430D02*
X60510057Y-125021811D01*
X60510057Y-125021811D02*
X60605295Y-124974192D01*
X60605295Y-124974192D02*
X60748152Y-124974192D01*
X60748152Y-124974192D02*
X60843390Y-125021811D01*
X60843390Y-125021811D02*
X60891009Y-125069430D01*
X60891009Y-125069430D02*
X60938628Y-125164668D01*
X60938628Y-125164668D02*
X60938628Y-125545620D01*
X61414819Y-124545620D02*
X60414819Y-124545620D01*
X60414819Y-124545620D02*
X60414819Y-124307525D01*
X60414819Y-124307525D02*
X60462438Y-124164668D01*
X60462438Y-124164668D02*
X60557676Y-124069430D01*
X60557676Y-124069430D02*
X60652914Y-124021811D01*
X60652914Y-124021811D02*
X60843390Y-123974192D01*
X60843390Y-123974192D02*
X60986247Y-123974192D01*
X60986247Y-123974192D02*
X61176723Y-124021811D01*
X61176723Y-124021811D02*
X61271961Y-124069430D01*
X61271961Y-124069430D02*
X61367200Y-124164668D01*
X61367200Y-124164668D02*
X61414819Y-124307525D01*
X61414819Y-124307525D02*
X61414819Y-124545620D01*
X60938628Y-123355144D02*
X61414819Y-123355144D01*
X60414819Y-123688477D02*
X60938628Y-123355144D01*
X60938628Y-123355144D02*
X60414819Y-123021811D01*
X61510057Y-122926573D02*
X61510057Y-122164668D01*
X61414819Y-121926572D02*
X60414819Y-121926572D01*
X61414819Y-121450382D02*
X60414819Y-121450382D01*
X60414819Y-121450382D02*
X61414819Y-120878954D01*
X61414819Y-120878954D02*
X60414819Y-120878954D01*
X96689104Y-125593239D02*
X96689104Y-125117049D01*
X96974819Y-125688477D02*
X95974819Y-125355144D01*
X95974819Y-125355144D02*
X96974819Y-125021811D01*
X96070057Y-124736096D02*
X96022438Y-124688477D01*
X96022438Y-124688477D02*
X95974819Y-124593239D01*
X95974819Y-124593239D02*
X95974819Y-124355144D01*
X95974819Y-124355144D02*
X96022438Y-124259906D01*
X96022438Y-124259906D02*
X96070057Y-124212287D01*
X96070057Y-124212287D02*
X96165295Y-124164668D01*
X96165295Y-124164668D02*
X96260533Y-124164668D01*
X96260533Y-124164668D02*
X96403390Y-124212287D01*
X96403390Y-124212287D02*
X96974819Y-124783715D01*
X96974819Y-124783715D02*
X96974819Y-124164668D01*
X96070057Y-123783715D02*
X96022438Y-123736096D01*
X96022438Y-123736096D02*
X95974819Y-123640858D01*
X95974819Y-123640858D02*
X95974819Y-123402763D01*
X95974819Y-123402763D02*
X96022438Y-123307525D01*
X96022438Y-123307525D02*
X96070057Y-123259906D01*
X96070057Y-123259906D02*
X96165295Y-123212287D01*
X96165295Y-123212287D02*
X96260533Y-123212287D01*
X96260533Y-123212287D02*
X96403390Y-123259906D01*
X96403390Y-123259906D02*
X96974819Y-123831334D01*
X96974819Y-123831334D02*
X96974819Y-123212287D01*
X62954819Y-125640858D02*
X63954819Y-125402763D01*
X63954819Y-125402763D02*
X63240533Y-125212287D01*
X63240533Y-125212287D02*
X63954819Y-125021811D01*
X63954819Y-125021811D02*
X62954819Y-124783716D01*
X63669104Y-124450382D02*
X63669104Y-123974192D01*
X63954819Y-124545620D02*
X62954819Y-124212287D01*
X62954819Y-124212287D02*
X63954819Y-123878954D01*
X63954819Y-123545620D02*
X62954819Y-123545620D01*
X62677200Y-125683716D02*
X62677200Y-123407526D01*
X99229104Y-125593239D02*
X99229104Y-125117049D01*
X99514819Y-125688477D02*
X98514819Y-125355144D01*
X98514819Y-125355144D02*
X99514819Y-125021811D01*
X98610057Y-124736096D02*
X98562438Y-124688477D01*
X98562438Y-124688477D02*
X98514819Y-124593239D01*
X98514819Y-124593239D02*
X98514819Y-124355144D01*
X98514819Y-124355144D02*
X98562438Y-124259906D01*
X98562438Y-124259906D02*
X98610057Y-124212287D01*
X98610057Y-124212287D02*
X98705295Y-124164668D01*
X98705295Y-124164668D02*
X98800533Y-124164668D01*
X98800533Y-124164668D02*
X98943390Y-124212287D01*
X98943390Y-124212287D02*
X99514819Y-124783715D01*
X99514819Y-124783715D02*
X99514819Y-124164668D01*
X99514819Y-123212287D02*
X99514819Y-123783715D01*
X99514819Y-123498001D02*
X98514819Y-123498001D01*
X98514819Y-123498001D02*
X98657676Y-123593239D01*
X98657676Y-123593239D02*
X98752914Y-123688477D01*
X98752914Y-123688477D02*
X98800533Y-123783715D01*
X165554819Y-125535620D02*
X164554819Y-125535620D01*
X164554819Y-125535620D02*
X164554819Y-125297525D01*
X164554819Y-125297525D02*
X164602438Y-125154668D01*
X164602438Y-125154668D02*
X164697676Y-125059430D01*
X164697676Y-125059430D02*
X164792914Y-125011811D01*
X164792914Y-125011811D02*
X164983390Y-124964192D01*
X164983390Y-124964192D02*
X165126247Y-124964192D01*
X165126247Y-124964192D02*
X165316723Y-125011811D01*
X165316723Y-125011811D02*
X165411961Y-125059430D01*
X165411961Y-125059430D02*
X165507200Y-125154668D01*
X165507200Y-125154668D02*
X165554819Y-125297525D01*
X165554819Y-125297525D02*
X165554819Y-125535620D01*
X164888152Y-124107049D02*
X165554819Y-124107049D01*
X164507200Y-124345144D02*
X165221485Y-124583239D01*
X165221485Y-124583239D02*
X165221485Y-123964192D01*
X160474819Y-125535620D02*
X159474819Y-125535620D01*
X159474819Y-125535620D02*
X159474819Y-125297525D01*
X159474819Y-125297525D02*
X159522438Y-125154668D01*
X159522438Y-125154668D02*
X159617676Y-125059430D01*
X159617676Y-125059430D02*
X159712914Y-125011811D01*
X159712914Y-125011811D02*
X159903390Y-124964192D01*
X159903390Y-124964192D02*
X160046247Y-124964192D01*
X160046247Y-124964192D02*
X160236723Y-125011811D01*
X160236723Y-125011811D02*
X160331961Y-125059430D01*
X160331961Y-125059430D02*
X160427200Y-125154668D01*
X160427200Y-125154668D02*
X160474819Y-125297525D01*
X160474819Y-125297525D02*
X160474819Y-125535620D01*
X159474819Y-124107049D02*
X159474819Y-124297525D01*
X159474819Y-124297525D02*
X159522438Y-124392763D01*
X159522438Y-124392763D02*
X159570057Y-124440382D01*
X159570057Y-124440382D02*
X159712914Y-124535620D01*
X159712914Y-124535620D02*
X159903390Y-124583239D01*
X159903390Y-124583239D02*
X160284342Y-124583239D01*
X160284342Y-124583239D02*
X160379580Y-124535620D01*
X160379580Y-124535620D02*
X160427200Y-124488001D01*
X160427200Y-124488001D02*
X160474819Y-124392763D01*
X160474819Y-124392763D02*
X160474819Y-124202287D01*
X160474819Y-124202287D02*
X160427200Y-124107049D01*
X160427200Y-124107049D02*
X160379580Y-124059430D01*
X160379580Y-124059430D02*
X160284342Y-124011811D01*
X160284342Y-124011811D02*
X160046247Y-124011811D01*
X160046247Y-124011811D02*
X159951009Y-124059430D01*
X159951009Y-124059430D02*
X159903390Y-124107049D01*
X159903390Y-124107049D02*
X159855771Y-124202287D01*
X159855771Y-124202287D02*
X159855771Y-124392763D01*
X159855771Y-124392763D02*
X159903390Y-124488001D01*
X159903390Y-124488001D02*
X159951009Y-124535620D01*
X159951009Y-124535620D02*
X160046247Y-124583239D01*
X36291048Y-89354866D02*
X37052953Y-89354866D01*
X109389104Y-125583239D02*
X109389104Y-125107049D01*
X109674819Y-125678477D02*
X108674819Y-125345144D01*
X108674819Y-125345144D02*
X109674819Y-125011811D01*
X109674819Y-124154668D02*
X109674819Y-124726096D01*
X109674819Y-124440382D02*
X108674819Y-124440382D01*
X108674819Y-124440382D02*
X108817676Y-124535620D01*
X108817676Y-124535620D02*
X108912914Y-124630858D01*
X108912914Y-124630858D02*
X108960533Y-124726096D01*
X108674819Y-123821334D02*
X108674819Y-123154668D01*
X108674819Y-123154668D02*
X109674819Y-123583239D01*
X139869104Y-125583239D02*
X139869104Y-125107049D01*
X140154819Y-125678477D02*
X139154819Y-125345144D01*
X139154819Y-125345144D02*
X140154819Y-125011811D01*
X139154819Y-124249906D02*
X139154819Y-124440382D01*
X139154819Y-124440382D02*
X139202438Y-124535620D01*
X139202438Y-124535620D02*
X139250057Y-124583239D01*
X139250057Y-124583239D02*
X139392914Y-124678477D01*
X139392914Y-124678477D02*
X139583390Y-124726096D01*
X139583390Y-124726096D02*
X139964342Y-124726096D01*
X139964342Y-124726096D02*
X140059580Y-124678477D01*
X140059580Y-124678477D02*
X140107200Y-124630858D01*
X140107200Y-124630858D02*
X140154819Y-124535620D01*
X140154819Y-124535620D02*
X140154819Y-124345144D01*
X140154819Y-124345144D02*
X140107200Y-124249906D01*
X140107200Y-124249906D02*
X140059580Y-124202287D01*
X140059580Y-124202287D02*
X139964342Y-124154668D01*
X139964342Y-124154668D02*
X139726247Y-124154668D01*
X139726247Y-124154668D02*
X139631009Y-124202287D01*
X139631009Y-124202287D02*
X139583390Y-124249906D01*
X139583390Y-124249906D02*
X139535771Y-124345144D01*
X139535771Y-124345144D02*
X139535771Y-124535620D01*
X139535771Y-124535620D02*
X139583390Y-124630858D01*
X139583390Y-124630858D02*
X139631009Y-124678477D01*
X139631009Y-124678477D02*
X139726247Y-124726096D01*
X150029104Y-125583239D02*
X150029104Y-125107049D01*
X150314819Y-125678477D02*
X149314819Y-125345144D01*
X149314819Y-125345144D02*
X150314819Y-125011811D01*
X149410057Y-124726096D02*
X149362438Y-124678477D01*
X149362438Y-124678477D02*
X149314819Y-124583239D01*
X149314819Y-124583239D02*
X149314819Y-124345144D01*
X149314819Y-124345144D02*
X149362438Y-124249906D01*
X149362438Y-124249906D02*
X149410057Y-124202287D01*
X149410057Y-124202287D02*
X149505295Y-124154668D01*
X149505295Y-124154668D02*
X149600533Y-124154668D01*
X149600533Y-124154668D02*
X149743390Y-124202287D01*
X149743390Y-124202287D02*
X150314819Y-124773715D01*
X150314819Y-124773715D02*
X150314819Y-124154668D01*
X168094819Y-125535620D02*
X167094819Y-125535620D01*
X167094819Y-125535620D02*
X167094819Y-125297525D01*
X167094819Y-125297525D02*
X167142438Y-125154668D01*
X167142438Y-125154668D02*
X167237676Y-125059430D01*
X167237676Y-125059430D02*
X167332914Y-125011811D01*
X167332914Y-125011811D02*
X167523390Y-124964192D01*
X167523390Y-124964192D02*
X167666247Y-124964192D01*
X167666247Y-124964192D02*
X167856723Y-125011811D01*
X167856723Y-125011811D02*
X167951961Y-125059430D01*
X167951961Y-125059430D02*
X168047200Y-125154668D01*
X168047200Y-125154668D02*
X168094819Y-125297525D01*
X168094819Y-125297525D02*
X168094819Y-125535620D01*
X167094819Y-124630858D02*
X167094819Y-124011811D01*
X167094819Y-124011811D02*
X167475771Y-124345144D01*
X167475771Y-124345144D02*
X167475771Y-124202287D01*
X167475771Y-124202287D02*
X167523390Y-124107049D01*
X167523390Y-124107049D02*
X167571009Y-124059430D01*
X167571009Y-124059430D02*
X167666247Y-124011811D01*
X167666247Y-124011811D02*
X167904342Y-124011811D01*
X167904342Y-124011811D02*
X167999580Y-124059430D01*
X167999580Y-124059430D02*
X168047200Y-124107049D01*
X168047200Y-124107049D02*
X168094819Y-124202287D01*
X168094819Y-124202287D02*
X168094819Y-124488001D01*
X168094819Y-124488001D02*
X168047200Y-124583239D01*
X168047200Y-124583239D02*
X167999580Y-124630858D01*
X132249104Y-125583239D02*
X132249104Y-125107049D01*
X132534819Y-125678477D02*
X131534819Y-125345144D01*
X131534819Y-125345144D02*
X132534819Y-125011811D01*
X132534819Y-124630858D02*
X132534819Y-124440382D01*
X132534819Y-124440382D02*
X132487200Y-124345144D01*
X132487200Y-124345144D02*
X132439580Y-124297525D01*
X132439580Y-124297525D02*
X132296723Y-124202287D01*
X132296723Y-124202287D02*
X132106247Y-124154668D01*
X132106247Y-124154668D02*
X131725295Y-124154668D01*
X131725295Y-124154668D02*
X131630057Y-124202287D01*
X131630057Y-124202287D02*
X131582438Y-124249906D01*
X131582438Y-124249906D02*
X131534819Y-124345144D01*
X131534819Y-124345144D02*
X131534819Y-124535620D01*
X131534819Y-124535620D02*
X131582438Y-124630858D01*
X131582438Y-124630858D02*
X131630057Y-124678477D01*
X131630057Y-124678477D02*
X131725295Y-124726096D01*
X131725295Y-124726096D02*
X131963390Y-124726096D01*
X131963390Y-124726096D02*
X132058628Y-124678477D01*
X132058628Y-124678477D02*
X132106247Y-124630858D01*
X132106247Y-124630858D02*
X132153866Y-124535620D01*
X132153866Y-124535620D02*
X132153866Y-124345144D01*
X132153866Y-124345144D02*
X132106247Y-124249906D01*
X132106247Y-124249906D02*
X132058628Y-124202287D01*
X132058628Y-124202287D02*
X131963390Y-124154668D01*
X124629104Y-125583239D02*
X124629104Y-125107049D01*
X124914819Y-125678477D02*
X123914819Y-125345144D01*
X123914819Y-125345144D02*
X124914819Y-125011811D01*
X124914819Y-124154668D02*
X124914819Y-124726096D01*
X124914819Y-124440382D02*
X123914819Y-124440382D01*
X123914819Y-124440382D02*
X124057676Y-124535620D01*
X124057676Y-124535620D02*
X124152914Y-124630858D01*
X124152914Y-124630858D02*
X124200533Y-124726096D01*
X124914819Y-123202287D02*
X124914819Y-123773715D01*
X124914819Y-123488001D02*
X123914819Y-123488001D01*
X123914819Y-123488001D02*
X124057676Y-123583239D01*
X124057676Y-123583239D02*
X124152914Y-123678477D01*
X124152914Y-123678477D02*
X124200533Y-123773715D01*
X74114819Y-124974192D02*
X73638628Y-125307525D01*
X74114819Y-125545620D02*
X73114819Y-125545620D01*
X73114819Y-125545620D02*
X73114819Y-125164668D01*
X73114819Y-125164668D02*
X73162438Y-125069430D01*
X73162438Y-125069430D02*
X73210057Y-125021811D01*
X73210057Y-125021811D02*
X73305295Y-124974192D01*
X73305295Y-124974192D02*
X73448152Y-124974192D01*
X73448152Y-124974192D02*
X73543390Y-125021811D01*
X73543390Y-125021811D02*
X73591009Y-125069430D01*
X73591009Y-125069430D02*
X73638628Y-125164668D01*
X73638628Y-125164668D02*
X73638628Y-125545620D01*
X74114819Y-124545620D02*
X73114819Y-124545620D01*
X73114819Y-124545620D02*
X73114819Y-124307525D01*
X73114819Y-124307525D02*
X73162438Y-124164668D01*
X73162438Y-124164668D02*
X73257676Y-124069430D01*
X73257676Y-124069430D02*
X73352914Y-124021811D01*
X73352914Y-124021811D02*
X73543390Y-123974192D01*
X73543390Y-123974192D02*
X73686247Y-123974192D01*
X73686247Y-123974192D02*
X73876723Y-124021811D01*
X73876723Y-124021811D02*
X73971961Y-124069430D01*
X73971961Y-124069430D02*
X74067200Y-124164668D01*
X74067200Y-124164668D02*
X74114819Y-124307525D01*
X74114819Y-124307525D02*
X74114819Y-124545620D01*
X72837200Y-125683716D02*
X72837200Y-123883716D01*
X163014819Y-125535620D02*
X162014819Y-125535620D01*
X162014819Y-125535620D02*
X162014819Y-125297525D01*
X162014819Y-125297525D02*
X162062438Y-125154668D01*
X162062438Y-125154668D02*
X162157676Y-125059430D01*
X162157676Y-125059430D02*
X162252914Y-125011811D01*
X162252914Y-125011811D02*
X162443390Y-124964192D01*
X162443390Y-124964192D02*
X162586247Y-124964192D01*
X162586247Y-124964192D02*
X162776723Y-125011811D01*
X162776723Y-125011811D02*
X162871961Y-125059430D01*
X162871961Y-125059430D02*
X162967200Y-125154668D01*
X162967200Y-125154668D02*
X163014819Y-125297525D01*
X163014819Y-125297525D02*
X163014819Y-125535620D01*
X162014819Y-124059430D02*
X162014819Y-124535620D01*
X162014819Y-124535620D02*
X162491009Y-124583239D01*
X162491009Y-124583239D02*
X162443390Y-124535620D01*
X162443390Y-124535620D02*
X162395771Y-124440382D01*
X162395771Y-124440382D02*
X162395771Y-124202287D01*
X162395771Y-124202287D02*
X162443390Y-124107049D01*
X162443390Y-124107049D02*
X162491009Y-124059430D01*
X162491009Y-124059430D02*
X162586247Y-124011811D01*
X162586247Y-124011811D02*
X162824342Y-124011811D01*
X162824342Y-124011811D02*
X162919580Y-124059430D01*
X162919580Y-124059430D02*
X162967200Y-124107049D01*
X162967200Y-124107049D02*
X163014819Y-124202287D01*
X163014819Y-124202287D02*
X163014819Y-124440382D01*
X163014819Y-124440382D02*
X162967200Y-124535620D01*
X162967200Y-124535620D02*
X162919580Y-124583239D01*
X85814819Y-125640858D02*
X86814819Y-124974192D01*
X85814819Y-124974192D02*
X86814819Y-125640858D01*
X170634819Y-125535620D02*
X169634819Y-125535620D01*
X169634819Y-125535620D02*
X169634819Y-125297525D01*
X169634819Y-125297525D02*
X169682438Y-125154668D01*
X169682438Y-125154668D02*
X169777676Y-125059430D01*
X169777676Y-125059430D02*
X169872914Y-125011811D01*
X169872914Y-125011811D02*
X170063390Y-124964192D01*
X170063390Y-124964192D02*
X170206247Y-124964192D01*
X170206247Y-124964192D02*
X170396723Y-125011811D01*
X170396723Y-125011811D02*
X170491961Y-125059430D01*
X170491961Y-125059430D02*
X170587200Y-125154668D01*
X170587200Y-125154668D02*
X170634819Y-125297525D01*
X170634819Y-125297525D02*
X170634819Y-125535620D01*
X169730057Y-124583239D02*
X169682438Y-124535620D01*
X169682438Y-124535620D02*
X169634819Y-124440382D01*
X169634819Y-124440382D02*
X169634819Y-124202287D01*
X169634819Y-124202287D02*
X169682438Y-124107049D01*
X169682438Y-124107049D02*
X169730057Y-124059430D01*
X169730057Y-124059430D02*
X169825295Y-124011811D01*
X169825295Y-124011811D02*
X169920533Y-124011811D01*
X169920533Y-124011811D02*
X170063390Y-124059430D01*
X170063390Y-124059430D02*
X170634819Y-124630858D01*
X170634819Y-124630858D02*
X170634819Y-124011811D01*
X144949104Y-125583239D02*
X144949104Y-125107049D01*
X145234819Y-125678477D02*
X144234819Y-125345144D01*
X144234819Y-125345144D02*
X145234819Y-125011811D01*
X144568152Y-124249906D02*
X145234819Y-124249906D01*
X144187200Y-124488001D02*
X144901485Y-124726096D01*
X144901485Y-124726096D02*
X144901485Y-124107049D01*
X114469104Y-125583239D02*
X114469104Y-125107049D01*
X114754819Y-125678477D02*
X113754819Y-125345144D01*
X113754819Y-125345144D02*
X114754819Y-125011811D01*
X114754819Y-124154668D02*
X114754819Y-124726096D01*
X114754819Y-124440382D02*
X113754819Y-124440382D01*
X113754819Y-124440382D02*
X113897676Y-124535620D01*
X113897676Y-124535620D02*
X113992914Y-124630858D01*
X113992914Y-124630858D02*
X114040533Y-124726096D01*
X113754819Y-123249906D02*
X113754819Y-123726096D01*
X113754819Y-123726096D02*
X114231009Y-123773715D01*
X114231009Y-123773715D02*
X114183390Y-123726096D01*
X114183390Y-123726096D02*
X114135771Y-123630858D01*
X114135771Y-123630858D02*
X114135771Y-123392763D01*
X114135771Y-123392763D02*
X114183390Y-123297525D01*
X114183390Y-123297525D02*
X114231009Y-123249906D01*
X114231009Y-123249906D02*
X114326247Y-123202287D01*
X114326247Y-123202287D02*
X114564342Y-123202287D01*
X114564342Y-123202287D02*
X114659580Y-123249906D01*
X114659580Y-123249906D02*
X114707200Y-123297525D01*
X114707200Y-123297525D02*
X114754819Y-123392763D01*
X114754819Y-123392763D02*
X114754819Y-123630858D01*
X114754819Y-123630858D02*
X114707200Y-123726096D01*
X114707200Y-123726096D02*
X114659580Y-123773715D01*
X119549104Y-125583239D02*
X119549104Y-125107049D01*
X119834819Y-125678477D02*
X118834819Y-125345144D01*
X118834819Y-125345144D02*
X119834819Y-125011811D01*
X119834819Y-124154668D02*
X119834819Y-124726096D01*
X119834819Y-124440382D02*
X118834819Y-124440382D01*
X118834819Y-124440382D02*
X118977676Y-124535620D01*
X118977676Y-124535620D02*
X119072914Y-124630858D01*
X119072914Y-124630858D02*
X119120533Y-124726096D01*
X118834819Y-123821334D02*
X118834819Y-123202287D01*
X118834819Y-123202287D02*
X119215771Y-123535620D01*
X119215771Y-123535620D02*
X119215771Y-123392763D01*
X119215771Y-123392763D02*
X119263390Y-123297525D01*
X119263390Y-123297525D02*
X119311009Y-123249906D01*
X119311009Y-123249906D02*
X119406247Y-123202287D01*
X119406247Y-123202287D02*
X119644342Y-123202287D01*
X119644342Y-123202287D02*
X119739580Y-123249906D01*
X119739580Y-123249906D02*
X119787200Y-123297525D01*
X119787200Y-123297525D02*
X119834819Y-123392763D01*
X119834819Y-123392763D02*
X119834819Y-123678477D01*
X119834819Y-123678477D02*
X119787200Y-123773715D01*
X119787200Y-123773715D02*
X119739580Y-123821334D01*
X68034819Y-125688477D02*
X69034819Y-125355144D01*
X69034819Y-125355144D02*
X68034819Y-125021811D01*
X68749104Y-124736096D02*
X68749104Y-124259906D01*
X69034819Y-124831334D02*
X68034819Y-124498001D01*
X68034819Y-124498001D02*
X69034819Y-124164668D01*
X147489104Y-125583239D02*
X147489104Y-125107049D01*
X147774819Y-125678477D02*
X146774819Y-125345144D01*
X146774819Y-125345144D02*
X147774819Y-125011811D01*
X146774819Y-124773715D02*
X146774819Y-124154668D01*
X146774819Y-124154668D02*
X147155771Y-124488001D01*
X147155771Y-124488001D02*
X147155771Y-124345144D01*
X147155771Y-124345144D02*
X147203390Y-124249906D01*
X147203390Y-124249906D02*
X147251009Y-124202287D01*
X147251009Y-124202287D02*
X147346247Y-124154668D01*
X147346247Y-124154668D02*
X147584342Y-124154668D01*
X147584342Y-124154668D02*
X147679580Y-124202287D01*
X147679580Y-124202287D02*
X147727200Y-124249906D01*
X147727200Y-124249906D02*
X147774819Y-124345144D01*
X147774819Y-124345144D02*
X147774819Y-124630858D01*
X147774819Y-124630858D02*
X147727200Y-124726096D01*
X147727200Y-124726096D02*
X147679580Y-124773715D01*
X111929104Y-125583239D02*
X111929104Y-125107049D01*
X112214819Y-125678477D02*
X111214819Y-125345144D01*
X111214819Y-125345144D02*
X112214819Y-125011811D01*
X112214819Y-124154668D02*
X112214819Y-124726096D01*
X112214819Y-124440382D02*
X111214819Y-124440382D01*
X111214819Y-124440382D02*
X111357676Y-124535620D01*
X111357676Y-124535620D02*
X111452914Y-124630858D01*
X111452914Y-124630858D02*
X111500533Y-124726096D01*
X111214819Y-123297525D02*
X111214819Y-123488001D01*
X111214819Y-123488001D02*
X111262438Y-123583239D01*
X111262438Y-123583239D02*
X111310057Y-123630858D01*
X111310057Y-123630858D02*
X111452914Y-123726096D01*
X111452914Y-123726096D02*
X111643390Y-123773715D01*
X111643390Y-123773715D02*
X112024342Y-123773715D01*
X112024342Y-123773715D02*
X112119580Y-123726096D01*
X112119580Y-123726096D02*
X112167200Y-123678477D01*
X112167200Y-123678477D02*
X112214819Y-123583239D01*
X112214819Y-123583239D02*
X112214819Y-123392763D01*
X112214819Y-123392763D02*
X112167200Y-123297525D01*
X112167200Y-123297525D02*
X112119580Y-123249906D01*
X112119580Y-123249906D02*
X112024342Y-123202287D01*
X112024342Y-123202287D02*
X111786247Y-123202287D01*
X111786247Y-123202287D02*
X111691009Y-123249906D01*
X111691009Y-123249906D02*
X111643390Y-123297525D01*
X111643390Y-123297525D02*
X111595771Y-123392763D01*
X111595771Y-123392763D02*
X111595771Y-123583239D01*
X111595771Y-123583239D02*
X111643390Y-123678477D01*
X111643390Y-123678477D02*
X111691009Y-123726096D01*
X111691009Y-123726096D02*
X111786247Y-123773715D01*
X88354819Y-125688477D02*
X89354819Y-125355144D01*
X89354819Y-125355144D02*
X88354819Y-125021811D01*
X89354819Y-124688477D02*
X88354819Y-124688477D01*
X88354819Y-124688477D02*
X88354819Y-124307525D01*
X88354819Y-124307525D02*
X88402438Y-124212287D01*
X88402438Y-124212287D02*
X88450057Y-124164668D01*
X88450057Y-124164668D02*
X88545295Y-124117049D01*
X88545295Y-124117049D02*
X88688152Y-124117049D01*
X88688152Y-124117049D02*
X88783390Y-124164668D01*
X88783390Y-124164668D02*
X88831009Y-124212287D01*
X88831009Y-124212287D02*
X88878628Y-124307525D01*
X88878628Y-124307525D02*
X88878628Y-124688477D01*
X88077200Y-125683716D02*
X88077200Y-124026573D01*
X75654819Y-125640858D02*
X76654819Y-125402763D01*
X76654819Y-125402763D02*
X75940533Y-125212287D01*
X75940533Y-125212287D02*
X76654819Y-125021811D01*
X76654819Y-125021811D02*
X75654819Y-124783716D01*
X76654819Y-123831335D02*
X76178628Y-124164668D01*
X76654819Y-124402763D02*
X75654819Y-124402763D01*
X75654819Y-124402763D02*
X75654819Y-124021811D01*
X75654819Y-124021811D02*
X75702438Y-123926573D01*
X75702438Y-123926573D02*
X75750057Y-123878954D01*
X75750057Y-123878954D02*
X75845295Y-123831335D01*
X75845295Y-123831335D02*
X75988152Y-123831335D01*
X75988152Y-123831335D02*
X76083390Y-123878954D01*
X76083390Y-123878954D02*
X76131009Y-123926573D01*
X76131009Y-123926573D02*
X76178628Y-124021811D01*
X76178628Y-124021811D02*
X76178628Y-124402763D01*
X75377200Y-125683716D02*
X75377200Y-123740859D01*
X94149104Y-125593239D02*
X94149104Y-125117049D01*
X94434819Y-125688477D02*
X93434819Y-125355144D01*
X93434819Y-125355144D02*
X94434819Y-125021811D01*
X93530057Y-124736096D02*
X93482438Y-124688477D01*
X93482438Y-124688477D02*
X93434819Y-124593239D01*
X93434819Y-124593239D02*
X93434819Y-124355144D01*
X93434819Y-124355144D02*
X93482438Y-124259906D01*
X93482438Y-124259906D02*
X93530057Y-124212287D01*
X93530057Y-124212287D02*
X93625295Y-124164668D01*
X93625295Y-124164668D02*
X93720533Y-124164668D01*
X93720533Y-124164668D02*
X93863390Y-124212287D01*
X93863390Y-124212287D02*
X94434819Y-124783715D01*
X94434819Y-124783715D02*
X94434819Y-124164668D01*
X93434819Y-123831334D02*
X93434819Y-123212287D01*
X93434819Y-123212287D02*
X93815771Y-123545620D01*
X93815771Y-123545620D02*
X93815771Y-123402763D01*
X93815771Y-123402763D02*
X93863390Y-123307525D01*
X93863390Y-123307525D02*
X93911009Y-123259906D01*
X93911009Y-123259906D02*
X94006247Y-123212287D01*
X94006247Y-123212287D02*
X94244342Y-123212287D01*
X94244342Y-123212287D02*
X94339580Y-123259906D01*
X94339580Y-123259906D02*
X94387200Y-123307525D01*
X94387200Y-123307525D02*
X94434819Y-123402763D01*
X94434819Y-123402763D02*
X94434819Y-123688477D01*
X94434819Y-123688477D02*
X94387200Y-123783715D01*
X94387200Y-123783715D02*
X94339580Y-123831334D01*
X71574819Y-124974192D02*
X71098628Y-125307525D01*
X71574819Y-125545620D02*
X70574819Y-125545620D01*
X70574819Y-125545620D02*
X70574819Y-125164668D01*
X70574819Y-125164668D02*
X70622438Y-125069430D01*
X70622438Y-125069430D02*
X70670057Y-125021811D01*
X70670057Y-125021811D02*
X70765295Y-124974192D01*
X70765295Y-124974192D02*
X70908152Y-124974192D01*
X70908152Y-124974192D02*
X71003390Y-125021811D01*
X71003390Y-125021811D02*
X71051009Y-125069430D01*
X71051009Y-125069430D02*
X71098628Y-125164668D01*
X71098628Y-125164668D02*
X71098628Y-125545620D01*
X70574819Y-124640858D02*
X71574819Y-124402763D01*
X71574819Y-124402763D02*
X70860533Y-124212287D01*
X70860533Y-124212287D02*
X71574819Y-124021811D01*
X71574819Y-124021811D02*
X70574819Y-123783716D01*
X70297200Y-124683716D02*
X70297200Y-123740859D01*
X101769104Y-125593239D02*
X101769104Y-125117049D01*
X102054819Y-125688477D02*
X101054819Y-125355144D01*
X101054819Y-125355144D02*
X102054819Y-125021811D01*
X101150057Y-124736096D02*
X101102438Y-124688477D01*
X101102438Y-124688477D02*
X101054819Y-124593239D01*
X101054819Y-124593239D02*
X101054819Y-124355144D01*
X101054819Y-124355144D02*
X101102438Y-124259906D01*
X101102438Y-124259906D02*
X101150057Y-124212287D01*
X101150057Y-124212287D02*
X101245295Y-124164668D01*
X101245295Y-124164668D02*
X101340533Y-124164668D01*
X101340533Y-124164668D02*
X101483390Y-124212287D01*
X101483390Y-124212287D02*
X102054819Y-124783715D01*
X102054819Y-124783715D02*
X102054819Y-124164668D01*
X101054819Y-123545620D02*
X101054819Y-123450382D01*
X101054819Y-123450382D02*
X101102438Y-123355144D01*
X101102438Y-123355144D02*
X101150057Y-123307525D01*
X101150057Y-123307525D02*
X101245295Y-123259906D01*
X101245295Y-123259906D02*
X101435771Y-123212287D01*
X101435771Y-123212287D02*
X101673866Y-123212287D01*
X101673866Y-123212287D02*
X101864342Y-123259906D01*
X101864342Y-123259906D02*
X101959580Y-123307525D01*
X101959580Y-123307525D02*
X102007200Y-123355144D01*
X102007200Y-123355144D02*
X102054819Y-123450382D01*
X102054819Y-123450382D02*
X102054819Y-123545620D01*
X102054819Y-123545620D02*
X102007200Y-123640858D01*
X102007200Y-123640858D02*
X101959580Y-123688477D01*
X101959580Y-123688477D02*
X101864342Y-123736096D01*
X101864342Y-123736096D02*
X101673866Y-123783715D01*
X101673866Y-123783715D02*
X101435771Y-123783715D01*
X101435771Y-123783715D02*
X101245295Y-123736096D01*
X101245295Y-123736096D02*
X101150057Y-123688477D01*
X101150057Y-123688477D02*
X101102438Y-123640858D01*
X101102438Y-123640858D02*
X101054819Y-123545620D01*
X175714819Y-125535620D02*
X174714819Y-125535620D01*
X174714819Y-125535620D02*
X174714819Y-125297525D01*
X174714819Y-125297525D02*
X174762438Y-125154668D01*
X174762438Y-125154668D02*
X174857676Y-125059430D01*
X174857676Y-125059430D02*
X174952914Y-125011811D01*
X174952914Y-125011811D02*
X175143390Y-124964192D01*
X175143390Y-124964192D02*
X175286247Y-124964192D01*
X175286247Y-124964192D02*
X175476723Y-125011811D01*
X175476723Y-125011811D02*
X175571961Y-125059430D01*
X175571961Y-125059430D02*
X175667200Y-125154668D01*
X175667200Y-125154668D02*
X175714819Y-125297525D01*
X175714819Y-125297525D02*
X175714819Y-125535620D01*
X174714819Y-124345144D02*
X174714819Y-124249906D01*
X174714819Y-124249906D02*
X174762438Y-124154668D01*
X174762438Y-124154668D02*
X174810057Y-124107049D01*
X174810057Y-124107049D02*
X174905295Y-124059430D01*
X174905295Y-124059430D02*
X175095771Y-124011811D01*
X175095771Y-124011811D02*
X175333866Y-124011811D01*
X175333866Y-124011811D02*
X175524342Y-124059430D01*
X175524342Y-124059430D02*
X175619580Y-124107049D01*
X175619580Y-124107049D02*
X175667200Y-124154668D01*
X175667200Y-124154668D02*
X175714819Y-124249906D01*
X175714819Y-124249906D02*
X175714819Y-124345144D01*
X175714819Y-124345144D02*
X175667200Y-124440382D01*
X175667200Y-124440382D02*
X175619580Y-124488001D01*
X175619580Y-124488001D02*
X175524342Y-124535620D01*
X175524342Y-124535620D02*
X175333866Y-124583239D01*
X175333866Y-124583239D02*
X175095771Y-124583239D01*
X175095771Y-124583239D02*
X174905295Y-124535620D01*
X174905295Y-124535620D02*
X174810057Y-124488001D01*
X174810057Y-124488001D02*
X174762438Y-124440382D01*
X174762438Y-124440382D02*
X174714819Y-124345144D01*
X43539580Y-124964192D02*
X43587200Y-125011811D01*
X43587200Y-125011811D02*
X43634819Y-125154668D01*
X43634819Y-125154668D02*
X43634819Y-125249906D01*
X43634819Y-125249906D02*
X43587200Y-125392763D01*
X43587200Y-125392763D02*
X43491961Y-125488001D01*
X43491961Y-125488001D02*
X43396723Y-125535620D01*
X43396723Y-125535620D02*
X43206247Y-125583239D01*
X43206247Y-125583239D02*
X43063390Y-125583239D01*
X43063390Y-125583239D02*
X42872914Y-125535620D01*
X42872914Y-125535620D02*
X42777676Y-125488001D01*
X42777676Y-125488001D02*
X42682438Y-125392763D01*
X42682438Y-125392763D02*
X42634819Y-125249906D01*
X42634819Y-125249906D02*
X42634819Y-125154668D01*
X42634819Y-125154668D02*
X42682438Y-125011811D01*
X42682438Y-125011811D02*
X42730057Y-124964192D01*
X43634819Y-124059430D02*
X43634819Y-124535620D01*
X43634819Y-124535620D02*
X42634819Y-124535620D01*
X43634819Y-123726096D02*
X42634819Y-123726096D01*
X43634819Y-123154668D02*
X43063390Y-123583239D01*
X42634819Y-123154668D02*
X43206247Y-123726096D01*
X43730057Y-122964192D02*
X43730057Y-122202287D01*
X43587200Y-122011810D02*
X43634819Y-121868953D01*
X43634819Y-121868953D02*
X43634819Y-121630858D01*
X43634819Y-121630858D02*
X43587200Y-121535620D01*
X43587200Y-121535620D02*
X43539580Y-121488001D01*
X43539580Y-121488001D02*
X43444342Y-121440382D01*
X43444342Y-121440382D02*
X43349104Y-121440382D01*
X43349104Y-121440382D02*
X43253866Y-121488001D01*
X43253866Y-121488001D02*
X43206247Y-121535620D01*
X43206247Y-121535620D02*
X43158628Y-121630858D01*
X43158628Y-121630858D02*
X43111009Y-121821334D01*
X43111009Y-121821334D02*
X43063390Y-121916572D01*
X43063390Y-121916572D02*
X43015771Y-121964191D01*
X43015771Y-121964191D02*
X42920533Y-122011810D01*
X42920533Y-122011810D02*
X42825295Y-122011810D01*
X42825295Y-122011810D02*
X42730057Y-121964191D01*
X42730057Y-121964191D02*
X42682438Y-121916572D01*
X42682438Y-121916572D02*
X42634819Y-121821334D01*
X42634819Y-121821334D02*
X42634819Y-121583239D01*
X42634819Y-121583239D02*
X42682438Y-121440382D01*
X43634819Y-120440382D02*
X43158628Y-120773715D01*
X43634819Y-121011810D02*
X42634819Y-121011810D01*
X42634819Y-121011810D02*
X42634819Y-120630858D01*
X42634819Y-120630858D02*
X42682438Y-120535620D01*
X42682438Y-120535620D02*
X42730057Y-120488001D01*
X42730057Y-120488001D02*
X42825295Y-120440382D01*
X42825295Y-120440382D02*
X42968152Y-120440382D01*
X42968152Y-120440382D02*
X43063390Y-120488001D01*
X43063390Y-120488001D02*
X43111009Y-120535620D01*
X43111009Y-120535620D02*
X43158628Y-120630858D01*
X43158628Y-120630858D02*
X43158628Y-121011810D01*
X43539580Y-119440382D02*
X43587200Y-119488001D01*
X43587200Y-119488001D02*
X43634819Y-119630858D01*
X43634819Y-119630858D02*
X43634819Y-119726096D01*
X43634819Y-119726096D02*
X43587200Y-119868953D01*
X43587200Y-119868953D02*
X43491961Y-119964191D01*
X43491961Y-119964191D02*
X43396723Y-120011810D01*
X43396723Y-120011810D02*
X43206247Y-120059429D01*
X43206247Y-120059429D02*
X43063390Y-120059429D01*
X43063390Y-120059429D02*
X42872914Y-120011810D01*
X42872914Y-120011810D02*
X42777676Y-119964191D01*
X42777676Y-119964191D02*
X42682438Y-119868953D01*
X42682438Y-119868953D02*
X42634819Y-119726096D01*
X42634819Y-119726096D02*
X42634819Y-119630858D01*
X42634819Y-119630858D02*
X42682438Y-119488001D01*
X42682438Y-119488001D02*
X42730057Y-119440382D01*
X78671009Y-125212287D02*
X78718628Y-125069430D01*
X78718628Y-125069430D02*
X78766247Y-125021811D01*
X78766247Y-125021811D02*
X78861485Y-124974192D01*
X78861485Y-124974192D02*
X79004342Y-124974192D01*
X79004342Y-124974192D02*
X79099580Y-125021811D01*
X79099580Y-125021811D02*
X79147200Y-125069430D01*
X79147200Y-125069430D02*
X79194819Y-125164668D01*
X79194819Y-125164668D02*
X79194819Y-125545620D01*
X79194819Y-125545620D02*
X78194819Y-125545620D01*
X78194819Y-125545620D02*
X78194819Y-125212287D01*
X78194819Y-125212287D02*
X78242438Y-125117049D01*
X78242438Y-125117049D02*
X78290057Y-125069430D01*
X78290057Y-125069430D02*
X78385295Y-125021811D01*
X78385295Y-125021811D02*
X78480533Y-125021811D01*
X78480533Y-125021811D02*
X78575771Y-125069430D01*
X78575771Y-125069430D02*
X78623390Y-125117049D01*
X78623390Y-125117049D02*
X78671009Y-125212287D01*
X78671009Y-125212287D02*
X78671009Y-125545620D01*
X78909104Y-124593239D02*
X78909104Y-124117049D01*
X79194819Y-124688477D02*
X78194819Y-124355144D01*
X78194819Y-124355144D02*
X79194819Y-124021811D01*
X79194819Y-123688477D02*
X78194819Y-123688477D01*
X78194819Y-123688477D02*
X79194819Y-123117049D01*
X79194819Y-123117049D02*
X78194819Y-123117049D01*
X79194819Y-122640858D02*
X78194819Y-122640858D01*
X79194819Y-122069430D02*
X78623390Y-122498001D01*
X78194819Y-122069430D02*
X78766247Y-122640858D01*
X78194819Y-121450382D02*
X78194819Y-121355144D01*
X78194819Y-121355144D02*
X78242438Y-121259906D01*
X78242438Y-121259906D02*
X78290057Y-121212287D01*
X78290057Y-121212287D02*
X78385295Y-121164668D01*
X78385295Y-121164668D02*
X78575771Y-121117049D01*
X78575771Y-121117049D02*
X78813866Y-121117049D01*
X78813866Y-121117049D02*
X79004342Y-121164668D01*
X79004342Y-121164668D02*
X79099580Y-121212287D01*
X79099580Y-121212287D02*
X79147200Y-121259906D01*
X79147200Y-121259906D02*
X79194819Y-121355144D01*
X79194819Y-121355144D02*
X79194819Y-121450382D01*
X79194819Y-121450382D02*
X79147200Y-121545620D01*
X79147200Y-121545620D02*
X79099580Y-121593239D01*
X79099580Y-121593239D02*
X79004342Y-121640858D01*
X79004342Y-121640858D02*
X78813866Y-121688477D01*
X78813866Y-121688477D02*
X78575771Y-121688477D01*
X78575771Y-121688477D02*
X78385295Y-121640858D01*
X78385295Y-121640858D02*
X78290057Y-121593239D01*
X78290057Y-121593239D02*
X78242438Y-121545620D01*
X78242438Y-121545620D02*
X78194819Y-121450382D01*
X77917200Y-125683716D02*
X77917200Y-121026573D01*
X117009104Y-125583239D02*
X117009104Y-125107049D01*
X117294819Y-125678477D02*
X116294819Y-125345144D01*
X116294819Y-125345144D02*
X117294819Y-125011811D01*
X117294819Y-124154668D02*
X117294819Y-124726096D01*
X117294819Y-124440382D02*
X116294819Y-124440382D01*
X116294819Y-124440382D02*
X116437676Y-124535620D01*
X116437676Y-124535620D02*
X116532914Y-124630858D01*
X116532914Y-124630858D02*
X116580533Y-124726096D01*
X116628152Y-123297525D02*
X117294819Y-123297525D01*
X116247200Y-123535620D02*
X116961485Y-123773715D01*
X116961485Y-123773715D02*
X116961485Y-123154668D01*
X33499819Y-125545620D02*
X32499819Y-125545620D01*
X32499819Y-125545620D02*
X33214104Y-125212287D01*
X33214104Y-125212287D02*
X32499819Y-124878954D01*
X32499819Y-124878954D02*
X33499819Y-124878954D01*
X33499819Y-123831335D02*
X33023628Y-124164668D01*
X33499819Y-124402763D02*
X32499819Y-124402763D01*
X32499819Y-124402763D02*
X32499819Y-124021811D01*
X32499819Y-124021811D02*
X32547438Y-123926573D01*
X32547438Y-123926573D02*
X32595057Y-123878954D01*
X32595057Y-123878954D02*
X32690295Y-123831335D01*
X32690295Y-123831335D02*
X32833152Y-123831335D01*
X32833152Y-123831335D02*
X32928390Y-123878954D01*
X32928390Y-123878954D02*
X32976009Y-123926573D01*
X32976009Y-123926573D02*
X33023628Y-124021811D01*
X33023628Y-124021811D02*
X33023628Y-124402763D01*
X32222200Y-125683716D02*
X32222200Y-123740859D01*
X33499819Y-122640859D02*
X33499819Y-123402763D01*
X33118866Y-122640859D02*
X33499819Y-123021811D01*
X33499819Y-123021811D02*
X33118866Y-123402763D01*
X33118866Y-123402763D02*
X32737914Y-123021811D01*
X32737914Y-123021811D02*
X33118866Y-122640859D01*
X33118866Y-123402763D02*
X33118866Y-122640859D01*
X58351009Y-125212287D02*
X58398628Y-125069430D01*
X58398628Y-125069430D02*
X58446247Y-125021811D01*
X58446247Y-125021811D02*
X58541485Y-124974192D01*
X58541485Y-124974192D02*
X58684342Y-124974192D01*
X58684342Y-124974192D02*
X58779580Y-125021811D01*
X58779580Y-125021811D02*
X58827200Y-125069430D01*
X58827200Y-125069430D02*
X58874819Y-125164668D01*
X58874819Y-125164668D02*
X58874819Y-125545620D01*
X58874819Y-125545620D02*
X57874819Y-125545620D01*
X57874819Y-125545620D02*
X57874819Y-125212287D01*
X57874819Y-125212287D02*
X57922438Y-125117049D01*
X57922438Y-125117049D02*
X57970057Y-125069430D01*
X57970057Y-125069430D02*
X58065295Y-125021811D01*
X58065295Y-125021811D02*
X58160533Y-125021811D01*
X58160533Y-125021811D02*
X58255771Y-125069430D01*
X58255771Y-125069430D02*
X58303390Y-125117049D01*
X58303390Y-125117049D02*
X58351009Y-125212287D01*
X58351009Y-125212287D02*
X58351009Y-125545620D01*
X58351009Y-124545620D02*
X58351009Y-124212287D01*
X58874819Y-124069430D02*
X58874819Y-124545620D01*
X58874819Y-124545620D02*
X57874819Y-124545620D01*
X57874819Y-124545620D02*
X57874819Y-124069430D01*
X137329104Y-125583239D02*
X137329104Y-125107049D01*
X137614819Y-125678477D02*
X136614819Y-125345144D01*
X136614819Y-125345144D02*
X137614819Y-125011811D01*
X136614819Y-124773715D02*
X136614819Y-124107049D01*
X136614819Y-124107049D02*
X137614819Y-124535620D01*
X155109104Y-125583239D02*
X155109104Y-125107049D01*
X155394819Y-125678477D02*
X154394819Y-125345144D01*
X154394819Y-125345144D02*
X155394819Y-125011811D01*
X154394819Y-124488001D02*
X154394819Y-124392763D01*
X154394819Y-124392763D02*
X154442438Y-124297525D01*
X154442438Y-124297525D02*
X154490057Y-124249906D01*
X154490057Y-124249906D02*
X154585295Y-124202287D01*
X154585295Y-124202287D02*
X154775771Y-124154668D01*
X154775771Y-124154668D02*
X155013866Y-124154668D01*
X155013866Y-124154668D02*
X155204342Y-124202287D01*
X155204342Y-124202287D02*
X155299580Y-124249906D01*
X155299580Y-124249906D02*
X155347200Y-124297525D01*
X155347200Y-124297525D02*
X155394819Y-124392763D01*
X155394819Y-124392763D02*
X155394819Y-124488001D01*
X155394819Y-124488001D02*
X155347200Y-124583239D01*
X155347200Y-124583239D02*
X155299580Y-124630858D01*
X155299580Y-124630858D02*
X155204342Y-124678477D01*
X155204342Y-124678477D02*
X155013866Y-124726096D01*
X155013866Y-124726096D02*
X154775771Y-124726096D01*
X154775771Y-124726096D02*
X154585295Y-124678477D01*
X154585295Y-124678477D02*
X154490057Y-124630858D01*
X154490057Y-124630858D02*
X154442438Y-124583239D01*
X154442438Y-124583239D02*
X154394819Y-124488001D01*
X40999580Y-124974192D02*
X41047200Y-125021811D01*
X41047200Y-125021811D02*
X41094819Y-125164668D01*
X41094819Y-125164668D02*
X41094819Y-125259906D01*
X41094819Y-125259906D02*
X41047200Y-125402763D01*
X41047200Y-125402763D02*
X40951961Y-125498001D01*
X40951961Y-125498001D02*
X40856723Y-125545620D01*
X40856723Y-125545620D02*
X40666247Y-125593239D01*
X40666247Y-125593239D02*
X40523390Y-125593239D01*
X40523390Y-125593239D02*
X40332914Y-125545620D01*
X40332914Y-125545620D02*
X40237676Y-125498001D01*
X40237676Y-125498001D02*
X40142438Y-125402763D01*
X40142438Y-125402763D02*
X40094819Y-125259906D01*
X40094819Y-125259906D02*
X40094819Y-125164668D01*
X40094819Y-125164668D02*
X40142438Y-125021811D01*
X40142438Y-125021811D02*
X40190057Y-124974192D01*
X41094819Y-124069430D02*
X41094819Y-124545620D01*
X41094819Y-124545620D02*
X40094819Y-124545620D01*
X41094819Y-123736096D02*
X40094819Y-123736096D01*
X41094819Y-123164668D02*
X40523390Y-123593239D01*
X40094819Y-123164668D02*
X40666247Y-123736096D01*
X41190057Y-122974192D02*
X41190057Y-122212287D01*
X40571009Y-121974191D02*
X40571009Y-121640858D01*
X41094819Y-121498001D02*
X41094819Y-121974191D01*
X41094819Y-121974191D02*
X40094819Y-121974191D01*
X40094819Y-121974191D02*
X40094819Y-121498001D01*
X41094819Y-121069429D02*
X40094819Y-121069429D01*
X40094819Y-121069429D02*
X41094819Y-120498001D01*
X41094819Y-120498001D02*
X40094819Y-120498001D01*
X39817200Y-125683716D02*
X39817200Y-120359906D01*
X38579819Y-124974192D02*
X38103628Y-125307525D01*
X38579819Y-125545620D02*
X37579819Y-125545620D01*
X37579819Y-125545620D02*
X37579819Y-125164668D01*
X37579819Y-125164668D02*
X37627438Y-125069430D01*
X37627438Y-125069430D02*
X37675057Y-125021811D01*
X37675057Y-125021811D02*
X37770295Y-124974192D01*
X37770295Y-124974192D02*
X37913152Y-124974192D01*
X37913152Y-124974192D02*
X38008390Y-125021811D01*
X38008390Y-125021811D02*
X38056009Y-125069430D01*
X38056009Y-125069430D02*
X38103628Y-125164668D01*
X38103628Y-125164668D02*
X38103628Y-125545620D01*
X38532200Y-124593239D02*
X38579819Y-124450382D01*
X38579819Y-124450382D02*
X38579819Y-124212287D01*
X38579819Y-124212287D02*
X38532200Y-124117049D01*
X38532200Y-124117049D02*
X38484580Y-124069430D01*
X38484580Y-124069430D02*
X38389342Y-124021811D01*
X38389342Y-124021811D02*
X38294104Y-124021811D01*
X38294104Y-124021811D02*
X38198866Y-124069430D01*
X38198866Y-124069430D02*
X38151247Y-124117049D01*
X38151247Y-124117049D02*
X38103628Y-124212287D01*
X38103628Y-124212287D02*
X38056009Y-124402763D01*
X38056009Y-124402763D02*
X38008390Y-124498001D01*
X38008390Y-124498001D02*
X37960771Y-124545620D01*
X37960771Y-124545620D02*
X37865533Y-124593239D01*
X37865533Y-124593239D02*
X37770295Y-124593239D01*
X37770295Y-124593239D02*
X37675057Y-124545620D01*
X37675057Y-124545620D02*
X37627438Y-124498001D01*
X37627438Y-124498001D02*
X37579819Y-124402763D01*
X37579819Y-124402763D02*
X37579819Y-124164668D01*
X37579819Y-124164668D02*
X37627438Y-124021811D01*
X37579819Y-123736096D02*
X37579819Y-123164668D01*
X38579819Y-123450382D02*
X37579819Y-123450382D01*
X152569104Y-125583239D02*
X152569104Y-125107049D01*
X152854819Y-125678477D02*
X151854819Y-125345144D01*
X151854819Y-125345144D02*
X152854819Y-125011811D01*
X152854819Y-124154668D02*
X152854819Y-124726096D01*
X152854819Y-124440382D02*
X151854819Y-124440382D01*
X151854819Y-124440382D02*
X151997676Y-124535620D01*
X151997676Y-124535620D02*
X152092914Y-124630858D01*
X152092914Y-124630858D02*
X152140533Y-124726096D01*
X84274819Y-125545620D02*
X83274819Y-125545620D01*
X83274819Y-125545620D02*
X83989104Y-125212287D01*
X83989104Y-125212287D02*
X83274819Y-124878954D01*
X83274819Y-124878954D02*
X84274819Y-124878954D01*
X81211009Y-125545620D02*
X81211009Y-125212287D01*
X81734819Y-125069430D02*
X81734819Y-125545620D01*
X81734819Y-125545620D02*
X80734819Y-125545620D01*
X80734819Y-125545620D02*
X80734819Y-125069430D01*
X142409104Y-125583239D02*
X142409104Y-125107049D01*
X142694819Y-125678477D02*
X141694819Y-125345144D01*
X141694819Y-125345144D02*
X142694819Y-125011811D01*
X141694819Y-124202287D02*
X141694819Y-124678477D01*
X141694819Y-124678477D02*
X142171009Y-124726096D01*
X142171009Y-124726096D02*
X142123390Y-124678477D01*
X142123390Y-124678477D02*
X142075771Y-124583239D01*
X142075771Y-124583239D02*
X142075771Y-124345144D01*
X142075771Y-124345144D02*
X142123390Y-124249906D01*
X142123390Y-124249906D02*
X142171009Y-124202287D01*
X142171009Y-124202287D02*
X142266247Y-124154668D01*
X142266247Y-124154668D02*
X142504342Y-124154668D01*
X142504342Y-124154668D02*
X142599580Y-124202287D01*
X142599580Y-124202287D02*
X142647200Y-124249906D01*
X142647200Y-124249906D02*
X142694819Y-124345144D01*
X142694819Y-124345144D02*
X142694819Y-124583239D01*
X142694819Y-124583239D02*
X142647200Y-124678477D01*
X142647200Y-124678477D02*
X142599580Y-124726096D01*
X66447200Y-125593239D02*
X66494819Y-125450382D01*
X66494819Y-125450382D02*
X66494819Y-125212287D01*
X66494819Y-125212287D02*
X66447200Y-125117049D01*
X66447200Y-125117049D02*
X66399580Y-125069430D01*
X66399580Y-125069430D02*
X66304342Y-125021811D01*
X66304342Y-125021811D02*
X66209104Y-125021811D01*
X66209104Y-125021811D02*
X66113866Y-125069430D01*
X66113866Y-125069430D02*
X66066247Y-125117049D01*
X66066247Y-125117049D02*
X66018628Y-125212287D01*
X66018628Y-125212287D02*
X65971009Y-125402763D01*
X65971009Y-125402763D02*
X65923390Y-125498001D01*
X65923390Y-125498001D02*
X65875771Y-125545620D01*
X65875771Y-125545620D02*
X65780533Y-125593239D01*
X65780533Y-125593239D02*
X65685295Y-125593239D01*
X65685295Y-125593239D02*
X65590057Y-125545620D01*
X65590057Y-125545620D02*
X65542438Y-125498001D01*
X65542438Y-125498001D02*
X65494819Y-125402763D01*
X65494819Y-125402763D02*
X65494819Y-125164668D01*
X65494819Y-125164668D02*
X65542438Y-125021811D01*
X66018628Y-124402763D02*
X66494819Y-124402763D01*
X65494819Y-124736096D02*
X66018628Y-124402763D01*
X66018628Y-124402763D02*
X65494819Y-124069430D01*
X66494819Y-123736096D02*
X65494819Y-123736096D01*
X65494819Y-123736096D02*
X66494819Y-123164668D01*
X66494819Y-123164668D02*
X65494819Y-123164668D01*
X66399580Y-122117049D02*
X66447200Y-122164668D01*
X66447200Y-122164668D02*
X66494819Y-122307525D01*
X66494819Y-122307525D02*
X66494819Y-122402763D01*
X66494819Y-122402763D02*
X66447200Y-122545620D01*
X66447200Y-122545620D02*
X66351961Y-122640858D01*
X66351961Y-122640858D02*
X66256723Y-122688477D01*
X66256723Y-122688477D02*
X66066247Y-122736096D01*
X66066247Y-122736096D02*
X65923390Y-122736096D01*
X65923390Y-122736096D02*
X65732914Y-122688477D01*
X65732914Y-122688477D02*
X65637676Y-122640858D01*
X65637676Y-122640858D02*
X65542438Y-122545620D01*
X65542438Y-122545620D02*
X65494819Y-122402763D01*
X65494819Y-122402763D02*
X65494819Y-122307525D01*
X65494819Y-122307525D02*
X65542438Y-122164668D01*
X65542438Y-122164668D02*
X65590057Y-122117049D01*
X91894819Y-125545620D02*
X90894819Y-125545620D01*
X90894819Y-125545620D02*
X91609104Y-125212287D01*
X91609104Y-125212287D02*
X90894819Y-124878954D01*
X90894819Y-124878954D02*
X91894819Y-124878954D01*
X91894819Y-123926573D02*
X91894819Y-124402763D01*
X91894819Y-124402763D02*
X90894819Y-124402763D01*
X90617200Y-125683716D02*
X90617200Y-123931335D01*
X28013866Y-125545620D02*
X28013866Y-124783716D01*
X28394819Y-125164668D02*
X27632914Y-125164668D01*
X27394819Y-123831335D02*
X27394819Y-124307525D01*
X27394819Y-124307525D02*
X27871009Y-124355144D01*
X27871009Y-124355144D02*
X27823390Y-124307525D01*
X27823390Y-124307525D02*
X27775771Y-124212287D01*
X27775771Y-124212287D02*
X27775771Y-123974192D01*
X27775771Y-123974192D02*
X27823390Y-123878954D01*
X27823390Y-123878954D02*
X27871009Y-123831335D01*
X27871009Y-123831335D02*
X27966247Y-123783716D01*
X27966247Y-123783716D02*
X28204342Y-123783716D01*
X28204342Y-123783716D02*
X28299580Y-123831335D01*
X28299580Y-123831335D02*
X28347200Y-123878954D01*
X28347200Y-123878954D02*
X28394819Y-123974192D01*
X28394819Y-123974192D02*
X28394819Y-124212287D01*
X28394819Y-124212287D02*
X28347200Y-124307525D01*
X28347200Y-124307525D02*
X28299580Y-124355144D01*
X27394819Y-123498001D02*
X28394819Y-123164668D01*
X28394819Y-123164668D02*
X27394819Y-122831335D01*
X129042438Y-129949411D02*
X128994819Y-130044649D01*
X128994819Y-130044649D02*
X128994819Y-130187506D01*
X128994819Y-130187506D02*
X129042438Y-130330363D01*
X129042438Y-130330363D02*
X129137676Y-130425601D01*
X129137676Y-130425601D02*
X129232914Y-130473220D01*
X129232914Y-130473220D02*
X129423390Y-130520839D01*
X129423390Y-130520839D02*
X129566247Y-130520839D01*
X129566247Y-130520839D02*
X129756723Y-130473220D01*
X129756723Y-130473220D02*
X129851961Y-130425601D01*
X129851961Y-130425601D02*
X129947200Y-130330363D01*
X129947200Y-130330363D02*
X129994819Y-130187506D01*
X129994819Y-130187506D02*
X129994819Y-130092268D01*
X129994819Y-130092268D02*
X129947200Y-129949411D01*
X129947200Y-129949411D02*
X129899580Y-129901792D01*
X129899580Y-129901792D02*
X129566247Y-129901792D01*
X129566247Y-129901792D02*
X129566247Y-130092268D01*
X129994819Y-129473220D02*
X128994819Y-129473220D01*
X128994819Y-129473220D02*
X129994819Y-128901792D01*
X129994819Y-128901792D02*
X128994819Y-128901792D01*
X129994819Y-128425601D02*
X128994819Y-128425601D01*
X128994819Y-128425601D02*
X128994819Y-128187506D01*
X128994819Y-128187506D02*
X129042438Y-128044649D01*
X129042438Y-128044649D02*
X129137676Y-127949411D01*
X129137676Y-127949411D02*
X129232914Y-127901792D01*
X129232914Y-127901792D02*
X129423390Y-127854173D01*
X129423390Y-127854173D02*
X129566247Y-127854173D01*
X129566247Y-127854173D02*
X129756723Y-127901792D01*
X129756723Y-127901792D02*
X129851961Y-127949411D01*
X129851961Y-127949411D02*
X129947200Y-128044649D01*
X129947200Y-128044649D02*
X129994819Y-128187506D01*
X129994819Y-128187506D02*
X129994819Y-128425601D01*
X53794819Y-125545620D02*
X52794819Y-125545620D01*
X52794819Y-125545620D02*
X53794819Y-124974192D01*
X53794819Y-124974192D02*
X52794819Y-124974192D01*
X53794819Y-124498001D02*
X52794819Y-124498001D01*
X52794819Y-124498001D02*
X53509104Y-124164668D01*
X53509104Y-124164668D02*
X52794819Y-123831335D01*
X52794819Y-123831335D02*
X53794819Y-123831335D01*
X53794819Y-123355144D02*
X52794819Y-123355144D01*
X52517200Y-125683716D02*
X52517200Y-123217050D01*
X45040333Y-71066819D02*
X44707000Y-70590628D01*
X44468905Y-71066819D02*
X44468905Y-70066819D01*
X44468905Y-70066819D02*
X44849857Y-70066819D01*
X44849857Y-70066819D02*
X44945095Y-70114438D01*
X44945095Y-70114438D02*
X44992714Y-70162057D01*
X44992714Y-70162057D02*
X45040333Y-70257295D01*
X45040333Y-70257295D02*
X45040333Y-70400152D01*
X45040333Y-70400152D02*
X44992714Y-70495390D01*
X44992714Y-70495390D02*
X44945095Y-70543009D01*
X44945095Y-70543009D02*
X44849857Y-70590628D01*
X44849857Y-70590628D02*
X44468905Y-70590628D01*
X45897476Y-70066819D02*
X45707000Y-70066819D01*
X45707000Y-70066819D02*
X45611762Y-70114438D01*
X45611762Y-70114438D02*
X45564143Y-70162057D01*
X45564143Y-70162057D02*
X45468905Y-70304914D01*
X45468905Y-70304914D02*
X45421286Y-70495390D01*
X45421286Y-70495390D02*
X45421286Y-70876342D01*
X45421286Y-70876342D02*
X45468905Y-70971580D01*
X45468905Y-70971580D02*
X45516524Y-71019200D01*
X45516524Y-71019200D02*
X45611762Y-71066819D01*
X45611762Y-71066819D02*
X45802238Y-71066819D01*
X45802238Y-71066819D02*
X45897476Y-71019200D01*
X45897476Y-71019200D02*
X45945095Y-70971580D01*
X45945095Y-70971580D02*
X45992714Y-70876342D01*
X45992714Y-70876342D02*
X45992714Y-70638247D01*
X45992714Y-70638247D02*
X45945095Y-70543009D01*
X45945095Y-70543009D02*
X45897476Y-70495390D01*
X45897476Y-70495390D02*
X45802238Y-70447771D01*
X45802238Y-70447771D02*
X45611762Y-70447771D01*
X45611762Y-70447771D02*
X45516524Y-70495390D01*
X45516524Y-70495390D02*
X45468905Y-70543009D01*
X45468905Y-70543009D02*
X45421286Y-70638247D01*
X37674333Y-67415580D02*
X37626714Y-67463200D01*
X37626714Y-67463200D02*
X37483857Y-67510819D01*
X37483857Y-67510819D02*
X37388619Y-67510819D01*
X37388619Y-67510819D02*
X37245762Y-67463200D01*
X37245762Y-67463200D02*
X37150524Y-67367961D01*
X37150524Y-67367961D02*
X37102905Y-67272723D01*
X37102905Y-67272723D02*
X37055286Y-67082247D01*
X37055286Y-67082247D02*
X37055286Y-66939390D01*
X37055286Y-66939390D02*
X37102905Y-66748914D01*
X37102905Y-66748914D02*
X37150524Y-66653676D01*
X37150524Y-66653676D02*
X37245762Y-66558438D01*
X37245762Y-66558438D02*
X37388619Y-66510819D01*
X37388619Y-66510819D02*
X37483857Y-66510819D01*
X37483857Y-66510819D02*
X37626714Y-66558438D01*
X37626714Y-66558438D02*
X37674333Y-66606057D01*
X38626714Y-67510819D02*
X38055286Y-67510819D01*
X38341000Y-67510819D02*
X38341000Y-66510819D01*
X38341000Y-66510819D02*
X38245762Y-66653676D01*
X38245762Y-66653676D02*
X38150524Y-66748914D01*
X38150524Y-66748914D02*
X38055286Y-66796533D01*
X49501476Y-77074819D02*
X49501476Y-76074819D01*
X49501476Y-76074819D02*
X49882428Y-76074819D01*
X49882428Y-76074819D02*
X49977666Y-76122438D01*
X49977666Y-76122438D02*
X50025285Y-76170057D01*
X50025285Y-76170057D02*
X50072904Y-76265295D01*
X50072904Y-76265295D02*
X50072904Y-76408152D01*
X50072904Y-76408152D02*
X50025285Y-76503390D01*
X50025285Y-76503390D02*
X49977666Y-76551009D01*
X49977666Y-76551009D02*
X49882428Y-76598628D01*
X49882428Y-76598628D02*
X49501476Y-76598628D01*
X50691952Y-76074819D02*
X50882428Y-76074819D01*
X50882428Y-76074819D02*
X50977666Y-76122438D01*
X50977666Y-76122438D02*
X51072904Y-76217676D01*
X51072904Y-76217676D02*
X51120523Y-76408152D01*
X51120523Y-76408152D02*
X51120523Y-76741485D01*
X51120523Y-76741485D02*
X51072904Y-76931961D01*
X51072904Y-76931961D02*
X50977666Y-77027200D01*
X50977666Y-77027200D02*
X50882428Y-77074819D01*
X50882428Y-77074819D02*
X50691952Y-77074819D01*
X50691952Y-77074819D02*
X50596714Y-77027200D01*
X50596714Y-77027200D02*
X50501476Y-76931961D01*
X50501476Y-76931961D02*
X50453857Y-76741485D01*
X50453857Y-76741485D02*
X50453857Y-76408152D01*
X50453857Y-76408152D02*
X50501476Y-76217676D01*
X50501476Y-76217676D02*
X50596714Y-76122438D01*
X50596714Y-76122438D02*
X50691952Y-76074819D01*
X51453857Y-76074819D02*
X51691952Y-77074819D01*
X51691952Y-77074819D02*
X51882428Y-76360533D01*
X51882428Y-76360533D02*
X52072904Y-77074819D01*
X52072904Y-77074819D02*
X52311000Y-76074819D01*
X52691952Y-76551009D02*
X53025285Y-76551009D01*
X53168142Y-77074819D02*
X52691952Y-77074819D01*
X52691952Y-77074819D02*
X52691952Y-76074819D01*
X52691952Y-76074819D02*
X53168142Y-76074819D01*
X54168142Y-77074819D02*
X53834809Y-76598628D01*
X53596714Y-77074819D02*
X53596714Y-76074819D01*
X53596714Y-76074819D02*
X53977666Y-76074819D01*
X53977666Y-76074819D02*
X54072904Y-76122438D01*
X54072904Y-76122438D02*
X54120523Y-76170057D01*
X54120523Y-76170057D02*
X54168142Y-76265295D01*
X54168142Y-76265295D02*
X54168142Y-76408152D01*
X54168142Y-76408152D02*
X54120523Y-76503390D01*
X54120523Y-76503390D02*
X54072904Y-76551009D01*
X54072904Y-76551009D02*
X53977666Y-76598628D01*
X53977666Y-76598628D02*
X53596714Y-76598628D01*
X42555333Y-75289580D02*
X42507714Y-75337200D01*
X42507714Y-75337200D02*
X42364857Y-75384819D01*
X42364857Y-75384819D02*
X42269619Y-75384819D01*
X42269619Y-75384819D02*
X42126762Y-75337200D01*
X42126762Y-75337200D02*
X42031524Y-75241961D01*
X42031524Y-75241961D02*
X41983905Y-75146723D01*
X41983905Y-75146723D02*
X41936286Y-74956247D01*
X41936286Y-74956247D02*
X41936286Y-74813390D01*
X41936286Y-74813390D02*
X41983905Y-74622914D01*
X41983905Y-74622914D02*
X42031524Y-74527676D01*
X42031524Y-74527676D02*
X42126762Y-74432438D01*
X42126762Y-74432438D02*
X42269619Y-74384819D01*
X42269619Y-74384819D02*
X42364857Y-74384819D01*
X42364857Y-74384819D02*
X42507714Y-74432438D01*
X42507714Y-74432438D02*
X42555333Y-74480057D01*
X42888667Y-74384819D02*
X43507714Y-74384819D01*
X43507714Y-74384819D02*
X43174381Y-74765771D01*
X43174381Y-74765771D02*
X43317238Y-74765771D01*
X43317238Y-74765771D02*
X43412476Y-74813390D01*
X43412476Y-74813390D02*
X43460095Y-74861009D01*
X43460095Y-74861009D02*
X43507714Y-74956247D01*
X43507714Y-74956247D02*
X43507714Y-75194342D01*
X43507714Y-75194342D02*
X43460095Y-75289580D01*
X43460095Y-75289580D02*
X43412476Y-75337200D01*
X43412476Y-75337200D02*
X43317238Y-75384819D01*
X43317238Y-75384819D02*
X43031524Y-75384819D01*
X43031524Y-75384819D02*
X42936286Y-75337200D01*
X42936286Y-75337200D02*
X42888667Y-75289580D01*
D10*
X46001000Y-66956000D02*
X46001000Y-67286000D01*
X46001000Y-69696000D02*
X46001000Y-69366000D01*
X52541000Y-66956000D02*
X46001000Y-66956000D01*
X52541000Y-67286000D02*
X52541000Y-66956000D01*
X52541000Y-69366000D02*
X52541000Y-69696000D01*
X52541000Y-69696000D02*
X46001000Y-69696000D01*
X36860759Y-69027000D02*
X37490759Y-69027000D01*
X37175759Y-68712000D02*
X37175759Y-69342000D01*
X40361000Y-67636000D02*
X40361000Y-74096000D01*
X40401000Y-67636000D02*
X40401000Y-74096000D01*
X40441000Y-67636000D02*
X40441000Y-74096000D01*
X40481000Y-67638000D02*
X40481000Y-74094000D01*
X40521000Y-67639000D02*
X40521000Y-74093000D01*
X40561000Y-67642000D02*
X40561000Y-74090000D01*
X40601000Y-67644000D02*
X40601000Y-69826000D01*
X40601000Y-71906000D02*
X40601000Y-74088000D01*
X40641000Y-67648000D02*
X40641000Y-69826000D01*
X40641000Y-71906000D02*
X40641000Y-74084000D01*
X40681000Y-67651000D02*
X40681000Y-69826000D01*
X40681000Y-71906000D02*
X40681000Y-74081000D01*
X40721000Y-67655000D02*
X40721000Y-69826000D01*
X40721000Y-71906000D02*
X40721000Y-74077000D01*
X40761000Y-67660000D02*
X40761000Y-69826000D01*
X40761000Y-71906000D02*
X40761000Y-74072000D01*
X40801000Y-67665000D02*
X40801000Y-69826000D01*
X40801000Y-71906000D02*
X40801000Y-74067000D01*
X40841000Y-67671000D02*
X40841000Y-69826000D01*
X40841000Y-71906000D02*
X40841000Y-74061000D01*
X40881000Y-67677000D02*
X40881000Y-69826000D01*
X40881000Y-71906000D02*
X40881000Y-74055000D01*
X40921000Y-67684000D02*
X40921000Y-69826000D01*
X40921000Y-71906000D02*
X40921000Y-74048000D01*
X40961000Y-67691000D02*
X40961000Y-69826000D01*
X40961000Y-71906000D02*
X40961000Y-74041000D01*
X41001000Y-67699000D02*
X41001000Y-69826000D01*
X41001000Y-71906000D02*
X41001000Y-74033000D01*
X41041000Y-67707000D02*
X41041000Y-69826000D01*
X41041000Y-71906000D02*
X41041000Y-74025000D01*
X41082000Y-67716000D02*
X41082000Y-69826000D01*
X41082000Y-71906000D02*
X41082000Y-74016000D01*
X41122000Y-67725000D02*
X41122000Y-69826000D01*
X41122000Y-71906000D02*
X41122000Y-74007000D01*
X41162000Y-67735000D02*
X41162000Y-69826000D01*
X41162000Y-71906000D02*
X41162000Y-73997000D01*
X41202000Y-67745000D02*
X41202000Y-69826000D01*
X41202000Y-71906000D02*
X41202000Y-73987000D01*
X41242000Y-67756000D02*
X41242000Y-69826000D01*
X41242000Y-71906000D02*
X41242000Y-73976000D01*
X41282000Y-67768000D02*
X41282000Y-69826000D01*
X41282000Y-71906000D02*
X41282000Y-73964000D01*
X41322000Y-67780000D02*
X41322000Y-69826000D01*
X41322000Y-71906000D02*
X41322000Y-73952000D01*
X41362000Y-67792000D02*
X41362000Y-69826000D01*
X41362000Y-71906000D02*
X41362000Y-73940000D01*
X41402000Y-67805000D02*
X41402000Y-69826000D01*
X41402000Y-71906000D02*
X41402000Y-73927000D01*
X41442000Y-67819000D02*
X41442000Y-69826000D01*
X41442000Y-71906000D02*
X41442000Y-73913000D01*
X41482000Y-67833000D02*
X41482000Y-69826000D01*
X41482000Y-71906000D02*
X41482000Y-73899000D01*
X41522000Y-67848000D02*
X41522000Y-69826000D01*
X41522000Y-71906000D02*
X41522000Y-73884000D01*
X41562000Y-67864000D02*
X41562000Y-69826000D01*
X41562000Y-71906000D02*
X41562000Y-73868000D01*
X41602000Y-67880000D02*
X41602000Y-69826000D01*
X41602000Y-71906000D02*
X41602000Y-73852000D01*
X41642000Y-67896000D02*
X41642000Y-69826000D01*
X41642000Y-71906000D02*
X41642000Y-73836000D01*
X41682000Y-67914000D02*
X41682000Y-69826000D01*
X41682000Y-71906000D02*
X41682000Y-73818000D01*
X41722000Y-67932000D02*
X41722000Y-69826000D01*
X41722000Y-71906000D02*
X41722000Y-73800000D01*
X41762000Y-67950000D02*
X41762000Y-69826000D01*
X41762000Y-71906000D02*
X41762000Y-73782000D01*
X41802000Y-67970000D02*
X41802000Y-69826000D01*
X41802000Y-71906000D02*
X41802000Y-73762000D01*
X41842000Y-67990000D02*
X41842000Y-69826000D01*
X41842000Y-71906000D02*
X41842000Y-73742000D01*
X41882000Y-68010000D02*
X41882000Y-69826000D01*
X41882000Y-71906000D02*
X41882000Y-73722000D01*
X41922000Y-68032000D02*
X41922000Y-69826000D01*
X41922000Y-71906000D02*
X41922000Y-73700000D01*
X41962000Y-68054000D02*
X41962000Y-69826000D01*
X41962000Y-71906000D02*
X41962000Y-73678000D01*
X42002000Y-68076000D02*
X42002000Y-69826000D01*
X42002000Y-71906000D02*
X42002000Y-73656000D01*
X42042000Y-68100000D02*
X42042000Y-69826000D01*
X42042000Y-71906000D02*
X42042000Y-73632000D01*
X42082000Y-68124000D02*
X42082000Y-69826000D01*
X42082000Y-71906000D02*
X42082000Y-73608000D01*
X42122000Y-68150000D02*
X42122000Y-69826000D01*
X42122000Y-71906000D02*
X42122000Y-73582000D01*
X42162000Y-68176000D02*
X42162000Y-69826000D01*
X42162000Y-71906000D02*
X42162000Y-73556000D01*
X42202000Y-68202000D02*
X42202000Y-69826000D01*
X42202000Y-71906000D02*
X42202000Y-73530000D01*
X42242000Y-68230000D02*
X42242000Y-69826000D01*
X42242000Y-71906000D02*
X42242000Y-73502000D01*
X42282000Y-68259000D02*
X42282000Y-69826000D01*
X42282000Y-71906000D02*
X42282000Y-73473000D01*
X42322000Y-68288000D02*
X42322000Y-69826000D01*
X42322000Y-71906000D02*
X42322000Y-73444000D01*
X42362000Y-68318000D02*
X42362000Y-69826000D01*
X42362000Y-71906000D02*
X42362000Y-73414000D01*
X42402000Y-68350000D02*
X42402000Y-69826000D01*
X42402000Y-71906000D02*
X42402000Y-73382000D01*
X42442000Y-68382000D02*
X42442000Y-69826000D01*
X42442000Y-71906000D02*
X42442000Y-73350000D01*
X42482000Y-68416000D02*
X42482000Y-69826000D01*
X42482000Y-71906000D02*
X42482000Y-73316000D01*
X42522000Y-68450000D02*
X42522000Y-69826000D01*
X42522000Y-71906000D02*
X42522000Y-73282000D01*
X42562000Y-68486000D02*
X42562000Y-69826000D01*
X42562000Y-71906000D02*
X42562000Y-73246000D01*
X42602000Y-68523000D02*
X42602000Y-69826000D01*
X42602000Y-71906000D02*
X42602000Y-73209000D01*
X42642000Y-68561000D02*
X42642000Y-69826000D01*
X42642000Y-71906000D02*
X42642000Y-73171000D01*
X42682000Y-68601000D02*
X42682000Y-73131000D01*
X42722000Y-68642000D02*
X42722000Y-73090000D01*
X42762000Y-68684000D02*
X42762000Y-73048000D01*
X42802000Y-68729000D02*
X42802000Y-73003000D01*
X42842000Y-68774000D02*
X42842000Y-72958000D01*
X42882000Y-68822000D02*
X42882000Y-72910000D01*
X42922000Y-68871000D02*
X42922000Y-72861000D01*
X42962000Y-68922000D02*
X42962000Y-72810000D01*
X43002000Y-68976000D02*
X43002000Y-72756000D01*
X43042000Y-69032000D02*
X43042000Y-72700000D01*
X43082000Y-69090000D02*
X43082000Y-72642000D01*
X43122000Y-69152000D02*
X43122000Y-72580000D01*
X43162000Y-69216000D02*
X43162000Y-72516000D01*
X43202000Y-69285000D02*
X43202000Y-72447000D01*
X43242000Y-69357000D02*
X43242000Y-72375000D01*
X43282000Y-69434000D02*
X43282000Y-72298000D01*
X43322000Y-69516000D02*
X43322000Y-72216000D01*
X43362000Y-69604000D02*
X43362000Y-72128000D01*
X43402000Y-69701000D02*
X43402000Y-72031000D01*
X43442000Y-69807000D02*
X43442000Y-71925000D01*
X43482000Y-69926000D02*
X43482000Y-71806000D01*
X43522000Y-70064000D02*
X43522000Y-71668000D01*
X43562000Y-70233000D02*
X43562000Y-71499000D01*
X43602000Y-70464000D02*
X43602000Y-71268000D01*
X43631000Y-70866000D02*
G75*
G02*
X37091000Y-70866000I-3270000J0D01*
G01*
X37091000Y-70866000D02*
G75*
G02*
X43631000Y-70866000I3270000J0D01*
G01*
D11*
X37720000Y-89356000D02*
X38620000Y-89356000D01*
X39720000Y-89356000D02*
X41720000Y-89356000D01*
X40470000Y-90031000D02*
G75*
G02*
X40395000Y-88606000I-750000J675000D01*
G01*
X37645000Y-89356000D02*
G75*
G02*
X35795000Y-89356000I-925000J0D01*
G01*
X35795000Y-89356000D02*
G75*
G02*
X37645000Y-89356000I925000J0D01*
G01*
D12*
X39895000Y-89356000D02*
G75*
G02*
X39545000Y-89356000I-175000J0D01*
G01*
X39545000Y-89356000D02*
G75*
G02*
X39895000Y-89356000I175000J0D01*
G01*
D11*
X43645000Y-89356000D02*
G75*
G02*
X41795000Y-89356000I-925000J0D01*
G01*
X41795000Y-89356000D02*
G75*
G02*
X43645000Y-89356000I925000J0D01*
G01*
D10*
X50251000Y-72424000D02*
X50251000Y-72580000D01*
X50251000Y-74740000D02*
X50251000Y-74896000D01*
X50251000Y-72424484D02*
G75*
G02*
X53483335Y-72581392I1560000J-1235516D01*
G01*
X50770039Y-72580000D02*
G75*
G02*
X52852130Y-72580163I1040961J-1080000D01*
G01*
X52852130Y-74739837D02*
G75*
G02*
X50770039Y-74740000I-1041130J1079837D01*
G01*
X53483335Y-74738608D02*
G75*
G02*
X50251000Y-74895516I-1672335J1078608D01*
G01*
X25550200Y-75976500D02*
X40250200Y-75976500D01*
X25550200Y-85176500D02*
X25550200Y-75976500D01*
X34350200Y-85176500D02*
X25550200Y-85176500D01*
X39400200Y-75776500D02*
X40450200Y-75776500D01*
X40250200Y-75976500D02*
X40250200Y-78576500D01*
X40250200Y-82476500D02*
X40250200Y-85176500D01*
X40250200Y-85176500D02*
X38350200Y-85176500D01*
X40450200Y-76826500D02*
X40450200Y-75776500D01*
X43941199Y-72465000D02*
X44341199Y-72465000D01*
X44141199Y-72265000D02*
X44141199Y-72665000D01*
X46211000Y-71580000D02*
X46211000Y-72820000D01*
X46211000Y-74500000D02*
X46211000Y-75740000D01*
X46251000Y-71580000D02*
X46251000Y-72820000D01*
X46251000Y-74500000D02*
X46251000Y-75740000D01*
X46291000Y-71581000D02*
X46291000Y-72820000D01*
X46291000Y-74500000D02*
X46291000Y-75739000D01*
X46331000Y-71583000D02*
X46331000Y-72820000D01*
X46331000Y-74500000D02*
X46331000Y-75737000D01*
X46371000Y-71586000D02*
X46371000Y-72820000D01*
X46371000Y-74500000D02*
X46371000Y-75734000D01*
X46411000Y-71589000D02*
X46411000Y-72820000D01*
X46411000Y-74500000D02*
X46411000Y-75731000D01*
X46451000Y-71593000D02*
X46451000Y-72820000D01*
X46451000Y-74500000D02*
X46451000Y-75727000D01*
X46491000Y-71598000D02*
X46491000Y-72820000D01*
X46491000Y-74500000D02*
X46491000Y-75722000D01*
X46531000Y-71604000D02*
X46531000Y-72820000D01*
X46531000Y-74500000D02*
X46531000Y-75716000D01*
X46571000Y-71610000D02*
X46571000Y-72820000D01*
X46571000Y-74500000D02*
X46571000Y-75710000D01*
X46611000Y-71618000D02*
X46611000Y-72820000D01*
X46611000Y-74500000D02*
X46611000Y-75702000D01*
X46651000Y-71626000D02*
X46651000Y-72820000D01*
X46651000Y-74500000D02*
X46651000Y-75694000D01*
X46691000Y-71635000D02*
X46691000Y-72820000D01*
X46691000Y-74500000D02*
X46691000Y-75685000D01*
X46731000Y-71644000D02*
X46731000Y-72820000D01*
X46731000Y-74500000D02*
X46731000Y-75676000D01*
X46771000Y-71655000D02*
X46771000Y-72820000D01*
X46771000Y-74500000D02*
X46771000Y-75665000D01*
X46811000Y-71666000D02*
X46811000Y-72820000D01*
X46811000Y-74500000D02*
X46811000Y-75654000D01*
X46851000Y-71678000D02*
X46851000Y-72820000D01*
X46851000Y-74500000D02*
X46851000Y-75642000D01*
X46891000Y-71692000D02*
X46891000Y-72820000D01*
X46891000Y-74500000D02*
X46891000Y-75628000D01*
X46932000Y-71706000D02*
X46932000Y-72820000D01*
X46932000Y-74500000D02*
X46932000Y-75614000D01*
X46972000Y-71720000D02*
X46972000Y-72820000D01*
X46972000Y-74500000D02*
X46972000Y-75600000D01*
X47012000Y-71736000D02*
X47012000Y-72820000D01*
X47012000Y-74500000D02*
X47012000Y-75584000D01*
X47052000Y-71753000D02*
X47052000Y-72820000D01*
X47052000Y-74500000D02*
X47052000Y-75567000D01*
X47092000Y-71771000D02*
X47092000Y-72820000D01*
X47092000Y-74500000D02*
X47092000Y-75549000D01*
X47132000Y-71790000D02*
X47132000Y-72820000D01*
X47132000Y-74500000D02*
X47132000Y-75530000D01*
X47172000Y-71809000D02*
X47172000Y-72820000D01*
X47172000Y-74500000D02*
X47172000Y-75511000D01*
X47212000Y-71830000D02*
X47212000Y-72820000D01*
X47212000Y-74500000D02*
X47212000Y-75490000D01*
X47252000Y-71852000D02*
X47252000Y-72820000D01*
X47252000Y-74500000D02*
X47252000Y-75468000D01*
X47292000Y-71875000D02*
X47292000Y-72820000D01*
X47292000Y-74500000D02*
X47292000Y-75445000D01*
X47332000Y-71900000D02*
X47332000Y-72820000D01*
X47332000Y-74500000D02*
X47332000Y-75420000D01*
X47372000Y-71925000D02*
X47372000Y-72820000D01*
X47372000Y-74500000D02*
X47372000Y-75395000D01*
X47412000Y-71952000D02*
X47412000Y-72820000D01*
X47412000Y-74500000D02*
X47412000Y-75368000D01*
X47452000Y-71980000D02*
X47452000Y-72820000D01*
X47452000Y-74500000D02*
X47452000Y-75340000D01*
X47492000Y-72010000D02*
X47492000Y-72820000D01*
X47492000Y-74500000D02*
X47492000Y-75310000D01*
X47532000Y-72041000D02*
X47532000Y-72820000D01*
X47532000Y-74500000D02*
X47532000Y-75279000D01*
X47572000Y-72073000D02*
X47572000Y-72820000D01*
X47572000Y-74500000D02*
X47572000Y-75247000D01*
X47612000Y-72108000D02*
X47612000Y-72820000D01*
X47612000Y-74500000D02*
X47612000Y-75212000D01*
X47652000Y-72144000D02*
X47652000Y-72820000D01*
X47652000Y-74500000D02*
X47652000Y-75176000D01*
X47692000Y-72182000D02*
X47692000Y-72820000D01*
X47692000Y-74500000D02*
X47692000Y-75138000D01*
X47732000Y-72222000D02*
X47732000Y-72820000D01*
X47732000Y-74500000D02*
X47732000Y-75098000D01*
X47772000Y-72264000D02*
X47772000Y-72820000D01*
X47772000Y-74500000D02*
X47772000Y-75056000D01*
X47812000Y-72309000D02*
X47812000Y-75011000D01*
X47852000Y-72356000D02*
X47852000Y-74964000D01*
X47892000Y-72406000D02*
X47892000Y-74914000D01*
X47932000Y-72460000D02*
X47932000Y-74860000D01*
X47972000Y-72518000D02*
X47972000Y-74802000D01*
X48012000Y-72580000D02*
X48012000Y-74740000D01*
X48052000Y-72647000D02*
X48052000Y-74673000D01*
X48092000Y-72720000D02*
X48092000Y-74600000D01*
X48132000Y-72801000D02*
X48132000Y-74519000D01*
X48172000Y-72892000D02*
X48172000Y-74428000D01*
X48212000Y-72996000D02*
X48212000Y-74324000D01*
X48252000Y-73123000D02*
X48252000Y-74197000D01*
X48292000Y-73290000D02*
X48292000Y-74030000D01*
X48331000Y-73660000D02*
G75*
G02*
X44091000Y-73660000I-2120000J0D01*
G01*
X44091000Y-73660000D02*
G75*
G02*
X48331000Y-73660000I2120000J0D01*
G01*
%LPC*%
D13*
X53081000Y-68326000D03*
D14*
X45461000Y-68326000D03*
D15*
X39111000Y-70866000D03*
D13*
X41611000Y-70866000D03*
D16*
X50541000Y-73660000D03*
D17*
X53081000Y-73660000D03*
D18*
X172720000Y-71120000D03*
D19*
X39350200Y-80576500D03*
D20*
X33350200Y-80576500D03*
D21*
X36350200Y-85276500D03*
D18*
X30480000Y-71120000D03*
D22*
X45461000Y-73660000D03*
D23*
X46961000Y-73660000D03*
D24*
X132080000Y-127000000D03*
D25*
X132080000Y-129540000D03*
X134620000Y-127000000D03*
X134620000Y-129540000D03*
X137160000Y-127000000D03*
X137160000Y-129540000D03*
X139700000Y-127000000D03*
X139700000Y-129540000D03*
X142240000Y-127000000D03*
X142240000Y-129540000D03*
X144780000Y-127000000D03*
X144780000Y-129540000D03*
X147320000Y-127000000D03*
X147320000Y-129540000D03*
X149860000Y-127000000D03*
X149860000Y-129540000D03*
X152400000Y-127000000D03*
X152400000Y-129540000D03*
X154940000Y-127000000D03*
X154940000Y-129540000D03*
X157480000Y-127000000D03*
X157480000Y-129540000D03*
X160020000Y-127000000D03*
X160020000Y-129540000D03*
X162560000Y-127000000D03*
X162560000Y-129540000D03*
X165100000Y-127000000D03*
X165100000Y-129540000D03*
X167640000Y-127000000D03*
X167640000Y-129540000D03*
X170180000Y-127000000D03*
X170180000Y-129540000D03*
X172720000Y-127000000D03*
X172720000Y-129540000D03*
X175260000Y-127000000D03*
X175260000Y-129540000D03*
D24*
X27940000Y-127000000D03*
D25*
X27940000Y-129540000D03*
X30480000Y-127000000D03*
X30480000Y-129540000D03*
X33020000Y-127000000D03*
X33020000Y-129540000D03*
X35560000Y-127000000D03*
X35560000Y-129540000D03*
X38100000Y-127000000D03*
X38100000Y-129540000D03*
X40640000Y-127000000D03*
X40640000Y-129540000D03*
X43180000Y-127000000D03*
X43180000Y-129540000D03*
X45720000Y-127000000D03*
X45720000Y-129540000D03*
X48260000Y-127000000D03*
X48260000Y-129540000D03*
X50800000Y-127000000D03*
X50800000Y-129540000D03*
X53340000Y-127000000D03*
X53340000Y-129540000D03*
X55880000Y-127000000D03*
X55880000Y-129540000D03*
X58420000Y-127000000D03*
X58420000Y-129540000D03*
X60960000Y-127000000D03*
X60960000Y-129540000D03*
X63500000Y-127000000D03*
X63500000Y-129540000D03*
X66040000Y-127000000D03*
X66040000Y-129540000D03*
X68580000Y-127000000D03*
X68580000Y-129540000D03*
X71120000Y-127000000D03*
X71120000Y-129540000D03*
X73660000Y-127000000D03*
X73660000Y-129540000D03*
X76200000Y-127000000D03*
X76200000Y-129540000D03*
X78740000Y-127000000D03*
X78740000Y-129540000D03*
X81280000Y-127000000D03*
X81280000Y-129540000D03*
X83820000Y-127000000D03*
X83820000Y-129540000D03*
X86360000Y-127000000D03*
X86360000Y-129540000D03*
X88900000Y-127000000D03*
X88900000Y-129540000D03*
X91440000Y-127000000D03*
X91440000Y-129540000D03*
X93980000Y-127000000D03*
X93980000Y-129540000D03*
X96520000Y-127000000D03*
X96520000Y-129540000D03*
X99060000Y-127000000D03*
X99060000Y-129540000D03*
X101600000Y-127000000D03*
X101600000Y-129540000D03*
X104140000Y-127000000D03*
X104140000Y-129540000D03*
X106680000Y-127000000D03*
X106680000Y-129540000D03*
X109220000Y-127000000D03*
X109220000Y-129540000D03*
X111760000Y-127000000D03*
X111760000Y-129540000D03*
X114300000Y-127000000D03*
X114300000Y-129540000D03*
X116840000Y-127000000D03*
X116840000Y-129540000D03*
X119380000Y-127000000D03*
X119380000Y-129540000D03*
X121920000Y-127000000D03*
X121920000Y-129540000D03*
X124460000Y-127000000D03*
X124460000Y-129540000D03*
X127000000Y-127000000D03*
X127000000Y-129540000D03*
%LPD*%
M02*
